<?xml version="1.0" encoding="UTF-8" standalone="no"?>
<svg
   version="1.1"
   viewBox="0 0 246.79309 124.93995"
   width="246.79309"
   height="124.93995"
   class="excalidraw-svg"
   id="svg5"
   sodipodi:docname="Container.svg"
   inkscape:version="1.4.2 (ebf0e940, 2025-05-08)"
   xmlns:inkscape="http://www.inkscape.org/namespaces/inkscape"
   xmlns:sodipodi="http://sodipodi.sourceforge.net/DTD/sodipodi-0.dtd"
   xmlns="http://www.w3.org/2000/svg"
   xmlns:svg="http://www.w3.org/2000/svg">
  <sodipodi:namedview
     id="namedview5"
     pagecolor="#ffffff"
     bordercolor="#999999"
     borderopacity="1"
     inkscape:showpageshadow="2"
     inkscape:pageopacity="0"
     inkscape:pagecheckerboard="0"
     inkscape:deskcolor="#d1d1d1"
     inkscape:zoom="3.5"
     inkscape:cx="150"
     inkscape:cy="62.285714"
     inkscape:current-layer="svg5"
     showgrid="true">
    <inkscape:grid
       id="grid7"
       units="px"
       originx="0"
       originy="0"
       spacingx="1"
       spacingy="1"
       empcolor="#0099e5"
       empopacity="0.30196078"
       color="#0099e5"
       opacity="0.14901961"
       empspacing="5"
       enabled="true"
       visible="true" />
  </sodipodi:namedview>
  <!-- svg-source:excalidraw -->
  <metadata
     id="metadata1" />
  <defs
     id="defs1">
    <style
       class="style-fonts"
       id="style1" />
  </defs>
  <rect
     x="0"
     y="0"
     width="246.79309"
     height="124.93995"
     fill="#ffffff"
     id="rect1"
     style="stroke-width:0.5" />
  <g
     stroke-linecap="round"
     transform="matrix(0.5,0,0,0.5,4.999997,5.0000005)"
     id="g1"
     style="stroke:#1971c2;stroke-width:10;stroke-dasharray:30,30;stroke-dashoffset:42;stroke-opacity:1">
    <path
       d="m 237,0 c 76.19,37.03 152.38,74.07 236.59,115 m 0,0 C 408.88,146.42 344.18,177.84 237,229.88 m 0,0 C 184.15,204.26 131.3,178.64 0,115 m 0,0 C 78.75,76.79 157.5,38.58 237,0"
       stroke="#1971c2"
       stroke-width="4.5"
       fill="none"
       stroke-dasharray="8 12"
       id="path1"
       style="stroke:#1971c2;stroke-width:10;stroke-dasharray:30,30;stroke-dashoffset:42;stroke-opacity:1" />
  </g>
  <g
     id="g7"
     transform="matrix(0.63753274,0,0,0.70852885,2.3419226,33.361068)"
     style="stroke-width:5.95154848;stroke-dasharray:none">
    <g
       stroke-linecap="round"
       transform="rotate(179.50835,135.53081,36.686012)"
       id="g4"
       style="stroke-width:5.95154848;stroke-dasharray:none">
      <path
         d="M 0,0 H 157.14 V 62.84 H 0"
         stroke="none"
         stroke-width="0"
         fill="#ffffff"
         id="path3-7"
         style="stroke-width:5.95154848;stroke-dasharray:none" />
      <path
         d="M 0,0 C 47.6,0 95.21,0 157.14,0 M 0,0 c 61.22,0 122.43,0 157.14,0 m 0,0 c 0,16.13 0,32.26 0,62.84 m 0,-62.84 c 0,22.03 0,44.06 0,62.84 m 0,0 c -61.41,0 -122.82,0 -157.14,0 m 157.14,0 c -46.16,0 -92.32,0 -157.14,0 m 0,0 C 0,49.69 0,36.54 0,0 M 0,62.84 C 0,48.83 0,34.82 0,0"
         stroke="#1e1e1e"
         stroke-width="4"
         fill="none"
         id="path4-3"
         style="stroke-width:5.95154848;stroke-dasharray:none" />
    </g>
    <g
       stroke-linecap="round"
       transform="rotate(179.50835,73.568131,25.993425)"
       id="g6"
       style="stroke-width:5.95154848;stroke-dasharray:none">
      <path
         d="m 18.54,8.71 c 0,0.5 -0.04,1.01 -0.14,1.51 -0.09,0.5 -0.23,0.99 -0.42,1.47 -0.18,0.47 -0.41,0.94 -0.68,1.37 -0.27,0.44 -0.58,0.86 -0.93,1.25 -0.34,0.38 -0.73,0.75 -1.14,1.07 -0.41,0.32 -0.86,0.62 -1.32,0.87 -0.47,0.25 -0.96,0.47 -1.47,0.64 -0.5,0.17 -1.03,0.31 -1.56,0.4 -0.53,0.08 -1.07,0.13 -1.61,0.13 -0.53,0 -1.08,-0.05 -1.61,-0.13 C 7.13,17.2 6.61,17.06 6.1,16.89 5.6,16.72 5.1,16.5 4.64,16.25 4.17,16 3.72,15.7 3.31,15.38 2.9,15.06 2.51,14.69 2.17,14.31 1.82,13.92 1.51,13.5 1.24,13.06 0.97,12.63 0.74,12.16 0.56,11.69 0.38,11.21 0.23,10.72 0.14,10.22 0.05,9.72 0,9.21 0,8.71 0,8.2 0.05,7.69 0.14,7.2 0.23,6.7 0.38,6.2 0.56,5.73 0.74,5.26 0.97,4.79 1.24,4.35 1.51,3.92 1.82,3.5 2.17,3.11 2.51,2.72 2.9,2.36 3.31,2.04 3.72,1.71 4.17,1.42 4.64,1.17 5.1,0.91 5.6,0.7 6.1,0.53 6.61,0.35 7.13,0.22 7.66,0.13 8.19,0.04 8.74,0 9.27,0 c 0.54,0 1.08,0.04 1.61,0.13 0.53,0.09 1.06,0.22 1.56,0.4 0.51,0.17 1,0.38 1.47,0.64 0.46,0.25 0.91,0.54 1.32,0.87 0.41,0.32 0.8,0.68 1.14,1.07 0.35,0.39 0.66,0.81 0.93,1.24 0.27,0.44 0.5,0.91 0.68,1.38 0.19,0.47 0.33,0.97 0.42,1.47 0.1,0.49 0.12,1.26 0.14,1.51 0.03,0.25 0.03,-0.25 0,0"
         stroke="none"
         stroke-width="0"
         fill="#ffffff"
         id="path5-7"
         style="stroke-width:5.95154848;stroke-dasharray:none" />
      <path
         d="m 18.54,8.71 c 0,0.5 -0.04,1.01 -0.14,1.51 -0.09,0.5 -0.23,0.99 -0.42,1.47 -0.18,0.47 -0.41,0.94 -0.68,1.37 -0.27,0.44 -0.58,0.86 -0.93,1.25 -0.34,0.38 -0.73,0.75 -1.14,1.07 -0.41,0.32 -0.86,0.62 -1.32,0.87 -0.47,0.25 -0.96,0.47 -1.47,0.64 -0.5,0.17 -1.03,0.31 -1.56,0.4 -0.53,0.08 -1.07,0.13 -1.61,0.13 -0.53,0 -1.08,-0.05 -1.61,-0.13 C 7.13,17.2 6.61,17.06 6.1,16.89 5.6,16.72 5.1,16.5 4.64,16.25 4.17,16 3.72,15.7 3.31,15.38 2.9,15.06 2.51,14.69 2.17,14.31 1.82,13.92 1.51,13.5 1.24,13.06 0.97,12.63 0.74,12.16 0.56,11.69 0.38,11.21 0.23,10.72 0.14,10.22 0.05,9.72 0,9.21 0,8.71 0,8.2 0.05,7.69 0.14,7.2 0.23,6.7 0.38,6.2 0.56,5.73 0.74,5.26 0.97,4.79 1.24,4.35 1.51,3.92 1.82,3.5 2.17,3.11 2.51,2.72 2.9,2.36 3.31,2.04 3.72,1.71 4.17,1.42 4.64,1.17 5.1,0.91 5.6,0.7 6.1,0.53 6.61,0.35 7.13,0.22 7.66,0.13 8.19,0.04 8.74,0 9.27,0 c 0.54,0 1.08,0.04 1.61,0.13 0.53,0.09 1.06,0.22 1.56,0.4 0.51,0.17 1,0.38 1.47,0.64 0.46,0.25 0.91,0.54 1.32,0.87 0.41,0.32 0.8,0.68 1.14,1.07 0.35,0.39 0.66,0.81 0.93,1.24 0.27,0.44 0.5,0.91 0.68,1.38 0.19,0.47 0.33,0.97 0.42,1.47 0.1,0.49 0.12,1.26 0.14,1.51 0.03,0.25 0.03,-0.25 0,0"
         stroke="#1e1e1e"
         stroke-width="4"
         fill="none"
         id="path6"
         style="stroke-width:5.95154848;stroke-dasharray:none" />
    </g>
    <g
       stroke-linecap="round"
       transform="rotate(179.50835,130.13991,22.349439)"
       id="g8"
       style="stroke-width:5.95154848;stroke-dasharray:none">
      <path
         d="M 0,0 H 88.48 V 3.81 H 0"
         stroke="none"
         stroke-width="0"
         fill="#1e1e1e"
         id="path7"
         style="stroke-width:5.95154848;stroke-dasharray:none" />
      <path
         d="M 0,0 C 19.6,0 39.2,0 88.48,0 M 0,0 c 22.68,0 45.35,0 88.48,0 m 0,0 c 0,0.77 0,1.54 0,3.81 m 0,-3.81 c 0,1.3 0,2.6 0,3.81 m 0,0 c -35.02,0 -70.04,0 -88.48,0 m 88.48,0 c -18.25,0 -36.49,0 -88.48,0 m 0,0 C 0,2.83 0,1.85 0,0 M 0,3.81 C 0,2.85 0,1.89 0,0"
         stroke="#1e1e1e"
         stroke-width="4"
         fill="none"
         id="path8"
         style="stroke-width:5.95154848;stroke-dasharray:none" />
    </g>
  </g>
</svg>
