<svg version="1.1" xmlns="http://www.w3.org/2000/svg" viewBox="0 0 159.03423940528484 159.03423940528484" width="159.03423940528484" height="159.03423940528484" class="excalidraw-svg"><!-- svg-source:excalidraw --><metadata></metadata><defs><style class="style-fonts">
      </style></defs><g stroke-linecap="round" transform="translate(10 10) rotate(0 69.51711970264242 69.51711970264242)"><path d="M0 0 C0 0, 0 0, 0 0 M0 0 C0 0, 0 0, 0 0 M0.13 12.04 C2.96 8.78, 5.8 5.53, 10.63 -0.03 M0.13 12.04 C2.75 9.03, 5.36 6.03, 10.63 -0.03 M0.27 24.08 C8.42 14.7, 16.58 5.32, 21.26 -0.07 M0.27 24.08 C8.48 14.64, 16.69 5.19, 21.26 -0.07 M-0.26 36.88 C7.49 27.97, 15.24 19.05, 31.89 -0.1 M-0.26 36.88 C9.69 25.43, 19.64 13.98, 31.89 -0.1 M-0.12 48.92 C16.18 30.17, 32.48 11.42, 42.52 -0.14 M-0.12 48.92 C11.93 35.06, 23.98 21.19, 42.52 -0.14 M0.01 60.96 C21.06 36.74, 42.11 12.52, 53.15 -0.17 M0.01 60.96 C12.96 46.06, 25.92 31.16, 53.15 -0.17 M0.14 73 C24.14 45.4, 48.13 17.79, 63.78 -0.21 M0.14 73 C12.91 58.32, 25.67 43.63, 63.78 -0.21 M0.28 85.04 C15.91 67.06, 31.54 49.07, 74.41 -0.24 M0.28 85.04 C19.06 63.43, 37.84 41.83, 74.41 -0.24 M-0.25 97.84 C21.62 72.69, 43.48 47.54, 85.04 -0.28 M-0.25 97.84 C18 76.85, 36.25 55.86, 85.04 -0.28 M-0.11 109.88 C21.57 84.94, 43.25 60, 95.67 -0.31 M-0.11 109.88 C21.38 85.15, 42.88 60.42, 95.67 -0.31 M0.02 121.92 C28.62 89.01, 57.23 56.11, 106.3 -0.34 M0.02 121.92 C39.97 75.95, 79.93 29.99, 106.3 -0.34 M0.15 133.96 C29.13 100.63, 58.1 67.3, 116.27 0.38 M0.15 133.96 C38.17 90.22, 76.19 46.49, 116.27 0.38 M6.19 139.21 C33.97 107.25, 61.75 75.29, 126.91 0.34 M6.19 139.21 C45.33 94.18, 84.47 49.16, 126.91 0.34 M16.82 139.17 C59.41 90.18, 102.01 41.18, 137.54 0.31 M16.82 139.17 C43.03 109.02, 69.24 78.87, 137.54 0.31 M26.79 139.89 C62.66 98.63, 98.53 57.37, 138.98 10.84 M26.79 139.89 C58.3 103.65, 89.8 67.41, 138.98 10.84 M37.42 139.86 C65.34 107.75, 93.25 75.64, 139.11 22.88 M37.42 139.86 C61.1 112.62, 84.77 85.39, 139.11 22.88 M48.05 139.82 C73.93 110.06, 99.81 80.29, 139.25 34.92 M48.05 139.82 C71.05 113.37, 94.04 86.93, 139.25 34.92 M58.68 139.79 C76.29 119.53, 93.9 99.28, 139.38 46.96 M58.68 139.79 C90.81 102.84, 122.93 65.89, 139.38 46.96 M69.31 139.76 C85.58 121.05, 101.84 102.34, 138.86 59.76 M69.31 139.76 C85.23 121.44, 101.15 103.13, 138.86 59.76 M79.94 139.72 C94.91 122.51, 109.87 105.3, 138.99 71.8 M79.94 139.72 C92.98 124.72, 106.02 109.73, 138.99 71.8 M90.57 139.69 C102.58 125.88, 114.58 112.07, 139.12 83.84 M90.57 139.69 C109.33 118.11, 128.08 96.54, 139.12 83.84 M101.2 139.65 C113.19 125.86, 125.18 112.07, 139.26 95.88 M101.2 139.65 C112.37 126.81, 123.53 113.97, 139.26 95.88 M111.83 139.62 C121.94 127.99, 132.04 116.37, 139.39 107.92 M111.83 139.62 C119.66 130.62, 127.48 121.62, 139.39 107.92 M122.47 139.58 C125.81 135.74, 129.15 131.89, 138.87 120.71 M122.47 139.58 C127.26 134.06, 132.06 128.55, 138.87 120.71 M133.1 139.55 C134.28 138.18, 135.47 136.82, 139 132.76 M133.1 139.55 C134.66 137.75, 136.23 135.94, 139 132.76 M-0.16 138.89 C-0.16 138.89, -0.16 138.89, -0.16 138.89 M-0.16 138.89 C-0.16 138.89, -0.16 138.89, -0.16 138.89 M11.88 138.76 C7.98 135.37, 4.07 131.97, -0.2 128.26 M11.88 138.76 C8.75 136.04, 5.62 133.32, -0.2 128.26 M24.67 139.28 C14.88 130.77, 5.09 122.25, -0.23 117.63 M24.67 139.28 C14.74 130.64, 4.8 122, -0.23 117.63 M36.72 139.15 C26.58 130.34, 16.44 121.52, -0.27 107 M36.72 139.15 C22.73 126.99, 8.74 114.83, -0.27 107 M48.76 139.02 C37.8 129.49, 26.84 119.96, -0.3 96.37 M48.76 139.02 C34.93 127, 21.1 114.98, -0.3 96.37 M60.8 138.88 C38.87 119.82, 16.94 100.76, -0.33 85.74 M60.8 138.88 C41.29 121.93, 21.79 104.97, -0.33 85.74 M72.84 138.75 C47.99 117.15, 23.14 95.55, -0.37 75.11 M72.84 138.75 C55.14 123.37, 37.44 107.98, -0.37 75.11 M85.63 139.27 C64.5 120.91, 43.37 102.54, 0.35 65.14 M85.63 139.27 C54.65 112.34, 23.67 85.41, 0.35 65.14 M97.67 139.14 C71.38 116.28, 45.09 93.43, 0.32 54.51 M97.67 139.14 C60.94 107.2, 24.2 75.27, 0.32 54.51 M109.72 139.01 C68.35 103.05, 26.99 67.09, 0.28 43.88 M109.72 139.01 C68.5 103.18, 27.28 67.34, 0.28 43.88 M121.76 138.87 C96.27 116.72, 70.78 94.56, 0.25 33.25 M121.76 138.87 C88.75 110.18, 55.74 81.49, 0.25 33.25 M133.8 138.74 C86.83 97.92, 39.87 57.09, 0.21 22.62 M133.8 138.74 C105.83 114.43, 77.87 90.13, 0.21 22.62 M139.8 133.36 C109.29 106.84, 78.78 80.31, 0.18 11.99 M139.8 133.36 C85.08 85.79, 30.35 38.22, 0.18 11.99 M139.77 122.73 C92.81 81.91, 45.86 41.1, 0.14 1.36 M139.77 122.73 C98.46 86.83, 57.16 50.92, 0.14 1.36 M139.73 112.1 C111.09 87.2, 82.44 62.3, 10.68 -0.09 M139.73 112.1 C102.31 79.57, 64.89 47.04, 10.68 -0.09 M139.7 101.47 C108.63 74.46, 77.55 47.45, 22.72 -0.22 M139.7 101.47 C109.87 75.54, 80.03 49.61, 22.72 -0.22 M139.66 90.84 C117.49 71.57, 95.32 52.29, 34.76 -0.35 M139.66 90.84 C118.49 72.44, 97.32 54.04, 34.76 -0.35 M139.63 80.21 C117.66 61.11, 95.69 42.01, 47.55 0.17 M139.63 80.21 C112.91 56.98, 86.19 33.76, 47.55 0.17 M139.59 69.58 C120.11 52.64, 100.63 35.71, 59.59 0.04 M139.59 69.58 C119.76 52.34, 99.93 35.1, 59.59 0.04 M139.56 58.95 C117.82 40.05, 96.09 21.16, 71.63 -0.1 M139.56 58.95 C113.14 35.98, 86.71 13.01, 71.63 -0.1 M139.52 48.32 C126.06 36.61, 112.6 24.91, 83.68 -0.23 M139.52 48.32 C126.51 37, 113.49 25.69, 83.68 -0.23 M139.49 37.69 C124.6 24.75, 109.71 11.81, 95.72 -0.36 M139.49 37.69 C125.33 25.38, 111.17 13.07, 95.72 -0.36 M139.46 27.06 C127.32 16.51, 115.19 5.97, 108.51 0.16 M139.46 27.06 C131.83 20.43, 124.2 13.8, 108.51 0.16 M139.42 16.43 C133.86 11.59, 128.29 6.76, 120.55 0.03 M139.42 16.43 C134.7 12.33, 129.99 8.23, 120.55 0.03 M139.39 5.8 C137.01 3.73, 134.63 1.66, 132.59 -0.11 M139.39 5.8 C137.61 4.25, 135.83 2.71, 132.59 -0.11" stroke="#fff5f5" stroke-width="1" fill="none"></path><path d="M0 0 C36.56 0, 73.11 0, 139.03 0 M0 0 C48.94 0, 97.88 0, 139.03 0 M139.03 0 C139.03 42.32, 139.03 84.64, 139.03 139.03 M139.03 0 C139.03 50.59, 139.03 101.18, 139.03 139.03 M139.03 139.03 C97.58 139.03, 56.13 139.03, 0 139.03 M139.03 139.03 C92.63 139.03, 46.23 139.03, 0 139.03 M0 139.03 C0 101.17, 0 63.32, 0 0 M0 139.03 C0 91.1, 0 43.17, 0 0" stroke="#e03131" stroke-width="2" fill="none"></path></g><g stroke-linecap="round" transform="translate(43.31236242837667 43.41488352249144) rotate(0 37.08589464409472 37.08589464409472)"><path d="M74.17 37.09 C74.17 39.02, 74.02 40.98, 73.72 42.89 C73.41 44.8, 72.95 46.71, 72.36 48.55 C71.76 50.39, 71.01 52.2, 70.13 53.92 C69.25 55.65, 68.23 57.32, 67.09 58.88 C65.95 60.45, 64.68 61.94, 63.31 63.31 C61.94 64.68, 60.45 65.95, 58.88 67.09 C57.32 68.23, 55.65 69.25, 53.92 70.13 C52.2 71.01, 50.39 71.76, 48.55 72.36 C46.71 72.95, 44.8 73.41, 42.89 73.72 C40.98 74.02, 39.02 74.17, 37.09 74.17 C35.15 74.17, 33.19 74.02, 31.28 73.72 C29.37 73.41, 27.46 72.95, 25.63 72.36 C23.79 71.76, 21.97 71.01, 20.25 70.13 C18.53 69.25, 16.85 68.23, 15.29 67.09 C13.72 65.95, 12.23 64.68, 10.86 63.31 C9.49 61.94, 8.22 60.45, 7.08 58.88 C5.95 57.32, 4.92 55.65, 4.04 53.92 C3.16 52.2, 2.41 50.39, 1.82 48.55 C1.22 46.71, 0.76 44.8, 0.46 42.89 C0.15 40.98, 0 39.02, 0 37.09 C0 35.15, 0.15 33.19, 0.46 31.28 C0.76 29.37, 1.22 27.46, 1.82 25.63 C2.41 23.79, 3.16 21.97, 4.04 20.25 C4.92 18.53, 5.95 16.85, 7.08 15.29 C8.22 13.72, 9.49 12.23, 10.86 10.86 C12.23 9.49, 13.72 8.22, 15.29 7.08 C16.85 5.95, 18.53 4.92, 20.25 4.04 C21.97 3.16, 23.79 2.41, 25.63 1.82 C27.46 1.22, 29.37 0.76, 31.28 0.46 C33.19 0.15, 35.15 0, 37.09 0 C39.02 0, 40.98 0.15, 42.89 0.46 C44.8 0.76, 46.71 1.22, 48.55 1.82 C50.39 2.41, 52.2 3.16, 53.92 4.04 C55.65 4.92, 57.32 5.95, 58.88 7.08 C60.45 8.22, 61.94 9.49, 63.31 10.86 C64.68 12.23, 65.95 13.72, 67.09 15.29 C68.23 16.85, 69.25 18.53, 70.13 20.25 C71.01 21.97, 71.76 23.79, 72.36 25.63 C72.95 27.46, 73.41 29.37, 73.72 31.28 C74.02 33.19, 74.1 36.12, 74.17 37.09 C74.25 38.05, 74.25 36.12, 74.17 37.09" stroke="none" stroke-width="0" fill="#fff5f5"></path><path d="M74.17 37.09 C74.17 39.02, 74.02 40.98, 73.72 42.89 C73.41 44.8, 72.95 46.71, 72.36 48.55 C71.76 50.39, 71.01 52.2, 70.13 53.92 C69.25 55.65, 68.23 57.32, 67.09 58.88 C65.95 60.45, 64.68 61.94, 63.31 63.31 C61.94 64.68, 60.45 65.95, 58.88 67.09 C57.32 68.23, 55.65 69.25, 53.92 70.13 C52.2 71.01, 50.39 71.76, 48.55 72.36 C46.71 72.95, 44.8 73.41, 42.89 73.72 C40.98 74.02, 39.02 74.17, 37.09 74.17 C35.15 74.17, 33.19 74.02, 31.28 73.72 C29.37 73.41, 27.46 72.95, 25.63 72.36 C23.79 71.76, 21.97 71.01, 20.25 70.13 C18.53 69.25, 16.85 68.23, 15.29 67.09 C13.72 65.95, 12.23 64.68, 10.86 63.31 C9.49 61.94, 8.22 60.45, 7.08 58.88 C5.95 57.32, 4.92 55.65, 4.04 53.92 C3.16 52.2, 2.41 50.39, 1.82 48.55 C1.22 46.71, 0.76 44.8, 0.46 42.89 C0.15 40.98, 0 39.02, 0 37.09 C0 35.15, 0.15 33.19, 0.46 31.28 C0.76 29.37, 1.22 27.46, 1.82 25.63 C2.41 23.79, 3.16 21.97, 4.04 20.25 C4.92 18.53, 5.95 16.85, 7.08 15.29 C8.22 13.72, 9.49 12.23, 10.86 10.86 C12.23 9.49, 13.72 8.22, 15.29 7.08 C16.85 5.95, 18.53 4.92, 20.25 4.04 C21.97 3.16, 23.79 2.41, 25.63 1.82 C27.46 1.22, 29.37 0.76, 31.28 0.46 C33.19 0.15, 35.15 0, 37.09 0 C39.02 0, 40.98 0.15, 42.89 0.46 C44.8 0.76, 46.71 1.22, 48.55 1.82 C50.39 2.41, 52.2 3.16, 53.92 4.04 C55.65 4.92, 57.32 5.95, 58.88 7.08 C60.45 8.22, 61.94 9.49, 63.31 10.86 C64.68 12.23, 65.95 13.72, 67.09 15.29 C68.23 16.85, 69.25 18.53, 70.13 20.25 C71.01 21.97, 71.76 23.79, 72.36 25.63 C72.95 27.46, 73.41 29.37, 73.72 31.28 C74.02 33.19, 74.1 36.12, 74.17 37.09 C74.25 38.05, 74.25 36.12, 74.17 37.09" stroke="#e03131" stroke-width="2" fill="none"></path></g><g stroke-linecap="round"><g transform="translate(101.99854114541222 28.773482615978992) rotate(0 15.980100944200103 16.884634959911338)"><path d="M0 0 C2.21 1.21, 9.15 4.02, 13.27 7.24 C17.39 10.45, 21.61 14.87, 24.72 19.3 C27.84 23.72, 30.79 31.6, 31.96 33.77 C33.13 35.94, 31.8 32.55, 31.77 32.3 M0 0 C2.21 1.21, 9.15 4.02, 13.27 7.24 C17.39 10.45, 21.61 14.87, 24.72 19.3 C27.84 23.72, 30.79 31.6, 31.96 33.77 C33.13 35.94, 31.8 32.55, 31.77 32.3" stroke="#e03131" stroke-width="2" fill="none"></path></g><g transform="translate(101.99854114541222 28.773482615978992) rotate(0 15.980100944200103 16.884634959911338)"><path d="M32.23 32.88 C32.1 32.72, 31.96 32.55, 31.77 32.3 M32.23 32.88 C32.08 32.7, 31.93 32.52, 31.77 32.3" stroke="#e03131" stroke-width="2" fill="none"></path></g><g transform="translate(101.99854114541222 28.773482615978992) rotate(0 15.980100944200103 16.884634959911338)"><path d="M31.75 33.04 C31.75 32.83, 31.76 32.62, 31.77 32.3 M31.75 33.04 C31.75 32.81, 31.76 32.57, 31.77 32.3" stroke="#e03131" stroke-width="2" fill="none"></path></g></g><mask></mask><g stroke-linecap="round"><g transform="translate(103.11290372968051 107.98017379154157) rotate(87.76882539196774 10.254383212047799 13.793431555031177)"><path d="M0 0 C0.3 0.16, -0.4 -1.19, 1.81 0.99 C4.02 3.16, 10.15 8.62, 13.26 13.05 C16.38 17.47, 19.29 25.1, 20.5 27.52 C21.71 29.94, 20.51 27.58, 20.51 27.59 M0 0 C0.3 0.16, -0.4 -1.19, 1.81 0.99 C4.02 3.16, 10.15 8.62, 13.26 13.05 C16.38 17.47, 19.29 25.1, 20.5 27.52 C21.71 29.94, 20.51 27.58, 20.51 27.59" stroke="#e03131" stroke-width="2" fill="none"></path></g><g transform="translate(103.11290372968051 107.98017379154157) rotate(87.76882539196774 10.254383212047799 13.793431555031177)"><path d="M20.53 27.61 C20.53 27.6, 20.52 27.6, 20.51 27.59 M20.53 27.61 C20.53 27.61, 20.52 27.6, 20.51 27.59" stroke="#e03131" stroke-width="2" fill="none"></path></g><g transform="translate(103.11290372968051 107.98017379154157) rotate(87.76882539196774 10.254383212047799 13.793431555031177)"><path d="M20.51 27.62 C20.51 27.61, 20.51 27.6, 20.51 27.59 M20.51 27.62 C20.51 27.61, 20.51 27.61, 20.51 27.59" stroke="#e03131" stroke-width="2" fill="none"></path></g></g><mask></mask><g stroke-linecap="round"><g transform="translate(34.88495541791326 22.032263645118064) rotate(266.98721249581604 12.265334118644054 16.921556188172218)"><path d="M0 0 C0.88 0.47, 2.49 0.32, 5.28 2.8 C8.07 5.27, 13.62 10.43, 16.74 14.86 C19.85 19.28, 22.67 26.16, 23.97 29.33 C25.27 32.49, 24.44 33.09, 24.53 33.84 M0 0 C0.88 0.47, 2.49 0.32, 5.28 2.8 C8.07 5.27, 13.62 10.43, 16.74 14.86 C19.85 19.28, 22.67 26.16, 23.97 29.33 C25.27 32.49, 24.44 33.09, 24.53 33.84" stroke="#e03131" stroke-width="2" fill="none"></path></g><g transform="translate(34.88495541791326 22.032263645118064) rotate(266.98721249581604 12.265334118644054 16.921556188172218)"><path d="M24.01 31.63 C24.13 32.12, 24.24 32.61, 24.53 33.84 M24.01 31.63 C24.18 32.34, 24.34 33.05, 24.53 33.84" stroke="#e03131" stroke-width="2" fill="none"></path></g><g transform="translate(34.88495541791326 22.032263645118064) rotate(266.98721249581604 12.265334118644054 16.921556188172218)"><path d="M25.56 31.81 C25.33 32.26, 25.1 32.71, 24.53 33.84 M25.56 31.81 C25.23 32.46, 24.9 33.11, 24.53 33.84" stroke="#e03131" stroke-width="2" fill="none"></path></g></g><mask></mask><g stroke-linecap="round"><g transform="translate(26.668791838623292 100.06127215022798) rotate(176.82016988013586 12.152276616419064 14.796730781121397)"><path d="M0 0 C0.94 0.51, 2.77 0.54, 5.61 3.06 C8.46 5.58, 13.95 10.7, 17.07 15.12 C20.18 19.54, 23.15 27.54, 24.3 29.59 C25.46 31.65, 24.07 27.8, 24.02 27.44 M0 0 C0.94 0.51, 2.77 0.54, 5.61 3.06 C8.46 5.58, 13.95 10.7, 17.07 15.12 C20.18 19.54, 23.15 27.54, 24.3 29.59 C25.46 31.65, 24.07 27.8, 24.02 27.44" stroke="#e03131" stroke-width="2" fill="none"></path></g><g transform="translate(26.668791838623292 100.06127215022798) rotate(176.82016988013586 12.152276616419064 14.796730781121397)"><path d="M24.67 28.31 C24.5 28.09, 24.34 27.87, 24.02 27.44 M24.67 28.31 C24.46 28.03, 24.25 27.75, 24.02 27.44" stroke="#e03131" stroke-width="2" fill="none"></path></g><g transform="translate(26.668791838623292 100.06127215022798) rotate(176.82016988013586 12.152276616419064 14.796730781121397)"><path d="M23.96 28.52 C23.97 28.25, 23.99 27.97, 24.02 27.44 M23.96 28.52 C23.98 28.18, 24 27.83, 24.02 27.44" stroke="#e03131" stroke-width="2" fill="none"></path></g></g><mask></mask><g stroke-linecap="round"><g transform="translate(61.59602177704073 95.70899977848717) rotate(0 18.392191652762534 -9.346851495666115)" fill-rule="evenodd"><path d="M0 0 C5.63 0, 27.64 1.31, 33.77 0 C39.9 -1.31, 37.39 -5.43, 36.78 -7.84 C36.18 -10.25, 33.17 -12.66, 30.15 -14.47 C27.14 -16.28, 22.51 -18.49, 18.69 -18.69 C14.87 -18.89, 10.05 -17.19, 7.24 -15.68 C4.42 -14.17, 3.02 -12.26, 1.81 -9.65 C0.6 -7.04, 0.3 -1.61, 0 0" stroke="none" stroke-width="0" fill="#fff5f5" fill-rule="evenodd"></path><path d="M0 0 C5.63 0, 27.64 1.31, 33.77 0 C39.9 -1.31, 37.39 -5.43, 36.78 -7.84 C36.18 -10.25, 33.17 -12.66, 30.15 -14.47 C27.14 -16.28, 22.51 -18.49, 18.69 -18.69 C14.87 -18.89, 10.05 -17.19, 7.24 -15.68 C4.42 -14.17, 3.02 -12.26, 1.81 -9.65 C0.6 -7.04, 0.3 -1.61, 0 0 M0 0 C5.63 0, 27.64 1.31, 33.77 0 C39.9 -1.31, 37.39 -5.43, 36.78 -7.84 C36.18 -10.25, 33.17 -12.66, 30.15 -14.47 C27.14 -16.28, 22.51 -18.49, 18.69 -18.69 C14.87 -18.89, 10.05 -17.19, 7.24 -15.68 C4.42 -14.17, 3.02 -12.26, 1.81 -9.65 C0.6 -7.04, 0.3 -1.61, 0 0" stroke="#e03131" stroke-width="2" fill="none"></path></g></g><mask></mask><g stroke-linecap="round" transform="translate(70.03833925699746 56.46428100578669) rotate(0 10.25138551137583 10.25138551137583)"><path d="M20.5 10.25 C20.5 10.84, 20.45 11.45, 20.35 12.03 C20.24 12.62, 20.09 13.2, 19.88 13.76 C19.68 14.32, 19.43 14.86, 19.13 15.38 C18.83 15.89, 18.49 16.39, 18.1 16.84 C17.72 17.3, 17.3 17.72, 16.84 18.1 C16.39 18.49, 15.89 18.83, 15.38 19.13 C14.86 19.43, 14.32 19.68, 13.76 19.88 C13.2 20.09, 12.62 20.24, 12.03 20.35 C11.45 20.45, 10.84 20.5, 10.25 20.5 C9.66 20.5, 9.06 20.45, 8.47 20.35 C7.89 20.24, 7.3 20.09, 6.75 19.88 C6.19 19.68, 5.64 19.43, 5.13 19.13 C4.61 18.83, 4.12 18.49, 3.66 18.1 C3.21 17.72, 2.78 17.3, 2.4 16.84 C2.02 16.39, 1.67 15.89, 1.37 15.38 C1.08 14.86, 0.82 14.32, 0.62 13.76 C0.42 13.2, 0.26 12.62, 0.16 12.03 C0.05 11.45, 0 10.84, 0 10.25 C0 9.66, 0.05 9.06, 0.16 8.47 C0.26 7.89, 0.42 7.3, 0.62 6.75 C0.82 6.19, 1.08 5.64, 1.37 5.13 C1.67 4.61, 2.02 4.12, 2.4 3.66 C2.78 3.21, 3.21 2.78, 3.66 2.4 C4.12 2.02, 4.61 1.67, 5.13 1.37 C5.64 1.08, 6.19 0.82, 6.75 0.62 C7.3 0.42, 7.89 0.26, 8.47 0.16 C9.06 0.05, 9.66 0, 10.25 0 C10.84 0, 11.45 0.05, 12.03 0.16 C12.62 0.26, 13.2 0.42, 13.76 0.62 C14.32 0.82, 14.86 1.08, 15.38 1.37 C15.89 1.67, 16.39 2.02, 16.84 2.4 C17.3 2.78, 17.72 3.21, 18.1 3.66 C18.49 4.12, 18.83 4.61, 19.13 5.13 C19.43 5.64, 19.68 6.19, 19.88 6.75 C20.09 7.3, 20.24 7.89, 20.35 8.47 C20.45 9.06, 20.48 9.95, 20.5 10.25 C20.53 10.55, 20.53 9.95, 20.5 10.25" stroke="none" stroke-width="0" fill="#fff5f5"></path><path d="M20.5 10.25 C20.5 10.84, 20.45 11.45, 20.35 12.03 C20.24 12.62, 20.09 13.2, 19.88 13.76 C19.68 14.32, 19.43 14.86, 19.13 15.38 C18.83 15.89, 18.49 16.39, 18.1 16.84 C17.72 17.3, 17.3 17.72, 16.84 18.1 C16.39 18.49, 15.89 18.83, 15.38 19.13 C14.86 19.43, 14.32 19.68, 13.76 19.88 C13.2 20.09, 12.62 20.24, 12.03 20.35 C11.45 20.45, 10.84 20.5, 10.25 20.5 C9.66 20.5, 9.06 20.45, 8.47 20.35 C7.89 20.24, 7.3 20.09, 6.75 19.88 C6.19 19.68, 5.64 19.43, 5.13 19.13 C4.61 18.83, 4.12 18.49, 3.66 18.1 C3.21 17.72, 2.78 17.3, 2.4 16.84 C2.02 16.39, 1.67 15.89, 1.37 15.38 C1.08 14.86, 0.82 14.32, 0.62 13.76 C0.42 13.2, 0.26 12.62, 0.16 12.03 C0.05 11.45, 0 10.84, 0 10.25 C0 9.66, 0.05 9.06, 0.16 8.47 C0.26 7.89, 0.42 7.3, 0.62 6.75 C0.82 6.19, 1.08 5.64, 1.37 5.13 C1.67 4.61, 2.02 4.12, 2.4 3.66 C2.78 3.21, 3.21 2.78, 3.66 2.4 C4.12 2.02, 4.61 1.67, 5.13 1.37 C5.64 1.08, 6.19 0.82, 6.75 0.62 C7.3 0.42, 7.89 0.26, 8.47 0.16 C9.06 0.05, 9.66 0, 10.25 0 C10.84 0, 11.45 0.05, 12.03 0.16 C12.62 0.26, 13.2 0.42, 13.76 0.62 C14.32 0.82, 14.86 1.08, 15.38 1.37 C15.89 1.67, 16.39 2.02, 16.84 2.4 C17.3 2.78, 17.72 3.21, 18.1 3.66 C18.49 4.12, 18.83 4.61, 19.13 5.13 C19.43 5.64, 19.68 6.19, 19.88 6.75 C20.09 7.3, 20.24 7.89, 20.35 8.47 C20.45 9.06, 20.48 9.95, 20.5 10.25 C20.53 10.55, 20.53 9.95, 20.5 10.25" stroke="#e03131" stroke-width="2" fill="none"></path></g></svg>