<svg version="1.1" xmlns="http://www.w3.org/2000/svg" viewBox="0 0 159.0342396787107 159.0342396787107" width="159.0342396787107" height="159.0342396787107" class="excalidraw-svg"><!-- svg-source:excalidraw --><metadata></metadata><defs><style class="style-fonts">
      </style></defs><g stroke-linecap="round" transform="translate(10 10) rotate(0 69.51711983935535 69.51711983935535)"><path d="M0 0 C0 0, 0 0, 0 0 M0 0 C0 0, 0 0, 0 0 M0.13 12.04 C2.66 9.13, 5.19 6.22, 10.63 -0.03 M0.13 12.04 C3.17 8.54, 6.22 5.04, 10.63 -0.03 M0.27 24.08 C7.36 15.92, 14.46 7.75, 21.26 -0.07 M0.27 24.08 C4.77 18.9, 9.28 13.71, 21.26 -0.07 M-0.26 36.88 C8.96 26.27, 18.18 15.66, 31.89 -0.1 M-0.26 36.88 C11.48 23.38, 23.21 9.88, 31.89 -0.1 M-0.12 48.92 C10.44 36.77, 20.99 24.62, 42.52 -0.14 M-0.12 48.92 C13.95 32.72, 28.03 16.53, 42.52 -0.14 M0.01 60.96 C13.88 45, 27.75 29.05, 53.15 -0.17 M0.01 60.96 C20.46 37.43, 40.92 13.9, 53.15 -0.17 M0.14 73 C17.1 53.49, 34.07 33.97, 63.78 -0.21 M0.14 73 C23.73 45.87, 47.31 18.74, 63.78 -0.21 M0.28 85.04 C24.12 57.61, 47.96 30.19, 74.41 -0.24 M0.28 85.04 C28.2 52.92, 56.12 20.8, 74.41 -0.24 M-0.25 97.84 C18.52 76.25, 37.28 54.67, 85.04 -0.28 M-0.25 97.84 C18.62 76.14, 37.48 54.44, 85.04 -0.28 M-0.11 109.88 C29.67 75.62, 59.45 41.36, 95.67 -0.31 M-0.11 109.88 C31.78 73.18, 63.68 36.49, 95.67 -0.31 M0.02 121.92 C33.77 83.1, 67.51 44.28, 106.3 -0.34 M0.02 121.92 C24.72 93.5, 49.43 65.08, 106.3 -0.34 M0.15 133.96 C41.46 86.44, 82.77 38.92, 116.27 0.38 M0.15 133.96 C24.83 105.57, 49.52 77.17, 116.27 0.38 M6.19 139.21 C48.8 90.19, 91.41 41.17, 126.91 0.34 M6.19 139.21 C32.82 108.57, 59.46 77.93, 126.91 0.34 M16.82 139.17 C49.06 102.09, 81.29 65.01, 137.54 0.31 M16.82 139.17 C57.78 92.06, 98.73 44.94, 137.54 0.31 M26.79 139.89 C60.97 100.58, 95.15 61.26, 138.98 10.84 M26.79 139.89 C56.83 105.35, 86.86 70.8, 138.98 10.84 M37.42 139.86 C72.04 100.04, 106.65 60.23, 139.11 22.88 M37.42 139.86 C58.06 116.12, 78.69 92.39, 139.11 22.88 M48.05 139.82 C78.62 104.66, 109.19 69.5, 139.25 34.92 M48.05 139.82 C77.34 106.14, 106.62 72.46, 139.25 34.92 M58.68 139.79 C87.37 106.79, 116.06 73.79, 139.38 46.96 M58.68 139.79 C79.56 115.77, 100.44 91.75, 139.38 46.96 M69.31 139.76 C96.55 108.42, 123.79 77.09, 138.86 59.76 M69.31 139.76 C96.71 108.24, 124.11 76.72, 138.86 59.76 M79.94 139.72 C102.19 114.13, 124.43 88.55, 138.99 71.8 M79.94 139.72 C99.3 117.46, 118.65 95.2, 138.99 71.8 M90.57 139.69 C100.54 128.22, 110.51 116.75, 139.12 83.84 M90.57 139.69 C108.3 119.3, 126.03 98.9, 139.12 83.84 M101.2 139.65 C114.62 124.22, 128.03 108.79, 139.26 95.88 M101.2 139.65 C116.29 122.3, 131.38 104.94, 139.26 95.88 M111.83 139.62 C119.88 130.36, 127.93 121.1, 139.39 107.92 M111.83 139.62 C122.27 127.61, 132.71 115.6, 139.39 107.92 M122.47 139.58 C127.65 133.62, 132.83 127.66, 138.87 120.71 M122.47 139.58 C126.03 135.49, 129.59 131.39, 138.87 120.71 M133.1 139.55 C135.17 137.16, 137.25 134.76, 139 132.76 M133.1 139.55 C134.54 137.88, 135.99 136.22, 139 132.76 M-0.16 138.89 C-0.16 138.89, -0.16 138.89, -0.16 138.89 M-0.16 138.89 C-0.16 138.89, -0.16 138.89, -0.16 138.89 M11.88 138.76 C8.62 135.93, 5.36 133.1, -0.2 128.26 M11.88 138.76 C8.98 136.24, 6.08 133.72, -0.2 128.26 M24.67 139.28 C15.73 131.51, 6.78 123.73, -0.23 117.63 M24.67 139.28 C15.93 131.68, 7.18 124.08, -0.23 117.63 M36.72 139.15 C25.1 129.05, 13.48 118.95, -0.27 107 M36.72 139.15 C25.47 129.37, 14.22 119.59, -0.27 107 M48.76 139.02 C32.72 125.08, 16.69 111.15, -0.3 96.37 M48.76 139.02 C29.28 122.08, 9.8 105.15, -0.3 96.37 M60.8 138.88 C40.11 120.9, 19.43 102.93, -0.33 85.74 M60.8 138.88 C45.83 125.87, 30.87 112.87, -0.33 85.74 M72.84 138.75 C53.98 122.36, 35.12 105.96, -0.37 75.11 M72.84 138.75 C53.81 122.21, 34.77 105.66, -0.37 75.11 M85.63 139.27 C53.22 111.1, 20.81 82.92, 0.35 65.14 M85.63 139.27 C57.12 114.48, 28.6 89.7, 0.35 65.14 M97.67 139.14 C77.58 121.67, 57.48 104.2, 0.32 54.51 M97.67 139.14 C66.51 112.05, 35.34 84.95, 0.32 54.51 M109.72 139.01 C81.11 114.14, 52.51 89.28, 0.28 43.88 M109.72 139.01 C75.68 109.42, 41.65 79.84, 0.28 43.88 M121.76 138.87 C83.79 105.87, 45.83 72.87, 0.25 33.25 M121.76 138.87 C82.44 104.7, 43.13 70.52, 0.25 33.25 M133.8 138.74 C81.88 93.61, 29.97 48.48, 0.21 22.62 M133.8 138.74 C83.24 94.79, 32.69 50.85, 0.21 22.62 M139.8 133.36 C84.06 84.9, 28.31 36.44, 0.18 11.99 M139.8 133.36 C86.5 87.02, 33.2 40.69, 0.18 11.99 M139.77 122.73 C90.53 79.93, 41.3 37.13, 0.14 1.36 M139.77 122.73 C110.99 97.71, 82.21 72.7, 0.14 1.36 M139.73 112.1 C91.36 70.05, 42.98 28, 10.68 -0.09 M139.73 112.1 C91.72 70.37, 43.71 28.63, 10.68 -0.09 M139.7 101.47 C101.27 68.07, 62.84 34.66, 22.72 -0.22 M139.7 101.47 C101.21 68.01, 62.72 34.56, 22.72 -0.22 M139.66 90.84 C115.38 69.73, 91.09 48.62, 34.76 -0.35 M139.66 90.84 C104.3 60.1, 68.94 29.36, 34.76 -0.35 M139.63 80.21 C114.24 58.14, 88.85 36.07, 47.55 0.17 M139.63 80.21 C107.61 52.38, 75.59 24.54, 47.55 0.17 M139.59 69.58 C119.92 52.48, 100.24 35.37, 59.59 0.04 M139.59 69.58 C116.76 49.73, 93.93 29.88, 59.59 0.04 M139.56 58.95 C116.58 38.97, 93.6 19, 71.63 -0.1 M139.56 58.95 C117.24 39.55, 94.92 20.15, 71.63 -0.1 M139.52 48.32 C118.34 29.91, 97.16 11.49, 83.68 -0.23 M139.52 48.32 C117.68 29.33, 95.84 10.34, 83.68 -0.23 M139.49 37.69 C128.79 28.39, 118.09 19.09, 95.72 -0.36 M139.49 37.69 C130.59 29.95, 121.68 22.21, 95.72 -0.36 M139.46 27.06 C130.89 19.61, 122.32 12.16, 108.51 0.16 M139.46 27.06 C127.27 16.46, 115.08 5.87, 108.51 0.16 M139.42 16.43 C133.63 11.4, 127.85 6.37, 120.55 0.03 M139.42 16.43 C132.44 10.36, 125.47 4.3, 120.55 0.03 M139.39 5.8 C137.56 4.21, 135.73 2.62, 132.59 -0.11 M139.39 5.8 C136.68 3.44, 133.97 1.09, 132.59 -0.11" stroke="#fff5f5" stroke-width="1" fill="none"></path><path d="M0 0 C52.82 0, 105.63 0, 139.03 0 M0 0 C49.08 0, 98.15 0, 139.03 0 M139.03 0 C139.03 45.19, 139.03 90.37, 139.03 139.03 M139.03 0 C139.03 40.69, 139.03 81.38, 139.03 139.03 M139.03 139.03 C101.72 139.03, 64.4 139.03, 0 139.03 M139.03 139.03 C90.78 139.03, 42.53 139.03, 0 139.03 M0 139.03 C0 104.25, 0 69.46, 0 0 M0 139.03 C0 97.65, 0 56.27, 0 0" stroke="#e03131" stroke-width="2" fill="none"></path></g><g stroke-linecap="round"><g transform="translate(106.7605353687104 33.35060804530599) rotate(0 -31.465962339785115 48.418536759609566)"><path d="M0 0 C-16.98 0.12, -33.97 0.23, -82.98 0.57 M0 0 C-23.35 0.16, -46.7 0.32, -82.98 0.57 M-82.98 0.57 C-82.98 28.03, -82.98 55.49, -82.98 96.84 M-82.98 0.57 C-82.98 25.21, -82.98 49.85, -82.98 96.84 M-82.98 96.84 C-46.46 96.84, -9.93 96.84, 20.05 96.84 M-82.98 96.84 C-53.87 96.84, -24.76 96.84, 20.05 96.84 M20.05 96.84 C20.05 68.04, 20.05 39.25, 20.05 21.08 M20.05 96.84 C20.05 72.26, 20.05 47.68, 20.05 21.08" stroke="#e03131" stroke-width="2" fill="none"></path></g></g><mask></mask><g stroke-linecap="round"><g transform="translate(43.14575265774283 78.95411359796253) rotate(0 46.05449253965152 -25.05377774189151)"><path d="M0 0 C3.32 -0.17, 6.65 -0.34, 11.04 -0.56 M0 0 C2.86 -0.15, 5.71 -0.29, 11.04 -0.56 M11.04 -0.56 C13.45 -6.09, 15.87 -11.62, 18.92 -18.58 M11.04 -0.56 C13.66 -6.56, 16.29 -12.56, 18.92 -18.58 M18.92 -18.58 C25.39 -18.58, 31.87 -18.58, 41.44 -18.58 M18.92 -18.58 C26.04 -18.58, 33.16 -18.58, 41.44 -18.58 M41.44 -18.58 C44.04 -22.2, 46.65 -25.81, 51.57 -32.65 M41.44 -18.58 C44.83 -23.29, 48.23 -28.01, 51.57 -32.65 M51.57 -32.65 C57.21 -32.65, 62.86 -32.65, 71.84 -32.65 M51.57 -32.65 C58.3 -32.65, 65.02 -32.65, 71.84 -32.65 M71.84 -32.65 C77.56 -37.58, 83.29 -42.51, 92.11 -50.11 M71.84 -32.65 C78.89 -38.72, 85.94 -44.79, 92.11 -50.11" stroke="#e03131" stroke-width="2" fill="none"></path></g><g transform="translate(43.14575265774283 78.95411359796253) rotate(0 46.05449253965152 -25.05377774189151)"><path d="M85.57 -38.44 C87.54 -41.95, 89.51 -45.47, 92.11 -50.11 M85.57 -38.44 C87.26 -41.46, 88.96 -44.48, 92.11 -50.11" stroke="#e03131" stroke-width="2" fill="none"></path></g><g transform="translate(43.14575265774283 78.95411359796253) rotate(0 46.05449253965152 -25.05377774189151)"><path d="M79.6 -45.37 C83.37 -46.8, 87.13 -48.22, 92.11 -50.11 M79.6 -45.37 C82.84 -46.6, 86.08 -47.82, 92.11 -50.11" stroke="#e03131" stroke-width="2" fill="none"></path></g></g><mask></mask><g stroke-linecap="round" transform="translate(35.67019788342168 88.52521970160501) rotate(0 8.445093620862101 16.045677879638276)"><path d="M0 0 L16.89 0 L16.89 32.09 L0 32.09" stroke="none" stroke-width="0" fill="#fff5f5"></path><path d="M0 0 C3.67 0, 7.33 0, 16.89 0 M0 0 C5.4 0, 10.8 0, 16.89 0 M16.89 0 C16.89 9.01, 16.89 18.02, 16.89 32.09 M16.89 0 C16.89 8.81, 16.89 17.62, 16.89 32.09 M16.89 32.09 C12.96 32.09, 9.03 32.09, 0 32.09 M16.89 32.09 C12.1 32.09, 7.3 32.09, 0 32.09 M0 32.09 C0 24, 0 15.91, 0 0 M0 32.09 C0 25.09, 0 18.09, 0 0" stroke="#e03131" stroke-width="2" fill="none"></path></g><g stroke-linecap="round" transform="translate(65.7572493615553 72.19803870127134) rotate(0 8.445093620862103 24.209268379804655)"><path d="M0 0 L16.89 0 L16.89 48.42 L0 48.42" stroke="none" stroke-width="0" fill="#fff5f5"></path><path d="M0 0 C4.32 0, 8.64 0, 16.89 0 M0 0 C5.22 0, 10.43 0, 16.89 0 M16.89 0 C16.89 13.18, 16.89 26.36, 16.89 48.42 M16.89 0 C16.89 15.62, 16.89 31.24, 16.89 48.42 M16.89 48.42 C11 48.42, 5.11 48.42, 0 48.42 M16.89 48.42 C10.24 48.42, 3.6 48.42, 0 48.42 M0 48.42 C0 31.56, 0 14.7, 0 0 M0 48.42 C0 33.02, 0 17.63, 0 0" stroke="#e03131" stroke-width="2" fill="none"></path></g><g stroke-linecap="round" transform="translate(95.84430083969028 54.74484521815657) rotate(0 8.7265967415575 32.93586512136209)"><path d="M0 0 L17.45 0 L17.45 65.87 L0 65.87" stroke="none" stroke-width="0" fill="#fff5f5"></path><path d="M0 0 C5.36 0, 10.71 0, 17.45 0 M0 0 C6.11 0, 12.22 0, 17.45 0 M17.45 0 C17.45 23.15, 17.45 46.3, 17.45 65.87 M17.45 0 C17.45 18.44, 17.45 36.88, 17.45 65.87 M17.45 65.87 C13.66 65.87, 9.86 65.87, 0 65.87 M17.45 65.87 C12.29 65.87, 7.13 65.87, 0 65.87 M0 65.87 C0 41.47, 0 17.06, 0 0 M0 65.87 C0 46.09, 0 26.31, 0 0" stroke="#e03131" stroke-width="2" fill="none"></path></g></svg>