<svg version="1.1" xmlns="http://www.w3.org/2000/svg" viewBox="0 0 159.03423983779354 159.03423983779354" width="159.03423983779354" height="159.03423983779354" class="excalidraw-svg"><!-- svg-source:excalidraw --><metadata></metadata><defs><style class="style-fonts">
      </style></defs><g stroke-linecap="round" transform="translate(10 10) rotate(0 69.51711991889677 69.51711991889677)"><path d="M0 0 C0 0, 0 0, 0 0 M0 0 C0 0, 0 0, 0 0 M0.13 12.04 C4.02 7.57, 7.91 3.09, 10.63 -0.03 M0.13 12.04 C3.46 8.21, 6.79 4.39, 10.63 -0.03 M0.27 24.08 C7.09 16.23, 13.92 8.38, 21.26 -0.07 M0.27 24.08 C8.41 14.71, 16.55 5.35, 21.26 -0.07 M-0.26 36.88 C8.48 26.83, 17.22 16.77, 31.89 -0.1 M-0.26 36.88 C11.3 23.58, 22.86 10.29, 31.89 -0.1 M-0.12 48.92 C14.5 32.09, 29.13 15.27, 42.52 -0.14 M-0.12 48.92 C16.62 29.66, 33.36 10.4, 42.52 -0.14 M0.01 60.96 C19.36 38.7, 38.7 16.45, 53.15 -0.17 M0.01 60.96 C17.07 41.34, 34.12 21.72, 53.15 -0.17 M0.14 73 C17.44 53.1, 34.74 33.2, 63.78 -0.21 M0.14 73 C21.3 48.66, 42.46 24.32, 63.78 -0.21 M0.28 85.04 C24.99 56.61, 49.71 28.17, 74.41 -0.24 M0.28 85.04 C18.83 63.69, 37.39 42.35, 74.41 -0.24 M-0.25 97.84 C30.88 62.03, 62 26.23, 85.04 -0.28 M-0.25 97.84 C18.03 76.81, 36.31 55.78, 85.04 -0.28 M-0.11 109.88 C33.44 71.28, 67 32.68, 95.67 -0.31 M-0.11 109.88 C34.58 69.96, 69.28 30.05, 95.67 -0.31 M0.02 121.92 C27.65 90.13, 55.28 58.35, 106.3 -0.34 M0.02 121.92 C33.05 83.92, 66.08 45.92, 106.3 -0.34 M0.15 133.96 C31.46 97.95, 62.76 61.93, 116.27 0.38 M0.15 133.96 C27.69 102.28, 55.22 70.61, 116.27 0.38 M6.19 139.21 C51.93 86.59, 97.67 33.97, 126.91 0.34 M6.19 139.21 C49.64 89.23, 93.09 39.24, 126.91 0.34 M16.82 139.17 C44.64 107.17, 72.46 75.17, 137.54 0.31 M16.82 139.17 C43.48 108.51, 70.14 77.84, 137.54 0.31 M26.79 139.89 C63.61 97.54, 100.43 55.18, 138.98 10.84 M26.79 139.89 C67.8 92.72, 108.81 45.55, 138.98 10.84 M37.42 139.86 C63.5 109.86, 89.58 79.86, 139.11 22.88 M37.42 139.86 C60.31 113.54, 83.19 87.22, 139.11 22.88 M48.05 139.82 C75.28 108.5, 102.51 77.18, 139.25 34.92 M48.05 139.82 C84.25 98.18, 120.45 56.54, 139.25 34.92 M58.68 139.79 C79.31 116.06, 99.94 92.33, 139.38 46.96 M58.68 139.79 C85.06 109.45, 111.43 79.11, 139.38 46.96 M69.31 139.76 C87.76 118.54, 106.2 97.32, 138.86 59.76 M69.31 139.76 C96.38 108.62, 123.45 77.48, 138.86 59.76 M79.94 139.72 C92.95 124.76, 105.95 109.8, 138.99 71.8 M79.94 139.72 C101.74 114.65, 123.53 89.58, 138.99 71.8 M90.57 139.69 C109.39 118.04, 128.21 96.39, 139.12 83.84 M90.57 139.69 C107.22 120.53, 123.87 101.38, 139.12 83.84 M101.2 139.65 C109.84 129.71, 118.48 119.78, 139.26 95.88 M101.2 139.65 C114.91 123.88, 128.62 108.11, 139.26 95.88 M111.83 139.62 C117.61 132.97, 123.39 126.32, 139.39 107.92 M111.83 139.62 C120.77 129.33, 129.71 119.05, 139.39 107.92 M122.47 139.58 C126.35 135.11, 130.24 130.64, 138.87 120.71 M122.47 139.58 C126.97 134.41, 131.47 129.23, 138.87 120.71 M133.1 139.55 C134.63 137.78, 136.16 136.02, 139 132.76 M133.1 139.55 C134.66 137.74, 136.23 135.94, 139 132.76 M-0.16 138.89 C-0.16 138.89, -0.16 138.89, -0.16 138.89 M-0.16 138.89 C-0.16 138.89, -0.16 138.89, -0.16 138.89 M11.88 138.76 C8.86 136.13, 5.83 133.51, -0.2 128.26 M11.88 138.76 C7.49 134.94, 3.09 131.12, -0.2 128.26 M24.67 139.28 C16.38 132.07, 8.08 124.86, -0.23 117.63 M24.67 139.28 C14.81 130.71, 4.95 122.14, -0.23 117.63 M36.72 139.15 C26.42 130.2, 16.12 121.25, -0.27 107 M36.72 139.15 C26.28 130.08, 15.84 121, -0.27 107 M48.76 139.02 C30.94 123.53, 13.12 108.04, -0.3 96.37 M48.76 139.02 C30.13 122.82, 11.5 106.63, -0.3 96.37 M60.8 138.88 C47 126.89, 33.2 114.9, -0.33 85.74 M60.8 138.88 C39.41 120.29, 18.03 101.71, -0.33 85.74 M72.84 138.75 C52 120.64, 31.17 102.53, -0.37 75.11 M72.84 138.75 C55.34 123.54, 37.84 108.33, -0.37 75.11 M85.63 139.27 C55.13 112.76, 24.63 86.24, 0.35 65.14 M85.63 139.27 C54.87 112.53, 24.1 85.78, 0.35 65.14 M97.67 139.14 C70.38 115.42, 43.09 91.69, 0.32 54.51 M97.67 139.14 C61.06 107.32, 24.45 75.49, 0.32 54.51 M109.72 139.01 C74.2 108.13, 38.68 77.26, 0.28 43.88 M109.72 139.01 C68.66 103.32, 27.61 67.64, 0.28 43.88 M121.76 138.87 C95.31 115.88, 68.86 92.89, 0.25 33.25 M121.76 138.87 C78.19 101, 34.62 63.13, 0.25 33.25 M133.8 138.74 C85.59 96.83, 37.38 54.93, 0.21 22.62 M133.8 138.74 C91.24 101.75, 48.69 64.76, 0.21 22.62 M139.8 133.36 C105.13 103.22, 70.45 73.08, 0.18 11.99 M139.8 133.36 C95.11 94.51, 50.42 55.66, 0.18 11.99 M139.77 122.73 C99.89 88.07, 60.02 53.41, 0.14 1.36 M139.77 122.73 C86.39 76.33, 33.02 29.93, 0.14 1.36 M139.73 112.1 C112.83 88.71, 85.93 65.33, 10.68 -0.09 M139.73 112.1 C93.32 71.75, 46.9 31.41, 10.68 -0.09 M139.7 101.47 C104.39 70.77, 69.07 40.08, 22.72 -0.22 M139.7 101.47 C113.58 78.77, 87.47 56.07, 22.72 -0.22 M139.66 90.84 C116.75 70.92, 93.83 51, 34.76 -0.35 M139.66 90.84 C103.79 59.66, 67.92 28.47, 34.76 -0.35 M139.63 80.21 C103.04 48.4, 66.45 16.59, 47.55 0.17 M139.63 80.21 C106.12 51.08, 72.62 21.96, 47.55 0.17 M139.59 69.58 C116.94 49.89, 94.29 30.2, 59.59 0.04 M139.59 69.58 C115.81 48.9, 92.02 28.22, 59.59 0.04 M139.56 58.95 C116.18 38.62, 92.8 18.3, 71.63 -0.1 M139.56 58.95 C112.91 35.78, 86.26 12.61, 71.63 -0.1 M139.52 48.32 C123.23 34.15, 106.93 19.98, 83.68 -0.23 M139.52 48.32 C127.14 37.55, 114.75 26.79, 83.68 -0.23 M139.49 37.69 C126.41 26.32, 113.34 14.96, 95.72 -0.36 M139.49 37.69 C123.62 23.9, 107.76 10.1, 95.72 -0.36 M139.46 27.06 C132.71 21.2, 125.97 15.33, 108.51 0.16 M139.46 27.06 C130.89 19.61, 122.33 12.17, 108.51 0.16 M139.42 16.43 C135.62 13.12, 131.81 9.81, 120.55 0.03 M139.42 16.43 C131.99 9.97, 124.57 3.52, 120.55 0.03 M139.39 5.8 C137.22 3.91, 135.04 2.02, 132.59 -0.11 M139.39 5.8 C136.74 3.5, 134.09 1.2, 132.59 -0.11" stroke="#fff5f5" stroke-width="1" fill="none"></path><path d="M0 0 C51.51 0, 103.03 0, 139.03 0 M0 0 C41.76 0, 83.51 0, 139.03 0 M139.03 0 C139.03 30.38, 139.03 60.77, 139.03 139.03 M139.03 0 C139.03 30.58, 139.03 61.16, 139.03 139.03 M139.03 139.03 C92.98 139.03, 46.93 139.03, 0 139.03 M139.03 139.03 C99.47 139.03, 59.9 139.03, 0 139.03 M0 139.03 C0 103.09, 0 67.14, 0 0 M0 139.03 C0 95.98, 0 52.93, 0 0" stroke="#e03131" stroke-width="2" fill="none"></path></g><g stroke-linecap="round"><g transform="translate(91.99642946748054 73.1784230053313) rotate(0 -31.517409653564968 1.2325243998603028)"><path d="M0 0 C0 -5, 0 -10.01, 0 -22.89 M0 0 C0 -5.11, 0 -10.22, 0 -22.89 M0 -22.89 C-4.55 -27.21, -9.1 -31.54, -21.48 -43.31 M0 -22.89 C-6 -28.59, -12 -34.3, -21.48 -43.31 M-21.48 -43.31 C-30.19 -43.31, -38.9 -43.31, -63.03 -43.31 M-21.48 -43.31 C-37.03 -43.31, -52.58 -43.31, -63.03 -43.31 M-63.03 -43.31 C-63.03 -9.73, -63.03 23.85, -63.03 45.78 M-63.03 -43.31 C-63.03 -23.91, -63.03 -4.51, -63.03 45.78 M-63.03 45.78 C-43.65 45.78, -24.27 45.78, -0.35 45.78 M-63.03 45.78 C-47.04 45.78, -31.05 45.78, -0.35 45.78 M-0.35 45.78 C-0.35 43.75, -0.35 41.72, -0.35 37.68 M-0.35 45.78 C-0.35 42.96, -0.35 40.14, -0.35 37.68" stroke="#e03131" stroke-width="2" fill="none"></path></g></g><mask></mask><g stroke-linecap="round"><g transform="translate(70.16314009853022 30.21614392449328) rotate(0 10.916644684475031 10.212345027412056)"><path d="M0 0 C0 6.07, 0 12.14, 0 20.42 M0 0 C0 4.19, 0 8.37, 0 20.42 M0 20.42 C5.26 20.42, 10.53 20.42, 21.83 20.42 M0 20.42 C6.33 20.42, 12.65 20.42, 21.83 20.42" stroke="#e03131" stroke-width="2" fill="none"></path></g></g><mask></mask><g stroke-linecap="round"><g transform="translate(38.46965553069958 102.3927719205592) rotate(0 13.381693484195175 0)"><path d="M0 0 C9.3 0, 18.59 0, 26.76 0 M0 0 C7.83 0, 15.67 0, 26.76 0" stroke="#e03131" stroke-width="2" fill="none"></path></g></g><mask></mask><g stroke-linecap="round"><g transform="translate(56.42929678580322 63.84645254924658) rotate(0 13.381693484195175 0)"><path d="M0 0 C7.45 0, 14.9 0, 26.76 0 M0 0 C8.88 0, 17.76 0, 26.76 0" stroke="#e03131" stroke-width="2" fill="none"></path></g></g><mask></mask><g stroke-linecap="round"><g transform="translate(38.46965553069958 77.05207111917662) rotate(0 22.009364283215767 0)"><path d="M0 0 C17.52 0, 35.04 0, 44.02 0 M0 0 C10.29 0, 20.59 0, 44.02 0" stroke="#e03131" stroke-width="2" fill="none"></path></g></g><mask></mask><g stroke-linecap="round"><g transform="translate(38.82180535923089 89.58156373780639) rotate(0 12.149169084335107 0)"><path d="M0 0 C5.95 0, 11.9 0, 24.3 0 M0 0 C5.98 0, 11.96 0, 24.3 0" stroke="#e03131" stroke-width="2" fill="none"></path></g></g><mask></mask><g stroke-linecap="round"><g transform="translate(38.46965553069958 50.99298380784967) rotate(0 10.212345027412116 0)"><path d="M0 0 C4.46 0, 8.93 0, 20.42 0 M0 0 C4.49 0, 8.99 0, 20.42 0" stroke="#e03131" stroke-width="2" fill="none"></path></g></g><mask></mask><g stroke-linecap="round"><g transform="translate(38.82180535923089 63.84645254924658) rotate(0 5.2822474279717895 0)"><path d="M0 0 C2.24 0, 4.47 0, 10.56 0 M0 0 C2.95 0, 5.9 0, 10.56 0" stroke="#e03131" stroke-width="2" fill="none"></path></g></g><mask></mask><g stroke-linecap="round"><g transform="translate(69.43066673570274 89.58156373780639) rotate(0 7.395146399160506 0)"><path d="M0 0 C3.57 0, 7.13 0, 14.79 0 M0 0 C4.29 0, 8.57 0, 14.79 0" stroke="#e03131" stroke-width="2" fill="none"></path></g></g><mask></mask><g stroke-linecap="round"><g transform="translate(104.6738232946127 108.74555568700725) rotate(0 7.571221313426228 3.9376753553970545)"><path d="M0 0 C0 2.26, 0 4.51, 0 8.1 M0 0 C0 2.65, 0 5.31, 0 8.1 M0 8.1 C3.8 8.1, 7.59 8.1, 15.14 8.1 M0 8.1 C4.23 8.1, 8.47 8.1, 15.14 8.1 M15.14 8.1 C15.14 6.31, 15.14 4.52, 15.14 -0.22 M15.14 8.1 C15.14 4.84, 15.14 1.59, 15.14 -0.22" stroke="#e03131" stroke-width="2" fill="none"></path></g></g><mask></mask><g stroke-linecap="round"><g transform="translate(105.73027278020754 97.82891100253119) rotate(0 6.514771827831874 0)"><path d="M0 0 C3.68 0, 7.36 0, 13.03 0 M0 0 C4.53 0, 9.06 0, 13.03 0" stroke="#e03131" stroke-width="2" fill="none"></path></g></g><mask></mask><g stroke-linecap="round"><g transform="translate(112.24504460803928 116.49285191469835) rotate(0 0 -9.15589554181755)"><path d="M0 0 C0 -4.19, 0 -8.38, 0 -18.31 M0 0 C0 -4.64, 0 -9.28, 0 -18.31" stroke="#e03131" stroke-width="2" fill="none"></path></g></g><mask></mask><g stroke-linecap="round"><g transform="translate(119.46411609293318 108.74555568700725) rotate(0 -7.395146399160506 -18.135716169369793)"><path d="M0 0 C0.88 -0.65, 3.87 -2.47, 5.28 -3.87 C6.69 -5.28, 7.63 -6.75, 8.45 -8.45 C9.27 -10.15, 9.86 -12.09, 10.21 -14.09 C10.56 -16.08, 10.68 -18.43, 10.56 -20.42 C10.45 -22.42, 10.21 -24.36, 9.51 -26.06 C8.8 -27.76, 7.57 -29.29, 6.34 -30.64 C5.11 -31.99, 3.76 -33.16, 2.11 -34.16 C0.47 -35.16, -1.47 -36.21, -3.52 -36.62 C-5.58 -37.03, -8.04 -37.03, -10.21 -36.62 C-12.38 -36.21, -14.73 -35.21, -16.55 -34.16 C-18.37 -33.1, -19.84 -31.87, -21.13 -30.28 C-22.42 -28.7, -23.59 -26.7, -24.3 -24.65 C-25 -22.6, -25.24 -20.01, -25.35 -17.96 C-25.47 -15.91, -25.41 -13.97, -25 -12.33 C-24.59 -10.68, -23.83 -9.51, -22.89 -8.1 C-21.95 -6.69, -20.72 -5.28, -19.37 -3.87 C-18.02 -2.47, -15.55 -0.35, -14.79 0.35 M0 0 C0.88 -0.65, 3.87 -2.47, 5.28 -3.87 C6.69 -5.28, 7.63 -6.75, 8.45 -8.45 C9.27 -10.15, 9.86 -12.09, 10.21 -14.09 C10.56 -16.08, 10.68 -18.43, 10.56 -20.42 C10.45 -22.42, 10.21 -24.36, 9.51 -26.06 C8.8 -27.76, 7.57 -29.29, 6.34 -30.64 C5.11 -31.99, 3.76 -33.16, 2.11 -34.16 C0.47 -35.16, -1.47 -36.21, -3.52 -36.62 C-5.58 -37.03, -8.04 -37.03, -10.21 -36.62 C-12.38 -36.21, -14.73 -35.21, -16.55 -34.16 C-18.37 -33.1, -19.84 -31.87, -21.13 -30.28 C-22.42 -28.7, -23.59 -26.7, -24.3 -24.65 C-25 -22.6, -25.24 -20.01, -25.35 -17.96 C-25.47 -15.91, -25.41 -13.97, -25 -12.33 C-24.59 -10.68, -23.83 -9.51, -22.89 -8.1 C-21.95 -6.69, -20.72 -5.28, -19.37 -3.87 C-18.02 -2.47, -15.55 -0.35, -14.79 0.35" stroke="#e03131" stroke-width="2" fill="none"></path></g></g><mask></mask><g stroke-linecap="round"><g transform="translate(105.02597312314401 121.77509934267073) rotate(0 7.219071484894773 3.6975731995802477)" fill-rule="evenodd"><path d="M0 0 L14.44 0 L10.92 7.4 L3.17 7.4 L0 0" stroke="none" stroke-width="0" fill="#fff5f5" fill-rule="evenodd"></path><path d="M0 0 C4.78 0, 9.57 0, 14.44 0 M0 0 C4.11 0, 8.22 0, 14.44 0 M14.44 0 C13.53 1.91, 12.62 3.82, 10.92 7.4 M14.44 0 C13.35 2.29, 12.26 4.58, 10.92 7.4 M10.92 7.4 C8.21 7.4, 5.5 7.4, 3.17 7.4 M10.92 7.4 C7.99 7.4, 5.07 7.4, 3.17 7.4 M3.17 7.4 C2 4.66, 0.82 1.91, 0 0 M3.17 7.4 C2.17 5.05, 1.16 2.71, 0 0 M0 0 C0 0, 0 0, 0 0 M0 0 C0 0, 0 0, 0 0" stroke="#e03131" stroke-width="2" fill="none"></path></g></g><mask></mask></svg>