<?xml version="1.0" encoding="UTF-8" standalone="no"?>
<!-- Created with Inkscape (http://www.inkscape.org/) -->

<svg
   width="550mm"
   height="450mm"
   viewBox="0 0 550 450"
   version="1.1"
   id="svg1"
   inkscape:version="1.4.2 (ebf0e940, 2025-05-08)"
   sodipodi:docname="Genestack-Rackspace.svg"
   xmlns:inkscape="http://www.inkscape.org/namespaces/inkscape"
   xmlns:sodipodi="http://sodipodi.sourceforge.net/DTD/sodipodi-0.dtd"
   xmlns="http://www.w3.org/2000/svg"
   xmlns:svg="http://www.w3.org/2000/svg">
  <sodipodi:namedview
     id="namedview1"
     pagecolor="#72ffff"
     bordercolor="#999999"
     borderopacity="1"
     inkscape:showpageshadow="2"
     inkscape:pageopacity="0"
     inkscape:pagecheckerboard="0"
     inkscape:deskcolor="#d1d1d1"
     inkscape:document-units="mm"
     showgrid="true"
     inkscape:zoom="0.68"
     inkscape:cx="1140.4412"
     inkscape:cy="861.76471"
     inkscape:current-layer="g20">
    <inkscape:grid
       id="grid1"
       units="mm"
       originx="0"
       originy="0"
       spacingx="4.9999999"
       spacingy="4.9999999"
       empcolor="#0099e5"
       empopacity="0.30196078"
       color="#0099e5"
       opacity="0.14901961"
       empspacing="5"
       enabled="true"
       visible="true" />
  </sodipodi:namedview>
  <defs
     id="defs1">
    <inkscape:path-effect
       effect="fillet_chamfer"
       id="path-effect23"
       is_visible="true"
       lpeversion="1"
       nodesatellites_param="F,0,0,1,0,0,0,1 @ F,0,0,1,0,0,0,1 @ F,0,0,1,0,77.510064,0,1 @ F,0,0,1,0,114.95817,0,1 @ F,0,0,1,0,77.489938,0,1 @ F,0,0,1,0,80.077683,0,1 @ F,0,0,1,0,0,0,1 @ F,0,0,1,0,0,0,1 @ F,0,0,1,0,0,0,1 @ F,0,0,1,0,0,0,1 @ F,0,0,1,0,0,0,1"
       radius="0"
       unit="px"
       method="auto"
       mode="F"
       chamfer_steps="1"
       flexible="false"
       use_knot_distance="true"
       apply_no_radius="true"
       apply_with_radius="true"
       only_selected="false"
       hide_knots="false" />
    <inkscape:path-effect
       effect="fillet_chamfer"
       id="path-effect22"
       is_visible="true"
       lpeversion="1"
       nodesatellites_param="F,0,0,1,0,0,0,1 @ F,0,0,1,0,0,0,1 @ F,0,0,1,0,0,0,1 @ F,0,0,1,0,0,0,1 @ F,0,0,1,0,0,0,1 @ F,0,0,1,0,0,0,1 @ F,0,0,1,0,0,0,1 @ F,0,0,1,0,0,0,1"
       radius="0"
       unit="px"
       method="auto"
       mode="F"
       chamfer_steps="1"
       flexible="false"
       use_knot_distance="true"
       apply_no_radius="true"
       apply_with_radius="true"
       only_selected="false"
       hide_knots="false" />
    <inkscape:path-effect
       effect="fillet_chamfer"
       id="path-effect21"
       is_visible="true"
       lpeversion="1"
       nodesatellites_param="F,0,0,1,0,0,0,1 @ F,0,0,1,0,90.000002,0,1 @ F,0,1,1,0,90.000002,0,1 @ F,0,0,1,0,89.999988,0,1 @ F,0,0,1,0,89.999988,0,1 @ F,0,0,1,0,0,0,1"
       radius="0"
       unit="px"
       method="auto"
       mode="F"
       chamfer_steps="1"
       flexible="false"
       use_knot_distance="true"
       apply_no_radius="true"
       apply_with_radius="true"
       only_selected="false"
       hide_knots="false" />
    <inkscape:path-effect
       effect="fillet_chamfer"
       id="path-effect17"
       is_visible="true"
       lpeversion="1"
       nodesatellites_param="F,0,0,1,0,145.00001,0,1 @ F,0,0,1,0,0,0,1 @ F,0,0,1,0,100,0,1 @ F,0,0,1,0,100,0,1 @ F,0,1,1,0,100,0,1 @ F,0,0,1,0,100,0,1 @ F,0,0,1,0,0,0,1 @ F,0,0,1,0,145.00001,0,1 @ F,0,0,1,0,0,0,1 @ F,0,0,1,0,0,0,1 @ F,0,0,1,0,0,0,1"
       radius="0"
       unit="px"
       method="auto"
       mode="F"
       chamfer_steps="1"
       flexible="false"
       use_knot_distance="true"
       apply_no_radius="true"
       apply_with_radius="true"
       only_selected="false"
       hide_knots="false" />
    <inkscape:path-effect
       effect="fillet_chamfer"
       id="path-effect20"
       is_visible="true"
       lpeversion="1"
       nodesatellites_param="F,0,0,1,0,0,0,1 @ F,0,0,1,0,9.8058118,0,1 @ F,0,0,1,0,15.000005,0,1 @ F,0,0,1,0,9.8058023,0,1 @ F,0,0,1,0,0,0,1"
       radius="0"
       unit="px"
       method="auto"
       mode="F"
       chamfer_steps="1"
       flexible="false"
       use_knot_distance="true"
       apply_no_radius="true"
       apply_with_radius="true"
       only_selected="false"
       hide_knots="false" />
    <inkscape:path-effect
       effect="fillet_chamfer"
       id="path-effect16"
       is_visible="true"
       lpeversion="1"
       nodesatellites_param="F,0,0,1,0,0,0,1 @ F,0,0,1,0,15.504347,0,1 @ F,0,0,1,0,11.067966,0,1 @ F,0,0,1,0,11.169791,0,1 @ F,0,0,1,0,0,0,1"
       radius="0"
       unit="px"
       method="auto"
       mode="F"
       chamfer_steps="1"
       flexible="false"
       use_knot_distance="true"
       apply_no_radius="true"
       apply_with_radius="true"
       only_selected="false"
       hide_knots="false" />
    <inkscape:path-effect
       effect="fillet_chamfer"
       id="path-effect15"
       is_visible="true"
       lpeversion="1"
       nodesatellites_param="F,0,0,1,0,0,0,1 @ F,0,0,1,0,15.000006,0,1 @ F,0,0,1,0,0,0,1 @ F,0,0,1,0,14.127096,0,1 @ F,0,0,1,0,0,0,1 @ F,0,1,1,0,14.127096,0,1 @ F,0,0,1,0,19.999996,0,1 @ F,0,0,1,0,20.426481,0,1 @ F,0,0,1,0,0,0,1 @ F,0,0,1,0,0,0,1 @ F,0,0,1,0,0,0,1"
       radius="0"
       unit="px"
       method="auto"
       mode="F"
       chamfer_steps="1"
       flexible="false"
       use_knot_distance="true"
       apply_no_radius="true"
       apply_with_radius="true"
       only_selected="false"
       hide_knots="false" />
    <inkscape:path-effect
       effect="fillet_chamfer"
       id="path-effect14"
       is_visible="true"
       lpeversion="1"
       nodesatellites_param="F,0,0,1,0,0,0,1 @ F,0,0,1,0,30.000002,0,1 @ F,0,0,1,0,0,0,1"
       radius="0"
       unit="px"
       method="auto"
       mode="F"
       chamfer_steps="1"
       flexible="false"
       use_knot_distance="true"
       apply_no_radius="true"
       apply_with_radius="true"
       only_selected="false"
       hide_knots="false" />
    <inkscape:path-effect
       effect="fillet_chamfer"
       id="path-effect13"
       is_visible="true"
       lpeversion="1"
       nodesatellites_param="F,0,0,1,0,0,0,1 @ F,0,0,1,0,24.99616,0,1 @ F,0,0,1,0,0,0,1"
       radius="0"
       unit="px"
       method="auto"
       mode="F"
       chamfer_steps="1"
       flexible="false"
       use_knot_distance="true"
       apply_no_radius="true"
       apply_with_radius="true"
       only_selected="false"
       hide_knots="false" />
    <inkscape:path-effect
       effect="fillet_chamfer"
       id="path-effect12"
       is_visible="true"
       lpeversion="1"
       nodesatellites_param="F,0,0,1,0,0,0,1 @ F,0,0,1,0,18.019954,0,1 @ F,0,0,1,0,14.99999,0,1 @ F,0,0,1,0,0,0,1"
       radius="0"
       unit="px"
       method="auto"
       mode="F"
       chamfer_steps="1"
       flexible="false"
       use_knot_distance="true"
       apply_no_radius="true"
       apply_with_radius="true"
       only_selected="false"
       hide_knots="false" />
    <inkscape:path-effect
       effect="fillet_chamfer"
       id="path-effect11"
       is_visible="true"
       lpeversion="1"
       nodesatellites_param="F,0,0,1,0,0,0,1 @ F,0,0,1,0,17.964287,0,1 @ F,0,0,1,0,20.22896,0,1 @ F,0,0,1,0,24.867295,0,1 @ F,0,0,1,0,11.141721,0,1 @ F,0,0,1,0,15.81139,0,1 @ F,0,0,1,0,34.522907,0,1 @ F,0,0,1,0,26.923448,0,1 @ F,0,0,1,0,30.000006,0,1 @ F,0,0,1,0,24.929094,0,1 @ F,0,0,1,0,31.063243,0,1 @ F,0,0,1,0,0,0,1"
       radius="0"
       unit="px"
       method="auto"
       mode="F"
       chamfer_steps="1"
       flexible="false"
       use_knot_distance="true"
       apply_no_radius="true"
       apply_with_radius="true"
       only_selected="false"
       hide_knots="false" />
    <inkscape:path-effect
       effect="fillet_chamfer"
       id="path-effect10"
       is_visible="true"
       lpeversion="1"
       nodesatellites_param="F,0,1,1,0,45.000008,0,1 @ F,0,1,1,0,45.000008,0,1 @ F,0,0,1,0,45.000008,0,1 @ F,0,0,1,0,0,0,1 @ F,0,1,1,0,45.000008,0,1"
       radius="0"
       unit="px"
       method="auto"
       mode="F"
       chamfer_steps="1"
       flexible="false"
       use_knot_distance="true"
       apply_no_radius="true"
       apply_with_radius="true"
       only_selected="false"
       hide_knots="false" />
    <inkscape:path-effect
       effect="fillet_chamfer"
       id="path-effect4"
       is_visible="true"
       lpeversion="1"
       nodesatellites_param="F,0,1,1,0,24.999998,0,1 @ F,0,1,1,0,24.999998,0,1 @ F,0,0,1,0,24.999998,0,1 @ F,0,1,1,0,24.999998,0,1"
       radius="0"
       unit="px"
       method="auto"
       mode="F"
       chamfer_steps="1"
       flexible="false"
       use_knot_distance="true"
       apply_no_radius="true"
       apply_with_radius="true"
       only_selected="false"
       hide_knots="false" />
    <inkscape:path-effect
       effect="fillet_chamfer"
       id="path-effect3"
       is_visible="true"
       lpeversion="1"
       nodesatellites_param="F,0,1,1,0,25.000003,0,1 @ F,0,1,1,0,25.000003,0,1 @ F,0,1,1,0,25.000003,0,1 @ F,0,1,1,0,25.000003,0,1"
       radius="0"
       unit="px"
       method="auto"
       mode="F"
       chamfer_steps="1"
       flexible="false"
       use_knot_distance="true"
       apply_no_radius="true"
       apply_with_radius="true"
       only_selected="false"
       hide_knots="false" />
    <inkscape:path-effect
       effect="fillet_chamfer"
       id="path-effect1"
       is_visible="true"
       lpeversion="1"
       nodesatellites_param="F,0,0,1,0,95.000002,0,1 @ F,0,0,1,0,95.000002,0,1 @ F,0,0,1,0,94.999988,0,1 @ F,0,0,1,0,94.999988,0,1 @ F,0,0,1,0,0,0,1 @ F,0,0,1,0,145.00001,0,1 @ F,0,0,1,0,150.00001,0,1 @ F,0,0,1,0,0,0,1"
       radius="0"
       unit="px"
       method="auto"
       mode="F"
       chamfer_steps="1"
       flexible="false"
       use_knot_distance="true"
       apply_no_radius="true"
       apply_with_radius="true"
       only_selected="false"
       hide_knots="false" />
    <inkscape:path-effect
       effect="fillet_chamfer"
       id="path-effect17-2"
       is_visible="true"
       lpeversion="1"
       nodesatellites_param="F,0,0,1,0,145.00001,0,1 @ F,0,0,1,0,0,0,1 @ F,0,0,1,0,100,0,1 @ F,0,0,1,0,100,0,1 @ F,0,1,1,0,100,0,1 @ F,0,0,1,0,100,0,1 @ F,0,0,1,0,0,0,1 @ F,0,0,1,0,145.00001,0,1"
       radius="0"
       unit="px"
       method="auto"
       mode="F"
       chamfer_steps="1"
       flexible="false"
       use_knot_distance="true"
       apply_no_radius="true"
       apply_with_radius="true"
       only_selected="false"
       hide_knots="false" />
  </defs>
  <g
     inkscape:label="Layer 1"
     inkscape:groupmode="layer"
     id="layer1">
    <g
       id="g20"
       transform="translate(7.2737984e-7,39.999988)">
      <path
         style="fill:#ffffff;fill-opacity:1;stroke:none;stroke-width:0;stroke-linecap:round;stroke-linejoin:round;stroke-miterlimit:0;stroke-dasharray:none;stroke-dashoffset:21;stroke-opacity:1;paint-order:stroke fill markers"
         d="M 158.65467,105.83455 122.5,175 A 98.757911,98.757911 134.27478 0 0 25.000001,275 L 25,280 a 100,100 45 0 0 100,100 h 300.00002 a 100,100 135 0 0 100,-100 v -5 a 100,100 45 0 0 -100,-100 L 418.63141,85.839531 A 116.51226,116.51226 62.287094 0 0 375.19987,3.1598984 l -10.19986,-8.1598874 -60,-19.999999 -45,44.999998 -39.84048,22.410268 a 155.32935,155.32935 134.11977 0 0 -61.50486,63.424272 z"
         id="path11"
         sodipodi:nodetypes="cccccccccccc"
         inkscape:path-effect="#path-effect17"
         inkscape:original-d="M 180.00001,65.000009 122.5,175 H 25.000001 L 25,380 H 525.00002 V 175 h -100 l -10.00001,-139.99999 -50,-39.999999 -60,-19.999999 -45,44.999998 z" />
      <path
         id="XMLID_3_"
         d="m 293.29,0.43 c 113.9,-6.87 204.09,67.05 210.82,181.51 7.57,130.17 -96.22,263.7 -231.86,298.21 -46.99,11.78 -90.89,10.52 -129.05,-1.54 -2.81,-51.34 7.29,-104.92 29.32,-142.37 35.91,-61.02 90.19,-55.83 121.33,11.64 11.78,25.39 18.52,55.83 20.48,87.39 10.8,-5.75 21.46,-12.2 31.42,-19.22 C 312.09,334.41 297.08,237.91 417.57,68.18 382.5,40.13 328.64,26.52 261.45,35.22 271.41,23.44 281.93,11.94 293.29,0.43 Z"
         style="display:inline"
         transform="matrix(0.62810295,0,0,0.62810295,118.60121,-25.531473)" />
      <path
         id="XMLID_6_"
         class="st0"
         d="m 265.52,138.6 c -9.82,20.48 -5.89,37.31 8.7,37.73 14.45,0.28 34.23,-16.13 43.9,-36.75 9.82,-20.48 5.89,-37.31 -8.7,-37.73 -14.45,-0.28 -34.08,16.27 -43.9,36.75 z M 255.7,80.39 C 153.86,205.23 110.66,367.38 116.69,511.99 56.52,488.01 12.47,429.94 7.99,356.44 V 355.6 C 0.41,225.28 104.35,91.75 240.13,57.24 c 52.74,-13.33 102.54,-9.82 144.2,7.29 -8.7,24.69 -23.14,52.88 -37.45,74.2 -30.02,44.61 -73.22,72.8 -96.36,62.98 -23.14,-9.96 -17.53,-54.28 12.62,-98.89 6.87,-10.24 14.59,-19.78 22.58,-28.05 -10.1,1.27 -20.06,3.23 -30.02,5.62 z"
         style="display:inline;fill:#b80017"
         transform="matrix(0.62810295,0,0,0.62810295,118.60121,-25.531473)" />
      <path
         style="fill:#ffffff;fill-opacity:1;stroke:none;stroke-width:0;stroke-linecap:round;stroke-linejoin:round;stroke-miterlimit:0;stroke-dasharray:none;stroke-dashoffset:21;stroke-opacity:1;paint-order:stroke fill markers"
         d="M 155.35092,113.26654 122.5,175 h -19.98994 a 77.510064,77.510064 135 0 0 -77.510059,77.51006 l 0,12.53177 A 114.95817,114.95817 45 0 0 139.95817,380 h 307.55191 a 77.489938,77.489938 135 0 0 77.48994,-77.48994 v -47.43238 a 81.910107,81.910107 45.648109 0 0 -80.05719,-81.88914 l -29.98465,-0.67847 h -60 L 305.05636,157.69918 255.15455,142.8883 219.95817,107.51007 Z"
         id="path11-3"
         sodipodi:nodetypes="cccccccccccc"
         transform="translate(0.041835,-2.51006)"
         inkscape:path-effect="#path-effect23"
         inkscape:original-d="M 155.35092,113.26654 122.5,175 H 25.000001 L 25,380 H 525.00002 V 175 l -110.04184,-2.48993 h -60 L 305.05636,157.69918 255.15455,142.8883 219.95817,107.51007 Z" />
      <path
         style="fill:none;fill-opacity:1;stroke:#000000;stroke-width:20;stroke-linecap:round;stroke-linejoin:round;stroke-miterlimit:0;stroke-dasharray:none;stroke-dashoffset:21;stroke-opacity:1;paint-order:stroke fill markers"
         d="m 75.000003,275 v 0 A 24.999998,24.999998 45 0 0 100,300 h 0 a 24.999998,24.999998 135 0 0 25,-25 v 0 a 24.999998,24.999998 45 0 0 -25,-25 h 0 a 24.999998,24.999998 135 0 0 -24.999997,25 z"
         id="path2"
         inkscape:path-effect="#path-effect4"
         inkscape:original-d="m 75.000003,250 v 50 H 125 v -50 z" />
      <path
         style="fill:none;fill-opacity:1;stroke:#000000;stroke-width:20;stroke-linecap:round;stroke-linejoin:round;stroke-miterlimit:0;stroke-dasharray:none;stroke-dashoffset:21;stroke-opacity:1;paint-order:stroke fill markers"
         d="M 426.23538,249.96946 A 26.370754,26.370754 42.2128 0 0 452.28047,273.59631 22.479345,22.479345 133.91551 0 0 475.00002,250 a 25,25 44.999993 0 0 -25,-25 23.793703,23.793703 133.58379 0 0 -23.76464,24.96946 z"
         id="path3"
         inkscape:path-effect="#path-effect3"
         inkscape:original-d="m 425.00002,225 2.32803,47.05467 L 475.00002,275 v -50 z"
         sodipodi:nodetypes="ccccc" />
      <path
         style="fill:none;fill-opacity:1;stroke:#000000;stroke-width:20;stroke-linecap:round;stroke-linejoin:round;stroke-miterlimit:0;stroke-dasharray:none;stroke-dashoffset:21;stroke-opacity:1;paint-order:stroke fill markers"
         d="m 455.00002,180 -10.23166,1.27896 a 118.50383,118.50383 158.66866 0 0 -54.18035,21.15818 L 380.00001,210"
         id="path4"
         inkscape:path-effect="#path-effect14"
         inkscape:original-d="m 455.00002,180 -40,5 -35.00001,25"
         sodipodi:nodetypes="ccc" />
      <path
         style="fill:none;fill-opacity:1;stroke:#000000;stroke-width:20;stroke-linecap:round;stroke-linejoin:round;stroke-miterlimit:0;stroke-dasharray:none;stroke-dashoffset:21;stroke-opacity:1;paint-order:stroke fill markers"
         d="m 435.00002,175.00001 -26.79166,-10.71667 a 55.66254,55.66254 177.61818 0 0 -45.5656,1.89528 L 345.00001,175"
         id="path5"
         inkscape:path-effect="#path-effect13"
         inkscape:original-d="M 435.00002,175.00001 385.00001,155 l -40,20"
         sodipodi:nodetypes="ccc" />
      <path
         style="fill:none;fill-opacity:1;stroke:#000000;stroke-width:20;stroke-linecap:round;stroke-linejoin:round;stroke-miterlimit:0;stroke-dasharray:none;stroke-dashoffset:21;stroke-opacity:1;paint-order:stroke fill markers"
         d="m 440.00002,270 c -36.39091,-28.41666 -57.70441,-60.07926 -90.96445,-88.70418 -7.54172,-6.4907 -20.74838,-15.77103 -29.02907,-21.29149 l -2.52574,-1.68383 a 39.260354,39.260354 12.779983 0 0 -27.32998,-6.19918 L 270.00001,155"
         id="path6"
         sodipodi:nodetypes="cccc"
         inkscape:path-effect="#path-effect12"
         inkscape:original-d="m 440.00002,270 c -41.253,-32.21333 -63.13053,-68.5979 -105.00001,-100 l -30,-20 -35,5" />
      <path
         style="fill:none;fill-opacity:1;stroke:#000000;stroke-width:20;stroke-linecap:round;stroke-linejoin:round;stroke-miterlimit:0;stroke-dasharray:none;stroke-dashoffset:21;stroke-opacity:1;paint-order:stroke fill markers"
         d="m 115,170 16.96613,-33.93225 c 4.43699,-8.87398 14.62542,-20.74286 23.42663,-25.31127 10.73596,-5.57267 24.21823,-10.56983 40.60844,-11.56867 11.13313,-0.678469 27.11541,6.63604 35.67145,13.82012 a 106.9172,106.9172 53.27961 0 1 21.12148,28.3156 l 11.47351,19.12252 a 668.68841,668.68841 59.990819 0 1 11.14327,19.29357 l 11.91041,21.43874 a 112.89419,112.89419 52.972698 0 0 18.85903,25.00198 l 29.40828,29.40828 a 246.4953,246.4953 37.027297 0 0 54.58983,41.17718 84.813294,84.813294 11.158335 0 0 41.745,8.23419 h 13.07655 a 99.08333,99.08333 163.15497 0 0 54.96153,-16.641 50.765053,50.765053 118.34256 0 0 14.29691,-26.50507 92.268878,92.268878 92.456554 0 0 1.41188,-32.90993 l 0,0"
         id="path7"
         inkscape:path-effect="#path-effect11"
         inkscape:original-d="m 115,170 25.00001,-50 c 15,-10 40,-24.999999 76.18056,-20 l 23.81944,20 30,50 25,45 65,65 45,24.99999 h 70.00001 l 30,-19.99999 10,-25 0.67031,-31.05601"
         sodipodi:nodetypes="cccccccccccc" />
      <path
         style="fill:none;fill-opacity:1;stroke:#000000;stroke-width:20;stroke-linecap:round;stroke-linejoin:round;stroke-miterlimit:0;stroke-dasharray:none;stroke-dashoffset:21;stroke-opacity:1;paint-order:stroke fill markers"
         d="m 125,180 12.13761,-7.28256 A 54.1548,54.1548 164.51813 0 1 165.00002,165 h 4.99999 l 6.2947,1.57368 a 55.991594,55.991594 28.196849 0 1 24.1446,12.94451 l 74.5607,67.98181 74.5607,67.98182 a 58.612908,58.612908 28.806282 0 0 24.06861,13.23527 l 22.07543,6.02057 a 108.09082,108.09082 4.7722509 0 0 39.19601,3.27226 l 9.77415,-0.97742 a 156.78852,156.78852 166.86668 0 0 39.45102,-9.20472 L 505.00002,320 l 5,-10 15,-30"
         id="path8"
         inkscape:path-effect="#path-effect15"
         inkscape:original-d="m 125,180 25.00001,-15 h 20 l 20,5 85,77.5 85,77.50001 55.00001,14.99999 50,-5.00001 40,-14.99999 5,-10 15,-30"
         sodipodi:nodetypes="ccccccccccc" />
      <path
         style="fill:none;fill-opacity:1;stroke:#000000;stroke-width:20;stroke-linecap:round;stroke-linejoin:round;stroke-miterlimit:0;stroke-dasharray:none;stroke-dashoffset:21;stroke-opacity:1;paint-order:stroke fill markers"
         d="m 90.000003,180 h 24.495647 a 58.382618,58.382618 14.872441 0 1 28.96589,7.69231 l 11.92877,6.81644 a 101.55581,101.55581 35.964661 0 1 17.81091,12.9236 l 143.52212,130.06692 a 72.955307,72.955307 33.479791 0 0 18.41839,12.18152 L 390.00001,375"
         id="path9"
         inkscape:path-effect="#path-effect16"
         inkscape:original-d="M 90.000003,180 H 130 l 35,20 160.00001,145 65,30"
         sodipodi:nodetypes="ccccc" />
      <path
         style="fill:none;fill-opacity:1;stroke:#000000;stroke-width:20;stroke-linecap:round;stroke-linejoin:round;stroke-miterlimit:0;stroke-dasharray:none;stroke-dashoffset:21;stroke-opacity:1;paint-order:stroke fill markers"
         d="m 46.745116,274.91549 0.336588,5.17924 a 61.659013,61.659013 50.158969 0 0 46.574718,55.81938 85.117553,85.117553 165.63071 0 0 71.949068,-18.43228 l 39.39452,-30.44657 -39.38902,-42.44299 c -16.90598,-18.21676 -51.23047,-34.56955 -75.192656,-28.35899 -1.170283,0.30332 -2.329145,0.61605 -3.478673,0.93668 -23.9307,6.67485 -41.806275,32.94503 -40.194545,57.74553 z"
         id="path10"
         inkscape:path-effect="#path-effect10"
         inkscape:original-d="M 43.82682,230.01021 50,325.00001 130,345 205.00001,287.03526 135,211.60791 c -40.509747,-1.87608 -60.807002,11.57569 -91.17318,18.4023 z"
         sodipodi:nodetypes="cccccc"
         transform="translate(-9.9999985)" />
      <path
         style="fill:none;fill-opacity:1;stroke:#000000;stroke-width:20;stroke-linecap:round;stroke-linejoin:round;stroke-miterlimit:0;stroke-dasharray:none;stroke-dashoffset:21;stroke-opacity:1;paint-order:stroke fill markers"
         d="m 115,295 50,-35"
         id="path16"
         sodipodi:nodetypes="cc" />
      <path
         style="fill:none;fill-opacity:1;stroke:#000000;stroke-width:20;stroke-linecap:round;stroke-linejoin:round;stroke-miterlimit:0;stroke-dasharray:none;stroke-dashoffset:21;stroke-opacity:1;paint-order:stroke fill markers"
         d="m 120,260 15,20"
         id="path17"
         sodipodi:nodetypes="cc" />
      <path
         style="fill:none;fill-opacity:1;stroke:#000000;stroke-width:20;stroke-linecap:round;stroke-linejoin:round;stroke-miterlimit:0;stroke-dasharray:none;stroke-dashoffset:21;stroke-opacity:1;paint-order:stroke fill markers"
         d="m 150.00001,240 140,130"
         id="path18"
         sodipodi:nodetypes="cc" />
      <path
         style="fill:none;fill-opacity:1;stroke:#000000;stroke-width:20;stroke-linecap:round;stroke-linejoin:round;stroke-miterlimit:0;stroke-dasharray:none;stroke-dashoffset:21;stroke-opacity:1;paint-order:stroke fill markers"
         d="m 220.00001,310 -52.46697,43.72247 a 84.487485,84.487485 146.81469 0 1 -16.30361,10.66282 102.88682,102.88682 161.74335 0 1 -25.93814,8.55645 l -0.67591,0.13518 a 49.029018,49.029018 2.8647883e-6 0 1 -19.23076,0 L 90.000003,370"
         id="path19"
         sodipodi:nodetypes="ccccc"
         inkscape:path-effect="#path-effect20"
         inkscape:original-d="m 220.00001,310 -60,50 -20,10 L 115,375 90.000003,370" />
      <path
         style="fill:none;fill-opacity:1;stroke:#000000;stroke-width:20;stroke-linecap:round;stroke-linejoin:round;stroke-miterlimit:0;stroke-dasharray:none;stroke-dashoffset:21;stroke-opacity:1;paint-order:stroke fill markers"
         d="M 245.00001,330 195,374.99999"
         id="path20"
         sodipodi:nodetypes="cc" />
      <path
         style="fill:none;fill-opacity:1;stroke:#000000;stroke-width:20;stroke-linecap:round;stroke-linejoin:round;stroke-miterlimit:0;stroke-dasharray:none;stroke-dashoffset:21;stroke-opacity:1;paint-order:stroke fill markers"
         d="m 125,175 h -10 a 90.000002,90.000002 135 0 0 -90,90 v 19.99999 a 90.000002,90.000002 45 0 0 90,90 H 435.00001 A 89.999988,89.999988 135 0 0 525,285 V 264.99999 A 89.999984,89.999984 45.000003 0 0 435.00002,175"
         id="path21"
         inkscape:path-effect="#path-effect21"
         inkscape:original-d="M 125,175 H 25 V 374.99999 H 525 V 175 h -89.99998"
         sodipodi:nodetypes="cccccc" />
    </g>
  </g>
</svg>
