<svg version="1.1" xmlns="http://www.w3.org/2000/svg" viewBox="0 0 159.03423940528484 159.03423940528484" width="159.03423940528484" height="159.03423940528484" class="excalidraw-svg"><!-- svg-source:excalidraw --><metadata></metadata><defs><style class="style-fonts">
      </style></defs><g stroke-linecap="round" transform="translate(10 10) rotate(0 69.51711970264242 69.51711970264242)"><path d="M0 0 C0 0, 0 0, 0 0 M0 0 C0 0, 0 0, 0 0 M0.13 12.04 C3.87 7.74, 7.6 3.45, 10.63 -0.03 M0.13 12.04 C2.95 8.8, 5.76 5.57, 10.63 -0.03 M0.27 24.08 C4.7 18.98, 9.14 13.87, 21.26 -0.07 M0.27 24.08 C4.5 19.21, 8.73 14.34, 21.26 -0.07 M-0.26 36.88 C11.42 23.44, 23.1 10.01, 31.89 -0.1 M-0.26 36.88 C6.35 29.27, 12.96 21.67, 31.89 -0.1 M-0.12 48.92 C14.15 32.5, 28.43 16.07, 42.52 -0.14 M-0.12 48.92 C14.68 31.89, 29.48 14.87, 42.52 -0.14 M0.01 60.96 C21.17 36.61, 42.34 12.26, 53.15 -0.17 M0.01 60.96 C11.14 48.15, 22.27 35.35, 53.15 -0.17 M0.14 73 C25.21 44.16, 50.28 15.32, 63.78 -0.21 M0.14 73 C23.96 45.6, 47.78 18.2, 63.78 -0.21 M0.28 85.04 C26.11 55.32, 51.95 25.6, 74.41 -0.24 M0.28 85.04 C22.67 59.28, 45.07 33.51, 74.41 -0.24 M-0.25 97.84 C24.81 69.01, 49.87 40.18, 85.04 -0.28 M-0.25 97.84 C17.98 76.87, 36.21 55.9, 85.04 -0.28 M-0.11 109.88 C27.27 78.37, 54.66 46.87, 95.67 -0.31 M-0.11 109.88 C35.48 68.93, 71.08 27.98, 95.67 -0.31 M0.02 121.92 C23.78 94.59, 47.53 67.26, 106.3 -0.34 M0.02 121.92 C38.41 77.76, 76.8 33.6, 106.3 -0.34 M0.15 133.96 C31.15 98.3, 62.15 62.64, 116.27 0.38 M0.15 133.96 C43.33 84.29, 86.51 34.62, 116.27 0.38 M6.19 139.21 C37.18 103.56, 68.16 67.92, 126.91 0.34 M6.19 139.21 C39.79 100.56, 73.39 61.9, 126.91 0.34 M16.82 139.17 C56.94 93.02, 97.06 46.87, 137.54 0.31 M16.82 139.17 C55.7 94.44, 94.58 49.72, 137.54 0.31 M26.79 139.89 C66.2 94.56, 105.61 49.23, 138.98 10.84 M26.79 139.89 C70.81 89.26, 114.82 38.63, 138.98 10.84 M37.42 139.86 C68.67 103.91, 99.92 67.96, 139.11 22.88 M37.42 139.86 C68.69 103.9, 99.95 67.94, 139.11 22.88 M48.05 139.82 C79.93 103.15, 111.81 66.48, 139.25 34.92 M48.05 139.82 C75.05 108.77, 102.04 77.72, 139.25 34.92 M58.68 139.79 C74.93 121.1, 91.17 102.42, 139.38 46.96 M58.68 139.79 C81.15 113.94, 103.62 88.1, 139.38 46.96 M69.31 139.76 C95.63 109.49, 121.94 79.22, 138.86 59.76 M69.31 139.76 C93.5 111.93, 117.69 84.11, 138.86 59.76 M79.94 139.72 C92.24 125.58, 104.54 111.43, 138.99 71.8 M79.94 139.72 C94.79 122.64, 109.63 105.57, 138.99 71.8 M90.57 139.69 C102.65 125.8, 114.72 111.91, 139.12 83.84 M90.57 139.69 C103.77 124.51, 116.97 109.33, 139.12 83.84 M101.2 139.65 C112.86 126.24, 124.52 112.83, 139.26 95.88 M101.2 139.65 C112.93 126.16, 124.66 112.67, 139.26 95.88 M111.83 139.62 C118.89 131.5, 125.94 123.39, 139.39 107.92 M111.83 139.62 C121.69 128.28, 131.55 116.94, 139.39 107.92 M122.47 139.58 C126.7 134.71, 130.94 129.83, 138.87 120.71 M122.47 139.58 C128.97 132.1, 135.47 124.62, 138.87 120.71 M133.1 139.55 C135.34 136.97, 137.58 134.38, 139 132.76 M133.1 139.55 C134.64 137.78, 136.17 136.01, 139 132.76 M-0.16 138.89 C-0.16 138.89, -0.16 138.89, -0.16 138.89 M-0.16 138.89 C-0.16 138.89, -0.16 138.89, -0.16 138.89 M11.88 138.76 C8.43 135.77, 4.99 132.77, -0.2 128.26 M11.88 138.76 C9.44 136.64, 7 134.52, -0.2 128.26 M24.67 139.28 C17.29 132.86, 9.9 126.44, -0.23 117.63 M24.67 139.28 C15.09 130.95, 5.5 122.62, -0.23 117.63 M36.72 139.15 C24.88 128.86, 13.04 118.57, -0.27 107 M36.72 139.15 C23.1 127.32, 9.49 115.49, -0.27 107 M48.76 139.02 C37.48 129.22, 26.21 119.42, -0.3 96.37 M48.76 139.02 C33.62 125.86, 18.49 112.71, -0.3 96.37 M60.8 138.88 C41.39 122.01, 21.98 105.14, -0.33 85.74 M60.8 138.88 C41.78 122.36, 22.77 105.83, -0.33 85.74 M72.84 138.75 C50.05 118.94, 27.26 99.13, -0.37 75.11 M72.84 138.75 C50.17 119.05, 27.5 99.34, -0.37 75.11 M85.63 139.27 C51.97 110.01, 18.3 80.74, 0.35 65.14 M85.63 139.27 C55.9 113.42, 26.16 87.57, 0.35 65.14 M97.67 139.14 C75.72 120.06, 53.77 100.98, 0.32 54.51 M97.67 139.14 C71.96 116.79, 46.25 94.44, 0.32 54.51 M109.72 139.01 C71.01 105.36, 32.31 71.72, 0.28 43.88 M109.72 139.01 C69.82 104.32, 29.92 69.64, 0.28 43.88 M121.76 138.87 C92.44 113.39, 63.13 87.91, 0.25 33.25 M121.76 138.87 C83.72 105.81, 45.68 72.74, 0.25 33.25 M133.8 138.74 C96.35 106.19, 58.91 73.64, 0.21 22.62 M133.8 138.74 C106.04 114.62, 78.29 90.49, 0.21 22.62 M139.8 133.36 C110.21 107.63, 80.61 81.91, 0.18 11.99 M139.8 133.36 C103.01 101.38, 66.23 69.41, 0.18 11.99 M139.77 122.73 C91.58 80.84, 43.4 38.96, 0.14 1.36 M139.77 122.73 C98.87 87.18, 57.98 51.63, 0.14 1.36 M139.73 112.1 C91.31 70.01, 42.89 27.92, 10.68 -0.09 M139.73 112.1 C89.68 68.59, 39.64 25.09, 10.68 -0.09 M139.7 101.47 C115.96 80.84, 92.23 60.2, 22.72 -0.22 M139.7 101.47 C116.26 81.1, 92.83 60.73, 22.72 -0.22 M139.66 90.84 C102.63 58.65, 65.61 26.46, 34.76 -0.35 M139.66 90.84 C116.14 70.39, 92.62 49.95, 34.76 -0.35 M139.63 80.21 C103.45 48.76, 67.27 17.31, 47.55 0.17 M139.63 80.21 C114.22 58.12, 88.8 36.03, 47.55 0.17 M139.59 69.58 C111.46 45.12, 83.32 20.66, 59.59 0.04 M139.59 69.58 C109.48 43.4, 79.37 17.23, 59.59 0.04 M139.56 58.95 C116.55 38.95, 93.55 18.95, 71.63 -0.1 M139.56 58.95 C123.84 45.28, 108.11 31.61, 71.63 -0.1 M139.52 48.32 C119.3 30.73, 99.07 13.15, 83.68 -0.23 M139.52 48.32 C122 33.08, 104.47 17.85, 83.68 -0.23 M139.49 37.69 C124.25 24.44, 109 11.19, 95.72 -0.36 M139.49 37.69 C124.43 24.6, 109.38 11.51, 95.72 -0.36 M139.46 27.06 C128.33 17.39, 117.2 7.72, 108.51 0.16 M139.46 27.06 C127.96 17.07, 116.47 7.07, 108.51 0.16 M139.42 16.43 C135.38 12.92, 131.35 9.41, 120.55 0.03 M139.42 16.43 C134.58 12.22, 129.75 8.02, 120.55 0.03 M139.39 5.8 C137.33 4.01, 135.27 2.22, 132.59 -0.11 M139.39 5.8 C137.01 3.73, 134.63 1.67, 132.59 -0.11" stroke="#fff5f5" stroke-width="1" fill="none"></path><path d="M0 0 C38.03 0, 76.06 0, 139.03 0 M0 0 C32.99 0, 65.98 0, 139.03 0 M139.03 0 C139.03 54.89, 139.03 109.78, 139.03 139.03 M139.03 0 C139.03 31.94, 139.03 63.88, 139.03 139.03 M139.03 139.03 C86.94 139.03, 34.85 139.03, 0 139.03 M139.03 139.03 C102.47 139.03, 65.91 139.03, 0 139.03 M0 139.03 C0 101.13, 0 63.23, 0 0 M0 139.03 C0 105.69, 0 72.35, 0 0" stroke="#e03131" stroke-width="2" fill="none"></path></g><g stroke-linecap="round"><g transform="translate(31.57421926212274 38.70263353121686) rotate(0 28.461150889189398 0)"><path d="M0 0 C20.64 0, 41.29 0, 56.92 0 M0 0 C22.42 0, 44.84 0, 56.92 0" stroke="#e03131" stroke-width="2" fill="none"></path></g></g><mask></mask><g stroke-linecap="round"><g transform="translate(31.57421926212274 114.15777774906792) rotate(0 22.504165819359052 0)"><path d="M0 0 C12.78 0, 25.55 0, 45.01 0 M0 0 C9.17 0, 18.34 0, 45.01 0" stroke="#e03131" stroke-width="2" fill="none"></path></g></g><mask></mask><g stroke-linecap="round"><g transform="translate(31.57421926212274 58.519136053075556) rotate(0 13.237744599622971 0)"><path d="M0 0 C6.83 0, 13.65 0, 26.48 0 M0 0 C6.16 0, 12.32 0, 26.48 0" stroke="#e03131" stroke-width="2" fill="none"></path></g></g><mask></mask><g stroke-linecap="round"><g transform="translate(31.57421926212274 94.30116084963333) rotate(0 13.237744599622971 0)"><path d="M0 0 C8.61 0, 17.22 0, 26.48 0 M0 0 C10.27 0, 20.54 0, 26.48 0" stroke="#e03131" stroke-width="2" fill="none"></path></g></g><mask></mask><g stroke-linecap="round"><g transform="translate(31.57421926212274 78.41586733008586) rotate(0 33.75624872903858 -0.6618872299811471)"><path d="M0 0 C21.14 -0.41, 42.27 -0.83, 67.51 -1.32 M0 0 C17.27 -0.34, 34.54 -0.68, 67.51 -1.32" stroke="#e03131" stroke-width="2" fill="none"></path></g></g><mask></mask><g stroke-linecap="round"><g transform="translate(76.79114566422922 68.62075114966046) rotate(0 24.389541565365928 6.739215432535303)"><path d="M0 0 C1.07 -2.03, 2.89 -9.2, 6.42 -12.19 C9.95 -15.19, 15.72 -17.76, 21.18 -17.97 C26.64 -18.19, 34.55 -16.9, 39.15 -13.48 C43.75 -10.06, 47.82 -3.1, 48.78 2.57 C49.74 8.24, 47.92 15.72, 44.93 20.54 C41.93 25.35, 36.37 29.95, 30.81 31.45 C25.25 32.95, 16.58 31.88, 11.55 29.52 C6.53 27.17, 2.46 19.36, 0.64 17.33 M0 0 C1.07 -2.03, 2.89 -9.2, 6.42 -12.19 C9.95 -15.19, 15.72 -17.76, 21.18 -17.97 C26.64 -18.19, 34.55 -16.9, 39.15 -13.48 C43.75 -10.06, 47.82 -3.1, 48.78 2.57 C49.74 8.24, 47.92 15.72, 44.93 20.54 C41.93 25.35, 36.37 29.95, 30.81 31.45 C25.25 32.95, 16.58 31.88, 11.55 29.52 C6.53 27.17, 2.46 19.36, 0.64 17.33" stroke="#e03131" stroke-width="2" fill="none"></path></g></g><mask></mask><g stroke-linecap="round"><g transform="translate(86.73951130273318 69.93106773385048) rotate(0 14.651437525486948 5.473956053590612)"><path d="M0 0 C0.89 -1.3, 2.96 -6.1, 5.34 -7.82 C7.72 -9.54, 11.17 -10.5, 14.28 -10.32 C17.38 -10.14, 21.45 -9.12, 23.95 -6.73 C26.46 -4.34, 28.78 0.57, 29.3 4.04 C29.83 7.51, 28.67 11.26, 27.09 14.09 C25.51 16.91, 23.01 19.8, 19.8 20.99 C16.59 22.19, 11.12 22.39, 7.83 21.27 C4.55 20.14, 1.38 15.43, 0.1 14.26 M0 0 C0.89 -1.3, 2.96 -6.1, 5.34 -7.82 C7.72 -9.54, 11.17 -10.5, 14.28 -10.32 C17.38 -10.14, 21.45 -9.12, 23.95 -6.73 C26.46 -4.34, 28.78 0.57, 29.3 4.04 C29.83 7.51, 28.67 11.26, 27.09 14.09 C25.51 16.91, 23.01 19.8, 19.8 20.99 C16.59 22.19, 11.12 22.39, 7.83 21.27 C4.55 20.14, 1.38 15.43, 0.1 14.26" stroke="#e03131" stroke-width="2" fill="none"></path></g></g><mask></mask><g stroke-linecap="round"><g transform="translate(122.61781060546907 89.80114250905706) rotate(0 3.5300652265661654 10.590195679698354)"><path d="M0 0 C2.35 2.35, 12.3 10.59, 14.12 14.12 C15.94 17.65, 12.84 20.75, 10.91 21.18 C8.99 21.61, 5.56 18.72, 2.57 16.69 C-0.43 14.66, -5.46 10.27, -7.06 8.99 M0 0 C2.35 2.35, 12.3 10.59, 14.12 14.12 C15.94 17.65, 12.84 20.75, 10.91 21.18 C8.99 21.61, 5.56 18.72, 2.57 16.69 C-0.43 14.66, -5.46 10.27, -7.06 8.99" stroke="#e03131" stroke-width="2" fill="none"></path></g></g><mask></mask></svg>