<svg version="1.1" xmlns="http://www.w3.org/2000/svg" viewBox="0 0 160.86777215965054 160.73287798699093" width="160.86777215965054" height="160.73287798699093" class="excalidraw-svg"><!-- svg-source:excalidraw --><metadata></metadata><defs><style class="style-fonts">
      </style></defs><g stroke-linecap="round" transform="translate(10 10) rotate(0 70.43388607982527 70.36643899349546)"><path d="M0 0 C0 0, 0 0, 0 0 M0 0 C0 0, 0 0, 0 0 M0.13 12.04 C2.62 9.18, 5.11 6.31, 10.63 -0.03 M0.13 12.04 C4.28 7.27, 8.42 2.51, 10.63 -0.03 M0.27 24.08 C5.09 18.53, 9.91 12.99, 21.26 -0.07 M0.27 24.08 C8.13 15.03, 16 5.98, 21.26 -0.07 M-0.26 36.88 C8.2 27.15, 16.65 17.43, 31.89 -0.1 M-0.26 36.88 C8.51 26.8, 17.27 16.71, 31.89 -0.1 M-0.12 48.92 C10.1 37.15, 20.33 25.39, 42.52 -0.14 M-0.12 48.92 C8.55 38.94, 17.22 28.96, 42.52 -0.14 M0.01 60.96 C19.85 38.14, 39.68 15.32, 53.15 -0.17 M0.01 60.96 C18.92 39.21, 37.83 17.46, 53.15 -0.17 M0.14 73 C17.2 53.38, 34.26 33.76, 63.78 -0.21 M0.14 73 C13.6 57.52, 27.05 42.05, 63.78 -0.21 M0.28 85.04 C15.22 67.85, 30.17 50.66, 74.41 -0.24 M0.28 85.04 C27.21 54.06, 54.14 23.08, 74.41 -0.24 M-0.25 97.84 C17.29 77.66, 34.83 57.49, 85.04 -0.28 M-0.25 97.84 C28.3 64.99, 56.86 32.15, 85.04 -0.28 M-0.11 109.88 C33.13 71.64, 66.37 33.4, 95.67 -0.31 M-0.11 109.88 C38.04 65.99, 76.18 22.11, 95.67 -0.31 M0.02 121.92 C22.28 96.31, 44.54 70.7, 106.3 -0.34 M0.02 121.92 C41.89 73.75, 83.76 25.58, 106.3 -0.34 M0.15 133.96 C43.62 83.96, 87.08 33.96, 116.27 0.38 M0.15 133.96 C40.62 87.41, 81.09 40.85, 116.27 0.38 M4.22 141.47 C41.28 98.84, 78.35 56.2, 126.91 0.34 M4.22 141.47 C40.27 100.01, 76.31 58.54, 126.91 0.34 M14.85 141.44 C41.07 111.28, 67.29 81.11, 137.54 0.31 M14.85 141.44 C49.93 101.09, 85 60.74, 137.54 0.31 M25.48 141.4 C68.64 91.76, 111.79 42.11, 141.6 7.82 M25.48 141.4 C51.44 111.54, 77.39 81.68, 141.6 7.82 M36.11 141.37 C74.03 97.75, 111.94 54.14, 141.08 20.61 M36.11 141.37 C64.13 109.13, 92.15 76.9, 141.08 20.61 M46.74 141.33 C81.87 100.92, 117 60.51, 141.21 32.66 M46.74 141.33 C70.99 113.44, 95.24 85.54, 141.21 32.66 M57.37 141.3 C80.75 114.41, 104.12 87.52, 141.35 44.7 M57.37 141.3 C85.28 109.19, 113.19 77.09, 141.35 44.7 M68 141.26 C91.67 114.04, 115.34 86.81, 141.48 56.74 M68 141.26 C93.81 111.57, 119.62 81.88, 141.48 56.74 M78.63 141.23 C103.34 112.8, 128.05 84.38, 141.61 68.78 M78.63 141.23 C97.99 118.97, 117.34 96.7, 141.61 68.78 M89.26 141.2 C105.2 122.87, 121.13 104.54, 141.09 81.57 M89.26 141.2 C107.38 120.35, 125.5 99.51, 141.09 81.57 M99.89 141.16 C112.13 127.09, 124.36 113.01, 141.22 93.61 M99.89 141.16 C108.21 131.59, 116.53 122.02, 141.22 93.61 M110.52 141.13 C119.11 131.25, 127.69 121.37, 141.36 105.66 M110.52 141.13 C122.19 127.71, 133.86 114.28, 141.36 105.66 M121.15 141.09 C128.23 132.95, 135.3 124.82, 141.49 117.7 M121.15 141.09 C125.39 136.22, 129.62 131.35, 141.49 117.7 M131.78 141.06 C134.26 138.21, 136.73 135.37, 141.62 129.74 M131.78 141.06 C134.23 138.24, 136.68 135.43, 141.62 129.74 M-0.25 140.52 C-0.25 140.52, -0.25 140.52, -0.25 140.52 M-0.25 140.52 C-0.25 140.52, -0.25 140.52, -0.25 140.52 M12.55 141.04 C8.59 137.6, 4.64 134.16, -0.28 129.89 M12.55 141.04 C9.26 138.18, 5.98 135.33, -0.28 129.89 M24.59 140.91 C15.68 133.16, 6.77 125.42, -0.32 119.26 M24.59 140.91 C18.15 135.31, 11.71 129.72, -0.32 119.26 M36.63 140.77 C21.97 128.03, 7.31 115.29, -0.35 108.63 M36.63 140.77 C22.57 128.55, 8.52 116.33, -0.35 108.63 M48.67 140.64 C36.07 129.69, 23.48 118.74, 0.37 98.65 M48.67 140.64 C38.46 131.77, 28.25 122.89, 0.37 98.65 M60.71 140.51 C40.84 123.24, 20.98 105.97, 0.33 88.02 M60.71 140.51 C43.49 125.53, 26.26 110.56, 0.33 88.02 M73.51 141.03 C58.71 128.17, 43.92 115.31, 0.3 77.39 M73.51 141.03 C51.8 122.16, 30.09 103.29, 0.3 77.39 M85.55 140.9 C52.72 112.36, 19.89 83.82, 0.26 66.76 M85.55 140.9 C58.25 117.17, 30.95 93.44, 0.26 66.76 M97.59 140.76 C61.75 109.61, 25.92 78.46, 0.23 56.13 M97.59 140.76 C75.21 121.31, 52.84 101.86, 0.23 56.13 M109.63 140.63 C75.87 111.29, 42.12 81.94, 0.2 45.5 M109.63 140.63 C74.89 110.43, 40.15 80.23, 0.2 45.5 M121.67 140.5 C83.88 107.65, 46.09 74.8, 0.16 34.87 M121.67 140.5 C83.85 107.62, 46.02 74.74, 0.16 34.87 M134.47 141.02 C92.87 104.86, 51.27 68.7, 0.13 24.24 M134.47 141.02 C81.43 94.92, 28.4 48.82, 0.13 24.24 M141.22 136.3 C92.01 93.52, 42.8 50.74, 0.09 13.61 M141.22 136.3 C109.4 108.64, 77.59 80.98, 0.09 13.61 M141.19 125.66 C103.92 93.27, 66.65 60.87, 0.06 2.98 M141.19 125.66 C91.27 82.27, 41.36 38.88, 0.06 2.98 M141.15 115.03 C92.73 72.94, 44.3 30.84, 8.33 -0.43 M141.15 115.03 C109.11 87.18, 77.06 59.32, 8.33 -0.43 M141.12 104.4 C103.32 71.54, 65.51 38.68, 20.37 -0.56 M141.12 104.4 C107.27 74.98, 73.42 45.56, 20.37 -0.56 M141.09 93.77 C118.51 74.15, 95.93 54.52, 32.41 -0.7 M141.09 93.77 C118.05 73.75, 95.02 53.73, 32.41 -0.7 M141.05 83.14 C115.6 61.02, 90.15 38.9, 44.45 -0.83 M141.05 83.14 C107.71 54.16, 74.38 25.18, 44.45 -0.83 M141.02 72.51 C116.48 51.19, 91.94 29.86, 57.24 -0.31 M141.02 72.51 C109.59 45.19, 78.16 17.87, 57.24 -0.31 M140.98 61.88 C113.18 37.71, 85.37 13.55, 69.28 -0.44 M140.98 61.88 C126.43 49.24, 111.89 36.59, 69.28 -0.44 M140.95 51.25 C129 40.87, 117.06 30.49, 81.33 -0.57 M140.95 51.25 C119.9 32.96, 98.86 14.67, 81.33 -0.57 M140.91 40.62 C130.25 31.36, 119.59 22.09, 93.37 -0.71 M140.91 40.62 C122.23 24.38, 103.55 8.15, 93.37 -0.71 M140.88 29.99 C131.09 21.48, 121.3 12.97, 105.41 -0.84 M140.88 29.99 C128.4 19.15, 115.93 8.3, 105.41 -0.84 M141.6 20.02 C132.79 12.36, 123.99 4.71, 118.2 -0.32 M141.6 20.02 C133.67 13.13, 125.75 6.24, 118.2 -0.32 M141.56 9.39 C138.94 7.11, 136.32 4.83, 130.24 -0.45 M141.56 9.39 C137.46 5.83, 133.36 2.26, 130.24 -0.45" stroke="#fff5f5" stroke-width="1" fill="none"></path><path d="M0 0 C53.52 0, 107.04 0, 140.87 0 M0 0 C37.89 0, 75.78 0, 140.87 0 M140.87 0 C140.87 47.01, 140.87 94.02, 140.87 140.73 M140.87 0 C140.87 42.45, 140.87 84.9, 140.87 140.73 M140.87 140.73 C108.89 140.73, 76.92 140.73, 0 140.73 M140.87 140.73 C94.01 140.73, 47.16 140.73, 0 140.73 M0 140.73 C0 108.59, 0 76.45, 0 0 M0 140.73 C0 86.15, 0 31.56, 0 0" stroke="#e03131" stroke-width="2" fill="none"></path></g><g stroke-linecap="round"><g transform="translate(107.2531226871588 44.77569998977583) rotate(0 -27.19895938241981 7.950479311998851)" fill-rule="evenodd"><path d="M0 0 L-0.03 -9.41 L-27.64 -19.26 L-54.28 -9.51 L-54.45 22.98 L-27.35 35.16 L0.05 23.08 L0 0" stroke="none" stroke-width="0" fill="#fff5f5" fill-rule="evenodd"></path><path d="M0 0 C-0.01 -3.58, -0.02 -7.15, -0.03 -9.41 M0 0 C-0.01 -2.33, -0.01 -4.66, -0.03 -9.41 M-0.03 -9.41 C-6.21 -11.61, -12.39 -13.82, -27.64 -19.26 M-0.03 -9.41 C-9.92 -12.93, -19.81 -16.46, -27.64 -19.26 M-27.64 -19.26 C-36.27 -16.09, -44.91 -12.93, -54.28 -9.51 M-27.64 -19.26 C-36.08 -16.17, -44.53 -13.07, -54.28 -9.51 M-54.28 -9.51 C-54.32 -2.77, -54.35 3.98, -54.45 22.98 M-54.28 -9.51 C-54.34 1.33, -54.39 12.18, -54.45 22.98 M-54.45 22.98 C-44.34 27.52, -34.22 32.07, -27.35 35.16 M-54.45 22.98 C-48.23 25.77, -42.01 28.57, -27.35 35.16 M-27.35 35.16 C-17.08 30.63, -6.8 26.1, 0.05 23.08 M-27.35 35.16 C-20.33 32.06, -13.31 28.97, 0.05 23.08 M0.05 23.08 C0.04 16.12, 0.02 9.16, 0 0 M0.05 23.08 C0.04 15.83, 0.02 8.59, 0 0 M0 0 C0 0, 0 0, 0 0 M0 0 C0 0, 0 0, 0 0" stroke="#e03131" stroke-width="2" fill="none"></path></g></g><mask></mask><g stroke-linecap="round"><g transform="translate(53.77214106167685 35.78095801646555) rotate(0 13.181919216053508 21.516580350612976)"><path d="M0 0 C8.51 3.41, 17.02 6.82, 26.36 10.56 M0 0 C9.82 3.93, 19.64 7.87, 26.36 10.56 M26.36 10.56 C26.34 17.75, 26.31 24.95, 26.25 43.03 M26.36 10.56 C26.34 18.13, 26.31 25.7, 26.25 43.03" stroke="#e03131" stroke-width="2" fill="none"></path></g></g><mask></mask><g stroke-linecap="round"><g transform="translate(80.05416330473327 46.202868807078175) rotate(0 13.046620989400758 -5.073685940322505)"><path d="M0 0 C5.48 -2.13, 10.96 -4.26, 26.09 -10.15 M0 0 C7.27 -2.83, 14.55 -5.66, 26.09 -10.15" stroke="#e03131" stroke-width="2" fill="none"></path></g></g><mask></mask><g stroke-linecap="round"><g transform="translate(35.656685011482296 97.96151492311719) rotate(0 44.77720106834302 0)"><path d="M0 0 C25.04 0, 50.07 0, 89.55 0 M0 0 C31.43 0, 62.87 0, 89.55 0" stroke="#e03131" stroke-width="2" fill="none"></path></g></g><mask></mask><g stroke-linecap="round"><g transform="translate(125.21108714816819 98.71407292426056) rotate(0 0 5.267906008040354)"><path d="M0 0 C0 2.88, 0 5.76, 0 10.54 M0 0 C0 3.73, 0 7.46, 0 10.54" stroke="#e03131" stroke-width="2" fill="none"></path></g></g><mask></mask><g stroke-linecap="round"><g transform="translate(35.656685011482296 99.46663092541166) rotate(0 0 5.267906008040354)"><path d="M0 0 C0 3.22, 0 6.45, 0 10.54 M0 0 C0 2.79, 0 5.58, 0 10.54" stroke="#e03131" stroke-width="2" fill="none"></path></g></g><mask></mask><g stroke-linecap="round"><g transform="translate(80.05760707925083 91.18849291277502) rotate(0 0 9.783254014932085)"><path d="M0 0 C0 6.54, 0 13.07, 0 19.57 M0 0 C0 5.9, 0 11.8, 0 19.57" stroke="#e03131" stroke-width="2" fill="none"></path></g></g><mask></mask><g stroke-linecap="round" transform="translate(23.615756993104696 111.13127994321167) rotate(0 12.040928018377954 12.040928018377954)"><path d="M0 0 L24.08 0 L24.08 24.08 L0 24.08" stroke="none" stroke-width="0" fill="#fff5f5"></path><path d="M0 0 C5.39 0, 10.79 0, 24.08 0 M0 0 C8.63 0, 17.26 0, 24.08 0 M24.08 0 C24.08 7.81, 24.08 15.62, 24.08 24.08 M24.08 0 C24.08 7.63, 24.08 15.27, 24.08 24.08 M24.08 24.08 C19.08 24.08, 14.09 24.08, 0 24.08 M24.08 24.08 C16.05 24.08, 8.01 24.08, 0 24.08 M0 24.08 C0 15.09, 0 6.1, 0 0 M0 24.08 C0 18.55, 0 13.02, 0 0" stroke="#e03131" stroke-width="2" fill="none"></path></g><g stroke-linecap="round" transform="translate(68.39295806144719 111.13127994321167) rotate(0 12.040928018377954 12.040928018377954)"><path d="M0 0 L24.08 0 L24.08 24.08 L0 24.08" stroke="none" stroke-width="0" fill="#fff5f5"></path><path d="M0 0 C5.34 0, 10.67 0, 24.08 0 M0 0 C5.61 0, 11.23 0, 24.08 0 M24.08 0 C24.08 5.77, 24.08 11.53, 24.08 24.08 M24.08 0 C24.08 6.78, 24.08 13.56, 24.08 24.08 M24.08 24.08 C18.28 24.08, 12.48 24.08, 0 24.08 M24.08 24.08 C18.54 24.08, 13 24.08, 0 24.08 M0 24.08 C0 16.09, 0 8.09, 0 0 M0 24.08 C0 18.46, 0 12.83, 0 0" stroke="#e03131" stroke-width="2" fill="none"></path></g><g stroke-linecap="round" transform="translate(113.17015912979059 111.13127994321167) rotate(0 12.040928018377954 12.040928018377954)"><path d="M0 0 L24.08 0 L24.08 24.08 L0 24.08" stroke="none" stroke-width="0" fill="#fff5f5"></path><path d="M0 0 C5.31 0, 10.62 0, 24.08 0 M0 0 C6.29 0, 12.57 0, 24.08 0 M24.08 0 C24.08 7.85, 24.08 15.71, 24.08 24.08 M24.08 0 C24.08 9.43, 24.08 18.87, 24.08 24.08 M24.08 24.08 C16.6 24.08, 9.13 24.08, 0 24.08 M24.08 24.08 C19.16 24.08, 14.24 24.08, 0 24.08 M0 24.08 C0 17.62, 0 11.17, 0 0 M0 24.08 C0 16.71, 0 9.33, 0 0" stroke="#e03131" stroke-width="2" fill="none"></path></g></svg>