<?xml version="1.0" encoding="UTF-8" standalone="no"?>
<svg
   version="1.1"
   viewBox="0 0 223.7683929358215 123.02025653419491"
   width="223.7683929358215"
   height="123.02025653419491"
   class="excalidraw-svg"
   id="svg8"
   sodipodi:docname="Server.svg"
   inkscape:version="1.4.2 (ebf0e940, 2025-05-08)"
   xmlns:inkscape="http://www.inkscape.org/namespaces/inkscape"
   xmlns:sodipodi="http://sodipodi.sourceforge.net/DTD/sodipodi-0.dtd"
   xmlns="http://www.w3.org/2000/svg"
   xmlns:svg="http://www.w3.org/2000/svg">
  <sodipodi:namedview
     id="namedview8"
     pagecolor="#ffffff"
     bordercolor="#999999"
     borderopacity="1"
     inkscape:showpageshadow="2"
     inkscape:pageopacity="0"
     inkscape:pagecheckerboard="0"
     inkscape:deskcolor="#d1d1d1"
     inkscape:zoom="3.8566663"
     inkscape:cx="111.88419"
     inkscape:cy="61.452037"
     inkscape:current-layer="svg8" />
  <!-- svg-source:excalidraw -->
  <metadata
     id="metadata1" />
  <defs
     id="defs1">
    <style
       class="style-fonts"
       id="style1" />
  </defs>
  <g
     stroke-linecap="round"
     transform="translate(10 10) rotate(0 101.88419646791075 51.51012826709746)"
     id="g2"
     style="stroke:#e03100;stroke-opacity:1;stroke-width:5;stroke-dasharray:10,10;stroke-dashoffset:3;stroke-miterlimit:0;stroke-linecap:round">
    <path
       d="M0 0 C42.94 0, 85.88 0, 203.77 0 M203.77 0 C203.77 30.44, 203.77 60.88, 203.77 103.02 M203.77 103.02 C143.36 103.02, 82.96 103.02, 0 103.02 M0 103.02 C0 71.64, 0 40.26, 0 0"
       stroke="#e03131"
       stroke-width="4.5"
       fill="none"
       stroke-dasharray="8 12"
       id="path2"
       style="stroke:#e03100;stroke-opacity:1;stroke-width:5;stroke-dasharray:10,10;stroke-dashoffset:3;stroke-miterlimit:0;stroke-linecap:round" />
  </g>
  <g
     stroke-linecap="round"
     transform="translate(33.31391407881256 30.090416026122966) rotate(0 78.57028234590516 31.419712076484103)"
     id="g4">
    <path
       d="M0 0 L157.14 0 L157.14 62.84 L0 62.84"
       stroke="none"
       stroke-width="0"
       fill="#ffffff"
       id="path3" />
    <path
       d="M0 0 C47.6 0, 95.21 0, 157.14 0 M0 0 C61.22 0, 122.43 0, 157.14 0 M157.14 0 C157.14 16.13, 157.14 32.26, 157.14 62.84 M157.14 0 C157.14 22.03, 157.14 44.06, 157.14 62.84 M157.14 62.84 C95.73 62.84, 34.32 62.84, 0 62.84 M157.14 62.84 C110.98 62.84, 64.82 62.84, 0 62.84 M0 62.84 C0 49.69, 0 36.54, 0 0 M0 62.84 C0 48.83, 0 34.82, 0 0"
       stroke="#1e1e1e"
       stroke-width="4"
       fill="none"
       id="path4" />
  </g>
  <g
     stroke-linecap="round"
     transform="translate(157.14524030934808 52.006889267778206) rotate(0 9.271969096351896 8.708742430025438)"
     id="g6">
    <path
       d="M18.54 8.71 C18.54 9.21, 18.5 9.72, 18.4 10.22 C18.31 10.72, 18.17 11.21, 17.98 11.69 C17.8 12.16, 17.57 12.63, 17.3 13.06 C17.03 13.5, 16.72 13.92, 16.37 14.31 C16.03 14.69, 15.64 15.06, 15.23 15.38 C14.82 15.7, 14.37 16, 13.91 16.25 C13.44 16.5, 12.95 16.72, 12.44 16.89 C11.94 17.06, 11.41 17.2, 10.88 17.29 C10.35 17.37, 9.81 17.42, 9.27 17.42 C8.74 17.42, 8.19 17.37, 7.66 17.29 C7.13 17.2, 6.61 17.06, 6.1 16.89 C5.6 16.72, 5.1 16.5, 4.64 16.25 C4.17 16, 3.72 15.7, 3.31 15.38 C2.9 15.06, 2.51 14.69, 2.17 14.31 C1.82 13.92, 1.51 13.5, 1.24 13.06 C0.97 12.63, 0.74 12.16, 0.56 11.69 C0.38 11.21, 0.23 10.72, 0.14 10.22 C0.05 9.72, 0 9.21, 0 8.71 C0 8.2, 0.05 7.69, 0.14 7.2 C0.23 6.7, 0.38 6.2, 0.56 5.73 C0.74 5.26, 0.97 4.79, 1.24 4.35 C1.51 3.92, 1.82 3.5, 2.17 3.11 C2.51 2.72, 2.9 2.36, 3.31 2.04 C3.72 1.71, 4.17 1.42, 4.64 1.17 C5.1 0.91, 5.6 0.7, 6.1 0.53 C6.61 0.35, 7.13 0.22, 7.66 0.13 C8.19 0.04, 8.74 0, 9.27 0 C9.81 0, 10.35 0.04, 10.88 0.13 C11.41 0.22, 11.94 0.35, 12.44 0.53 C12.95 0.7, 13.44 0.91, 13.91 1.17 C14.37 1.42, 14.82 1.71, 15.23 2.04 C15.64 2.36, 16.03 2.72, 16.37 3.11 C16.72 3.5, 17.03 3.92, 17.3 4.35 C17.57 4.79, 17.8 5.26, 17.98 5.73 C18.17 6.2, 18.31 6.7, 18.4 7.2 C18.5 7.69, 18.52 8.46, 18.54 8.71 C18.57 8.96, 18.57 8.46, 18.54 8.71"
       stroke="none"
       stroke-width="0"
       fill="#ffffff"
       id="path5" />
    <path
       d="M18.54 8.71 C18.54 9.21, 18.5 9.72, 18.4 10.22 C18.31 10.72, 18.17 11.21, 17.98 11.69 C17.8 12.16, 17.57 12.63, 17.3 13.06 C17.03 13.5, 16.72 13.92, 16.37 14.31 C16.03 14.69, 15.64 15.06, 15.23 15.38 C14.82 15.7, 14.37 16, 13.91 16.25 C13.44 16.5, 12.95 16.72, 12.44 16.89 C11.94 17.06, 11.41 17.2, 10.88 17.29 C10.35 17.37, 9.81 17.42, 9.27 17.42 C8.74 17.42, 8.19 17.37, 7.66 17.29 C7.13 17.2, 6.61 17.06, 6.1 16.89 C5.6 16.72, 5.1 16.5, 4.64 16.25 C4.17 16, 3.72 15.7, 3.31 15.38 C2.9 15.06, 2.51 14.69, 2.17 14.31 C1.82 13.92, 1.51 13.5, 1.24 13.06 C0.97 12.63, 0.74 12.16, 0.56 11.69 C0.38 11.21, 0.23 10.72, 0.14 10.22 C0.05 9.72, 0 9.21, 0 8.71 C0 8.2, 0.05 7.69, 0.14 7.2 C0.23 6.7, 0.38 6.2, 0.56 5.73 C0.74 5.26, 0.97 4.79, 1.24 4.35 C1.51 3.92, 1.82 3.5, 2.17 3.11 C2.51 2.72, 2.9 2.36, 3.31 2.04 C3.72 1.71, 4.17 1.42, 4.64 1.17 C5.1 0.91, 5.6 0.7, 6.1 0.53 C6.61 0.35, 7.13 0.22, 7.66 0.13 C8.19 0.04, 8.74 0, 9.27 0 C9.81 0, 10.35 0.04, 10.88 0.13 C11.41 0.22, 11.94 0.35, 12.44 0.53 C12.95 0.7, 13.44 0.91, 13.91 1.17 C14.37 1.42, 14.82 1.71, 15.23 2.04 C15.64 2.36, 16.03 2.72, 16.37 3.11 C16.72 3.5, 17.03 3.92, 17.3 4.35 C17.57 4.79, 17.8 5.26, 17.98 5.73 C18.17 6.2, 18.31 6.7, 18.4 7.2 C18.5 7.69, 18.52 8.46, 18.54 8.71 C18.57 8.96, 18.57 8.46, 18.54 8.71"
       stroke="#1e1e1e"
       stroke-width="4"
       fill="none"
       id="path6" />
  </g>
  <g
     stroke-linecap="round"
     transform="translate(43.97249507426386 58.80929323496821) rotate(0 44.239035112704464 1.906338425395063)"
     id="g8">
    <path
       d="M0 0 L88.48 0 L88.48 3.81 L0 3.81"
       stroke="none"
       stroke-width="0"
       fill="#1e1e1e"
       id="path7" />
    <path
       d="M0 0 C19.6 0, 39.2 0, 88.48 0 M0 0 C22.68 0, 45.35 0, 88.48 0 M88.48 0 C88.48 0.77, 88.48 1.54, 88.48 3.81 M88.48 0 C88.48 1.3, 88.48 2.6, 88.48 3.81 M88.48 3.81 C53.46 3.81, 18.44 3.81, 0 3.81 M88.48 3.81 C70.23 3.81, 51.99 3.81, 0 3.81 M0 3.81 C0 2.83, 0 1.85, 0 0 M0 3.81 C0 2.85, 0 1.89, 0 0"
       stroke="#1e1e1e"
       stroke-width="4"
       fill="none"
       id="path8" />
  </g>
</svg>
