<svg version="1.1" xmlns="http://www.w3.org/2000/svg" viewBox="0 0 160.86777321740033 160.86777321740033" width="160.86777321740033" height="160.86777321740033" class="excalidraw-svg"><!-- svg-source:excalidraw --><metadata></metadata><defs><style class="style-fonts">
      </style></defs><g stroke-linecap="round" transform="translate(10 10) rotate(0 70.43388660870016 70.43388660870016)"><path d="M0 0 C0 0, 0 0, 0 0 M0 0 C0 0, 0 0, 0 0 M0.13 12.04 C2.78 8.99, 5.43 5.94, 10.63 -0.03 M0.13 12.04 C3.63 8.02, 7.12 4, 10.63 -0.03 M0.27 24.08 C8.6 14.49, 16.94 4.9, 21.26 -0.07 M0.27 24.08 C7.14 16.18, 14.01 8.27, 21.26 -0.07 M-0.26 36.88 C6.52 29.08, 13.3 21.28, 31.89 -0.1 M-0.26 36.88 C6.22 29.43, 12.7 21.97, 31.89 -0.1 M-0.12 48.92 C15.24 31.24, 30.61 13.56, 42.52 -0.14 M-0.12 48.92 C14.32 32.3, 28.77 15.68, 42.52 -0.14 M0.01 60.96 C20.86 36.98, 41.71 12.99, 53.15 -0.17 M0.01 60.96 C11.05 48.26, 22.08 35.57, 53.15 -0.17 M0.14 73 C22.58 47.19, 45.01 21.38, 63.78 -0.21 M0.14 73 C15.63 55.19, 31.11 37.37, 63.78 -0.21 M0.28 85.04 C15.45 67.59, 30.62 50.13, 74.41 -0.24 M0.28 85.04 C24.64 57.01, 49.01 28.98, 74.41 -0.24 M-0.25 97.84 C20.97 73.43, 42.19 49.02, 85.04 -0.28 M-0.25 97.84 C23.28 70.77, 46.81 43.7, 85.04 -0.28 M-0.11 109.88 C32.48 72.38, 65.08 34.88, 95.67 -0.31 M-0.11 109.88 C29.33 76.01, 58.77 42.14, 95.67 -0.31 M0.02 121.92 C32.82 84.18, 65.62 46.45, 106.3 -0.34 M0.02 121.92 C35.85 80.7, 71.68 39.48, 106.3 -0.34 M0.15 133.96 C43.81 83.74, 87.46 33.52, 116.27 0.38 M0.15 133.96 C29.43 100.28, 58.71 66.6, 116.27 0.38 M4.22 141.47 C50.34 88.41, 96.47 35.36, 126.91 0.34 M4.22 141.47 C52.47 85.96, 100.72 30.46, 126.91 0.34 M14.85 141.44 C60.57 88.85, 106.28 36.26, 137.54 0.31 M14.85 141.44 C43.93 107.98, 73.01 74.53, 137.54 0.31 M25.48 141.4 C57.88 104.13, 90.28 66.86, 141.6 7.82 M25.48 141.4 C57.56 104.5, 89.65 67.59, 141.6 7.82 M36.11 141.37 C65.07 108.06, 94.02 74.75, 141.08 20.61 M36.11 141.37 C67.79 104.92, 99.48 68.48, 141.08 20.61 M46.74 141.33 C68.51 116.29, 90.29 91.24, 141.21 32.66 M46.74 141.33 C73.53 110.52, 100.32 79.7, 141.21 32.66 M57.37 141.3 C83.86 110.83, 110.35 80.36, 141.35 44.7 M57.37 141.3 C78.52 116.98, 99.66 92.65, 141.35 44.7 M68 141.26 C84.71 122.05, 101.41 102.83, 141.48 56.74 M68 141.26 C95.8 109.29, 123.6 77.31, 141.48 56.74 M78.63 141.23 C91.58 126.34, 104.53 111.44, 141.61 68.78 M78.63 141.23 C94.87 122.55, 111.12 103.86, 141.61 68.78 M89.26 141.2 C102.27 126.23, 115.28 111.26, 141.09 81.57 M89.26 141.2 C109.44 117.99, 129.62 94.78, 141.09 81.57 M99.89 141.16 C114.15 124.76, 128.4 108.37, 141.22 93.61 M99.89 141.16 C110.5 128.96, 121.11 116.75, 141.22 93.61 M110.52 141.13 C118.76 131.65, 127.01 122.16, 141.36 105.66 M110.52 141.13 C117.02 133.65, 123.53 126.17, 141.36 105.66 M121.15 141.09 C125.55 136.03, 129.95 130.97, 141.49 117.7 M121.15 141.09 C128.28 132.89, 135.41 124.7, 141.49 117.7 M131.78 141.06 C134.01 138.5, 136.24 135.93, 141.62 129.74 M131.78 141.06 C133.78 138.76, 135.78 136.46, 141.62 129.74 M-0.32 140.59 C-0.32 140.59, -0.32 140.59, -0.32 140.59 M-0.32 140.59 C-0.32 140.59, -0.32 140.59, -0.32 140.59 M12.48 141.12 C9.11 138.19, 5.74 135.26, -0.35 129.96 M12.48 141.12 C7.46 136.75, 2.44 132.39, -0.35 129.96 M24.52 140.98 C17.05 134.49, 9.59 128, 0.37 119.99 M24.52 140.98 C18.26 135.54, 11.99 130.09, 0.37 119.99 M36.56 140.85 C25.88 131.56, 15.19 122.27, 0.34 109.36 M36.56 140.85 C26.88 132.43, 17.19 124.01, 0.34 109.36 M48.6 140.72 C33.22 127.35, 17.84 113.98, 0.3 98.73 M48.6 140.72 C33.76 127.82, 18.92 114.92, 0.3 98.73 M60.64 140.58 C46.95 128.68, 33.25 116.77, 0.27 88.1 M60.64 140.58 C37.24 120.24, 13.83 99.89, 0.27 88.1 M73.44 141.11 C56.21 126.13, 38.98 111.15, 0.23 77.47 M73.44 141.11 C50.38 121.06, 27.31 101.01, 0.23 77.47 M85.48 140.97 C56 115.34, 26.51 89.71, 0.2 66.84 M85.48 140.97 C53.51 113.18, 21.54 85.39, 0.2 66.84 M97.52 140.84 C62 109.96, 26.48 79.08, 0.16 56.21 M97.52 140.84 C76.78 122.81, 56.03 104.77, 0.16 56.21 M109.56 140.71 C74.14 109.91, 38.71 79.12, 0.13 45.58 M109.56 140.71 C74.86 110.54, 40.15 80.37, 0.13 45.58 M121.6 140.57 C85.63 109.3, 49.65 78.03, 0.09 34.95 M121.6 140.57 C85.47 109.17, 49.34 77.76, 0.09 34.95 M134.4 141.1 C105.22 115.73, 76.04 90.37, 0.06 24.32 M134.4 141.1 C84.94 98.1, 35.48 55.11, 0.06 24.32 M141.16 136.37 C98.44 99.24, 55.73 62.11, 0.03 13.69 M141.16 136.37 C108.78 108.23, 76.41 80.09, 0.03 13.69 M141.12 125.74 C103.45 92.99, 65.77 60.24, -0.01 3.06 M141.12 125.74 C92.1 83.13, 43.07 40.51, -0.01 3.06 M141.09 115.11 C95.6 75.57, 50.1 36.02, 8.26 -0.35 M141.09 115.11 C109.69 87.82, 78.29 60.52, 8.26 -0.35 M141.05 104.48 C105.06 73.19, 69.06 41.9, 20.3 -0.49 M141.05 104.48 C100.02 68.82, 59 33.15, 20.3 -0.49 M141.02 93.85 C112.99 69.48, 84.95 45.11, 32.34 -0.62 M141.02 93.85 C107.2 64.45, 73.38 35.05, 32.34 -0.62 M140.98 83.22 C110.05 56.33, 79.12 29.45, 44.38 -0.75 M140.98 83.22 C112.39 58.37, 83.8 33.51, 44.38 -0.75 M140.95 72.59 C109.47 45.23, 78 17.87, 57.18 -0.23 M140.95 72.59 C123.17 57.13, 105.38 41.67, 57.18 -0.23 M140.91 61.96 C117.46 41.58, 94.01 21.19, 69.22 -0.36 M140.91 61.96 C124.26 47.48, 107.6 33.01, 69.22 -0.36 M140.88 51.33 C122.58 35.42, 104.28 19.52, 81.26 -0.5 M140.88 51.33 C125.16 37.67, 109.44 24, 81.26 -0.5 M141.6 41.36 C127.25 28.88, 112.9 16.41, 93.3 -0.63 M141.6 41.36 C130.46 31.68, 119.33 22, 93.3 -0.63 M141.57 30.73 C129 19.8, 116.43 8.87, 105.34 -0.76 M141.57 30.73 C128.7 19.55, 115.84 8.36, 105.34 -0.76 M141.53 20.1 C132.34 12.11, 123.15 4.12, 118.14 -0.24 M141.53 20.1 C135.96 15.25, 130.38 10.4, 118.14 -0.24 M141.5 9.47 C138.38 6.75, 135.25 4.04, 130.18 -0.37 M141.5 9.47 C137.63 6.1, 133.76 2.74, 130.18 -0.37" stroke="#fff5f5" stroke-width="1" fill="none"></path><path d="M0 0 C41.55 0, 83.09 0, 140.87 0 M0 0 C40.16 0, 80.32 0, 140.87 0 M140.87 0 C140.87 55.58, 140.87 111.16, 140.87 140.87 M140.87 0 C140.87 46.2, 140.87 92.41, 140.87 140.87 M140.87 140.87 C87.54 140.87, 34.21 140.87, 0 140.87 M140.87 140.87 C88.55 140.87, 36.24 140.87, 0 140.87 M0 140.87 C0 85.45, 0 30.03, 0 0 M0 140.87 C0 85.87, 0 30.88, 0 0" stroke="#e03131" stroke-width="2" fill="none"></path></g><g stroke-linecap="round"><g transform="translate(24.914558384435622 76.28213272141261) rotate(0 28.28382335715625 -25.68897717760065)"><path d="M0 0 C0 -19.35, 0 -38.71, 0 -51.38 M0 0 C0 -16.84, 0 -33.68, 0 -51.38 M0 -51.38 C6.93 -51.38, 13.85 -51.38, 33.73 -51.38 M0 -51.38 C12.32 -51.38, 24.63 -51.38, 33.73 -51.38 M33.73 -51.38 C41.78 -43.69, 49.83 -36.01, 56.57 -29.58 M33.73 -51.38 C42.79 -42.74, 51.84 -34.09, 56.57 -29.58 M56.57 -29.58 C56.57 -27.31, 56.57 -25.03, 56.57 -21.8 M56.57 -29.58 C56.57 -26.63, 56.57 -23.68, 56.57 -21.8" stroke="#e03131" stroke-width="2" fill="none"></path></g></g><mask></mask><g stroke-linecap="round"><g transform="translate(24.914558384435622 90.81327132692331) rotate(0 15.050107841422601 9.34144624640026)"><path d="M0 0 C0 5.03, 0 10.07, 0 18.68 M0 0 C0 3.77, 0 7.55, 0 18.68 M0 18.68 C6.71 18.68, 13.42 18.68, 30.1 18.68 M0 18.68 C11.81 18.68, 23.62 18.68, 30.1 18.68" stroke="#e03131" stroke-width="2" fill="none"></path></g></g><mask></mask><g stroke-linecap="round"><g transform="translate(32.15936765074002 63.30790182363489) rotate(0 7.784538538666851 -2.4158453015843406e-13)"><path d="M0 0 C4.12 0, 8.24 0, 15.57 0 M0 0 C4.65 0, 9.3 0, 15.57 0" stroke="#e03131" stroke-width="2" fill="none"></path></g></g><mask></mask><g stroke-linecap="round"><g transform="translate(32.15936765074002 86.66151743963314) rotate(0 14.271653987555908 0)"><path d="M0 0 C5.97 0, 11.95 0, 28.54 0 M0 0 C6.24 0, 12.48 0, 28.54 0" stroke="#e03131" stroke-width="2" fill="none"></path></g></g><mask></mask><g stroke-linecap="round"><g transform="translate(54.994014030829476 63.30790182363489) rotate(0 4.411238505244569 0)"><path d="M0 0 C2.97 0, 5.94 0, 8.82 0 M0 0 C2.13 0, 4.27 0, 8.82 0" stroke="#e03131" stroke-width="2" fill="none"></path></g></g><mask></mask><g stroke-linecap="round"><g transform="translate(32.15936765074002 76.54161733936712) rotate(0 20.758769436444936 0)"><path d="M0 0 C12.4 0, 24.79 0, 41.52 0 M0 0 C16.48 0, 32.96 0, 41.52 0" stroke="#e03131" stroke-width="2" fill="none"></path></g></g><mask></mask><g stroke-linecap="round"><g transform="translate(81.46144506229666 76.54161733936712) rotate(0 5.968146212977928 0)"><path d="M0 0 C4.71 0, 9.42 0, 11.94 0 M0 0 C3.92 0, 7.83 0, 11.94 0" stroke="#e03131" stroke-width="2" fill="none"></path></g></g><mask></mask><g stroke-linecap="round"><g transform="translate(115.19444539651977 126.62214860479048) rotate(0 10.379384718222497 -1.2974230897779009)"><path d="M0 0 C4.26 1.92, 8.53 3.84, 20.76 9.34 M0 0 C7.58 3.41, 15.16 6.82, 20.76 9.34 M20.76 9.34 C17.1 1.84, 13.44 -5.66, 10.38 -11.94 M20.76 9.34 C16.64 0.91, 12.53 -7.53, 10.38 -11.94" stroke="#e03131" stroke-width="2" fill="none"></path></g></g><mask></mask><g stroke-linecap="round"><g transform="translate(81.98041429820796 65.38377876727895) rotate(0 24.39155408782284 23.353615616000518)"><path d="M0 0 C1.38 -0.43, 5.28 -2.16, 8.3 -2.59 C11.33 -3.03, 14.96 -2.94, 18.16 -2.59 C21.36 -2.25, 25 -1.3, 27.51 -0.52 C30.01 0.26, 31.31 0.86, 33.21 2.08 C35.12 3.29, 37.28 5.1, 38.92 6.75 C40.57 8.39, 41.6 9.6, 43.07 11.94 C44.54 14.27, 46.79 17.9, 47.75 20.76 C48.7 23.61, 48.7 26.21, 48.78 29.06 C48.87 31.92, 48.61 35.46, 48.26 37.88 C47.92 40.31, 47.4 41.69, 46.71 43.59 C46.02 45.5, 44.54 48.35, 44.11 49.3 M0 0 C1.38 -0.43, 5.28 -2.16, 8.3 -2.59 C11.33 -3.03, 14.96 -2.94, 18.16 -2.59 C21.36 -2.25, 25 -1.3, 27.51 -0.52 C30.01 0.26, 31.31 0.86, 33.21 2.08 C35.12 3.29, 37.28 5.1, 38.92 6.75 C40.57 8.39, 41.6 9.6, 43.07 11.94 C44.54 14.27, 46.79 17.9, 47.75 20.76 C48.7 23.61, 48.7 26.21, 48.78 29.06 C48.87 31.92, 48.61 35.46, 48.26 37.88 C47.92 40.31, 47.4 41.69, 46.71 43.59 C46.02 45.5, 44.54 48.35, 44.11 49.3" stroke="#e03131" stroke-width="2" fill="none"></path></g></g><mask></mask><g stroke-linecap="round"><g transform="translate(65.09027752154816 103.2616061292847) rotate(173.29016319224323 24.39155408782284 13.233715515733472)"><path d="M0 0 C1.38 -0.43, 5.28 -2.16, 8.3 -2.59 C11.33 -3.03, 14.96 -2.94, 18.16 -2.59 C21.36 -2.25, 25 -1.3, 27.51 -0.52 C30.01 0.26, 31.31 0.86, 33.21 2.08 C35.12 3.29, 37.28 5.1, 38.92 6.75 C40.57 8.39, 41.6 9.6, 43.07 11.94 C44.54 14.27, 46.79 17.9, 47.75 20.76 C48.7 23.61, 48.61 27.68, 48.78 29.06 M0 0 C1.38 -0.43, 5.28 -2.16, 8.3 -2.59 C11.33 -3.03, 14.96 -2.94, 18.16 -2.59 C21.36 -2.25, 25 -1.3, 27.51 -0.52 C30.01 0.26, 31.31 0.86, 33.21 2.08 C35.12 3.29, 37.28 5.1, 38.92 6.75 C40.57 8.39, 41.6 9.6, 43.07 11.94 C44.54 14.27, 46.79 17.9, 47.75 20.76 C48.7 23.61, 48.61 27.68, 48.78 29.06" stroke="#e03131" stroke-width="2" fill="none"></path></g></g><mask></mask><g stroke-linecap="round"><g transform="translate(82.4993835341188 88.21842514736818) rotate(0 0 8.822477010489145)"><path d="M0 0 C0 2.94, 0 14.7, 0 17.64 M0 0 C0 2.94, 0 14.7, 0 17.64" stroke="#e03131" stroke-width="2" fill="none"></path></g></g><mask></mask><g stroke-linecap="round"><g transform="translate(95.47361443189675 88.21842514736636) rotate(0 0 8.822477010489145)"><path d="M0 0 C0 2.94, 0 14.7, 0 17.64 M0 0 C0 2.94, 0 14.7, 0 17.64" stroke="#e03131" stroke-width="2" fill="none"></path></g></g><mask></mask><g stroke-linecap="round"><g transform="translate(101.70124526283007 86.66151743963314) rotate(0 0 9.860415482311367)"><path d="M0 0 C0 5.04, 0 10.08, 0 19.72 M0 0 C0 6.44, 0 12.89, 0 19.72" stroke="#e03131" stroke-width="2" fill="none"></path></g></g><mask></mask><g stroke-linecap="round"><g transform="translate(107.92887609376339 84.06667126007801) rotate(0 0 13.49320013368915)"><path d="M0 0 C0 10.22, 0 20.43, 0 26.99 M0 0 C0 10.02, 0 20.04, 0 26.99" stroke="#e03131" stroke-width="2" fill="none"></path></g></g><mask></mask><g stroke-linecap="round"><g transform="translate(86.6511374214083 93.40811750647845) rotate(0 0 3.892269269333461)"><path d="M0 0 C0 2.74, 0 5.49, 0 7.78 M0 0 C0 3.09, 0 6.17, 0 7.78" stroke="#e03131" stroke-width="2" fill="none"></path></g></g><mask></mask><g stroke-linecap="round"><g transform="translate(89.26674363741449 93.12787285207196) rotate(0 0 3.892269269333461)"><path d="M0 0 C0 2.53, 0 5.06, 0 7.78 M0 0 C0 2.26, 0 4.51, 0 7.78" stroke="#e03131" stroke-width="2" fill="none"></path></g></g><mask></mask><g stroke-linecap="round"><g transform="translate(112.59959921696372 90.29430209101247) rotate(0 0 7.525053920711244)"><path d="M0 0 C0 3.09, 0 6.19, 0 15.05 M0 0 C0 3.66, 0 7.33, 0 15.05" stroke="#e03131" stroke-width="2" fill="none"></path></g></g><mask></mask><g stroke-linecap="round"><g transform="translate(116.19086379543978 89.95177732725188) rotate(0 0 7.525053920711244)"><path d="M0 0 C0 4.45, 0 8.9, 0 15.05 M0 0 C0 3.34, 0 6.68, 0 15.05" stroke="#e03131" stroke-width="2" fill="none"></path></g></g><mask></mask><g stroke-linecap="round"><g transform="translate(58.107829446296364 24.904178366210544) rotate(0 11.417323190044698 11.15783857208902)"><path d="M0 0 C0 7.18, 0 14.37, 0 22.32 M0 0 C0 5.17, 0 10.34, 0 22.32 M0 22.32 C8.58 22.32, 17.16 22.32, 22.83 22.32 M0 22.32 C4.63 22.32, 9.25 22.32, 22.83 22.32" stroke="#e03131" stroke-width="2" fill="none"></path></g></g><mask></mask></svg>