<?xml version="1.0" encoding="utf-8"?>
<!-- Generator: Adobe Illustrator 26.5.0, SVG Export Plug-In . SVG Version: 6.00 Build 0)  -->
<svg version="1.1" id="Layer_1" xmlns="http://www.w3.org/2000/svg" xmlns:xlink="http://www.w3.org/1999/xlink" x="0px" y="0px"
	 viewBox="0 0 512 512" style="enable-background:new 0 0 512 512;" xml:space="preserve">
<style type="text/css">
	.st0{fill:#B80017;}
</style>
<g id="XMLID_1_">
	<path id="XMLID_3_" d="M293.29,0.43c113.9-6.87,204.09,67.05,210.82,181.51c7.57,130.17-96.22,263.7-231.86,298.21
		c-46.99,11.78-90.89,10.52-129.05-1.54c-2.81-51.34,7.29-104.92,29.32-142.37c35.91-61.02,90.19-55.83,121.33,11.64
		c11.78,25.39,18.52,55.83,20.48,87.39c10.8-5.75,21.46-12.2,31.42-19.22c-33.66-81.64-48.67-178.14,71.82-347.87
		c-35.07-28.05-88.93-41.66-156.12-32.96C271.41,23.44,281.93,11.94,293.29,0.43L293.29,0.43z"/>
	<path id="XMLID_6_" class="st0" d="M265.52,138.6c-9.82,20.48-5.89,37.31,8.7,37.73c14.45,0.28,34.23-16.13,43.9-36.75
		c9.82-20.48,5.89-37.31-8.7-37.73C294.97,101.57,275.34,118.12,265.52,138.6z M255.7,80.39
		C153.86,205.23,110.66,367.38,116.69,511.99C56.52,488.01,12.47,429.94,7.99,356.44v-0.84C0.41,225.28,104.35,91.75,240.13,57.24
		c52.74-13.33,102.54-9.82,144.2,7.29c-8.7,24.69-23.14,52.88-37.45,74.2c-30.02,44.61-73.22,72.8-96.36,62.98
		c-23.14-9.96-17.53-54.28,12.62-98.89c6.87-10.24,14.59-19.78,22.58-28.05C275.62,76.04,265.66,78,255.7,80.39L255.7,80.39z"/>
</g>
</svg>
