<svg version="1.1" xmlns="http://www.w3.org/2000/svg" viewBox="0 0 159.03423940528478 159.03423940528484" width="159.03423940528478" height="159.03423940528484" class="excalidraw-svg"><!-- svg-source:excalidraw --><metadata></metadata><defs><style class="style-fonts">
      </style></defs><g stroke-linecap="round" transform="translate(10 10) rotate(0 69.51711970264239 69.51711970264242)"><path d="M0 0 C0 0, 0 0, 0 0 M0 0 C0 0, 0 0, 0 0 M0.13 12.04 C2.64 9.15, 5.15 6.27, 10.63 -0.03 M0.13 12.04 C3.5 8.16, 6.88 4.28, 10.63 -0.03 M0.27 24.08 C4.52 19.19, 8.77 14.3, 21.26 -0.07 M0.27 24.08 C8.02 15.17, 15.76 6.25, 21.26 -0.07 M-0.26 36.88 C9.31 25.87, 18.87 14.87, 31.89 -0.1 M-0.26 36.88 C8.75 26.51, 17.77 16.15, 31.89 -0.1 M-0.12 48.92 C9.82 37.48, 19.76 26.04, 42.52 -0.14 M-0.12 48.92 C15.09 31.42, 30.29 13.93, 42.52 -0.14 M0.01 60.96 C18.17 40.07, 36.34 19.17, 53.15 -0.17 M0.01 60.96 C13.91 44.97, 27.81 28.98, 53.15 -0.17 M0.14 73 C16.67 53.99, 33.19 34.98, 63.78 -0.21 M0.14 73 C15.33 55.53, 30.52 38.06, 63.78 -0.21 M0.28 85.04 C15.73 67.27, 31.18 49.49, 74.41 -0.24 M0.28 85.04 C24.79 56.84, 49.3 28.64, 74.41 -0.24 M-0.25 97.84 C23.33 70.72, 46.9 43.6, 85.04 -0.28 M-0.25 97.84 C33.7 58.78, 67.65 19.72, 85.04 -0.28 M-0.11 109.88 C28.59 76.86, 57.29 43.84, 95.67 -0.31 M-0.11 109.88 C32.25 72.65, 64.61 35.42, 95.67 -0.31 M0.02 121.92 C36.52 79.93, 73.03 37.93, 106.3 -0.34 M0.02 121.92 C32.14 84.96, 64.27 48.01, 106.3 -0.34 M0.15 133.96 C44.66 82.75, 89.18 31.55, 116.27 0.38 M0.15 133.96 C37.03 91.53, 73.91 49.11, 116.27 0.38 M6.19 139.21 C52.84 85.54, 99.49 31.88, 126.91 0.34 M6.19 139.21 C42.76 97.14, 79.32 55.08, 126.91 0.34 M16.82 139.17 C64.24 84.62, 111.66 30.07, 137.54 0.31 M16.82 139.17 C51.68 99.07, 86.55 58.96, 137.54 0.31 M26.79 139.89 C71.29 88.71, 115.78 37.52, 138.98 10.84 M26.79 139.89 C53.28 109.42, 79.77 78.95, 138.98 10.84 M37.42 139.86 C60.53 113.27, 83.65 86.69, 139.11 22.88 M37.42 139.86 C63.33 110.06, 89.23 80.26, 139.11 22.88 M48.05 139.82 C69.11 115.61, 90.16 91.39, 139.25 34.92 M48.05 139.82 C68.33 116.5, 88.61 93.18, 139.25 34.92 M58.68 139.79 C87.04 107.18, 115.39 74.56, 139.38 46.96 M58.68 139.79 C75.07 120.94, 91.46 102.09, 139.38 46.96 M69.31 139.76 C84.04 122.82, 98.76 105.88, 138.86 59.76 M69.31 139.76 C87.84 118.44, 106.37 97.13, 138.86 59.76 M79.94 139.72 C103.29 112.87, 126.63 86.01, 138.99 71.8 M79.94 139.72 C98 118.95, 116.06 98.18, 138.99 71.8 M90.57 139.69 C106.46 121.41, 122.35 103.13, 139.12 83.84 M90.57 139.69 C103.08 125.3, 115.58 110.92, 139.12 83.84 M101.2 139.65 C114.72 124.1, 128.24 108.55, 139.26 95.88 M101.2 139.65 C113.36 125.67, 125.51 111.7, 139.26 95.88 M111.83 139.62 C118.21 132.29, 124.58 124.95, 139.39 107.92 M111.83 139.62 C122.01 127.91, 132.19 116.21, 139.39 107.92 M122.47 139.58 C128.91 132.17, 135.34 124.77, 138.87 120.71 M122.47 139.58 C128.77 132.33, 135.08 125.08, 138.87 120.71 M133.1 139.55 C134.53 137.9, 135.97 136.24, 139 132.76 M133.1 139.55 C134.63 137.78, 136.16 136.02, 139 132.76 M-0.16 138.89 C-0.16 138.89, -0.16 138.89, -0.16 138.89 M-0.16 138.89 C-0.16 138.89, -0.16 138.89, -0.16 138.89 M11.88 138.76 C7.68 135.11, 3.48 131.45, -0.2 128.26 M11.88 138.76 C8.61 135.92, 5.34 133.07, -0.2 128.26 M24.67 139.28 C15.35 131.18, 6.03 123.08, -0.23 117.63 M24.67 139.28 C15.85 131.61, 7.03 123.94, -0.23 117.63 M36.72 139.15 C22.06 126.41, 7.41 113.67, -0.27 107 M36.72 139.15 C28.22 131.76, 19.72 124.37, -0.27 107 M48.76 139.02 C35.53 127.52, 22.29 116.01, -0.3 96.37 M48.76 139.02 C35.88 127.82, 23 116.63, -0.3 96.37 M60.8 138.88 C42.19 122.71, 23.59 106.54, -0.33 85.74 M60.8 138.88 C45.67 125.73, 30.54 112.58, -0.33 85.74 M72.84 138.75 C47.57 116.78, 22.3 94.82, -0.37 75.11 M72.84 138.75 C56.07 124.17, 39.3 109.59, -0.37 75.11 M85.63 139.27 C63.97 120.44, 42.31 101.61, 0.35 65.14 M85.63 139.27 C58.4 115.6, 31.17 91.93, 0.35 65.14 M97.67 139.14 C59.67 106.1, 21.66 73.06, 0.32 54.51 M97.67 139.14 C66.84 112.33, 36 85.53, 0.32 54.51 M109.72 139.01 C77.66 111.14, 45.61 83.28, 0.28 43.88 M109.72 139.01 C74.13 108.07, 38.55 77.14, 0.28 43.88 M121.76 138.87 C77.94 100.79, 34.12 62.7, 0.25 33.25 M121.76 138.87 C76.5 99.53, 31.24 60.19, 0.25 33.25 M133.8 138.74 C89.17 99.95, 44.54 61.15, 0.21 22.62 M133.8 138.74 C103.17 112.12, 72.55 85.5, 0.21 22.62 M139.8 133.36 C87.19 87.63, 34.58 41.9, 0.18 11.99 M139.8 133.36 C108.01 105.73, 76.23 78.1, 0.18 11.99 M139.77 122.73 C90.02 79.48, 40.27 36.24, 0.14 1.36 M139.77 122.73 C100.65 88.73, 61.54 54.73, 0.14 1.36 M139.73 112.1 C97.72 75.58, 55.71 39.06, 10.68 -0.09 M139.73 112.1 C101.26 78.66, 62.79 45.21, 10.68 -0.09 M139.7 101.47 C115.83 80.73, 91.97 59.98, 22.72 -0.22 M139.7 101.47 C115.04 80.03, 90.38 58.6, 22.72 -0.22 M139.66 90.84 C112.49 67.22, 85.32 43.6, 34.76 -0.35 M139.66 90.84 C99.39 55.83, 59.11 20.82, 34.76 -0.35 M139.63 80.21 C103.98 49.22, 68.34 18.24, 47.55 0.17 M139.63 80.21 C117.66 61.12, 95.7 42.02, 47.55 0.17 M139.59 69.58 C107.99 42.1, 76.38 14.63, 59.59 0.04 M139.59 69.58 C118.02 50.83, 96.45 32.07, 59.59 0.04 M139.56 58.95 C120.45 42.34, 101.34 25.73, 71.63 -0.1 M139.56 58.95 C121.55 43.29, 103.54 27.64, 71.63 -0.1 M139.52 48.32 C121.81 32.92, 104.1 17.52, 83.68 -0.23 M139.52 48.32 C121.42 32.58, 103.31 16.84, 83.68 -0.23 M139.49 37.69 C125.14 25.21, 110.78 12.73, 95.72 -0.36 M139.49 37.69 C127.38 27.16, 115.28 16.64, 95.72 -0.36 M139.46 27.06 C127.87 16.99, 116.29 6.92, 108.51 0.16 M139.46 27.06 C130.15 18.97, 120.84 10.87, 108.51 0.16 M139.42 16.43 C135.01 12.6, 130.6 8.76, 120.55 0.03 M139.42 16.43 C132.94 10.8, 126.46 5.16, 120.55 0.03 M139.39 5.8 C137.48 4.14, 135.57 2.48, 132.59 -0.11 M139.39 5.8 C137.1 3.81, 134.81 1.82, 132.59 -0.11" stroke="#fff5f5" stroke-width="1" fill="none"></path><path d="M0 0 C45.44 0, 90.89 0, 139.03 0 M0 0 C29.11 0, 58.21 0, 139.03 0 M139.03 0 C139.03 50.26, 139.03 100.52, 139.03 139.03 M139.03 0 C139.03 45.62, 139.03 91.25, 139.03 139.03 M139.03 139.03 C100.14 139.03, 61.24 139.03, 0 139.03 M139.03 139.03 C87.94 139.03, 36.85 139.03, 0 139.03 M0 139.03 C0 97.95, 0 56.86, 0 0 M0 139.03 C0 96.93, 0 54.83, 0 0" stroke="#e03131" stroke-width="2" fill="none"></path></g><g stroke-linecap="round" transform="translate(99.46206913480864 28.025458923953124) rotate(0 15.411253962179842 15.411253962179849)"><path d="M30.82 15.41 C30.82 16.3, 30.74 17.21, 30.59 18.09 C30.43 18.97, 30.2 19.84, 29.89 20.68 C29.59 21.52, 29.2 22.34, 28.76 23.12 C28.31 23.89, 27.79 24.63, 27.22 25.32 C26.64 26, 26 26.64, 25.32 27.22 C24.63 27.79, 23.89 28.31, 23.12 28.76 C22.34 29.2, 21.52 29.59, 20.68 29.89 C19.84 30.2, 18.97 30.43, 18.09 30.59 C17.21 30.74, 16.3 30.82, 15.41 30.82 C14.52 30.82, 13.61 30.74, 12.74 30.59 C11.86 30.43, 10.98 30.2, 10.14 29.89 C9.3 29.59, 8.48 29.2, 7.71 28.76 C6.93 28.31, 6.19 27.79, 5.51 27.22 C4.82 26.64, 4.18 26, 3.61 25.32 C3.03 24.63, 2.51 23.89, 2.06 23.12 C1.62 22.34, 1.23 21.52, 0.93 20.68 C0.62 19.84, 0.39 18.97, 0.23 18.09 C0.08 17.21, 0 16.3, 0 15.41 C0 14.52, 0.08 13.61, 0.23 12.74 C0.39 11.86, 0.62 10.98, 0.93 10.14 C1.23 9.3, 1.62 8.48, 2.06 7.71 C2.51 6.93, 3.03 6.19, 3.61 5.51 C4.18 4.82, 4.82 4.18, 5.51 3.61 C6.19 3.03, 6.93 2.51, 7.71 2.06 C8.48 1.62, 9.3 1.23, 10.14 0.93 C10.98 0.62, 11.86 0.39, 12.74 0.23 C13.61 0.08, 14.52 0, 15.41 0 C16.3 0, 17.21 0.08, 18.09 0.23 C18.97 0.39, 19.84 0.62, 20.68 0.93 C21.52 1.23, 22.34 1.62, 23.12 2.06 C23.89 2.51, 24.63 3.03, 25.32 3.61 C26 4.18, 26.64 4.82, 27.22 5.51 C27.79 6.19, 28.31 6.93, 28.76 7.71 C29.2 8.48, 29.59 9.3, 29.89 10.14 C30.2 10.98, 30.43 11.86, 30.59 12.74 C30.74 13.61, 30.78 14.97, 30.82 15.41 C30.86 15.86, 30.86 14.97, 30.82 15.41" stroke="none" stroke-width="0" fill="#fff5f5"></path><path d="M30.82 15.41 C30.82 16.3, 30.74 17.21, 30.59 18.09 C30.43 18.97, 30.2 19.84, 29.89 20.68 C29.59 21.52, 29.2 22.34, 28.76 23.12 C28.31 23.89, 27.79 24.63, 27.22 25.32 C26.64 26, 26 26.64, 25.32 27.22 C24.63 27.79, 23.89 28.31, 23.12 28.76 C22.34 29.2, 21.52 29.59, 20.68 29.89 C19.84 30.2, 18.97 30.43, 18.09 30.59 C17.21 30.74, 16.3 30.82, 15.41 30.82 C14.52 30.82, 13.61 30.74, 12.74 30.59 C11.86 30.43, 10.98 30.2, 10.14 29.89 C9.3 29.59, 8.48 29.2, 7.71 28.76 C6.93 28.31, 6.19 27.79, 5.51 27.22 C4.82 26.64, 4.18 26, 3.61 25.32 C3.03 24.63, 2.51 23.89, 2.06 23.12 C1.62 22.34, 1.23 21.52, 0.93 20.68 C0.62 19.84, 0.39 18.97, 0.23 18.09 C0.08 17.21, 0 16.3, 0 15.41 C0 14.52, 0.08 13.61, 0.23 12.74 C0.39 11.86, 0.62 10.98, 0.93 10.14 C1.23 9.3, 1.62 8.48, 2.06 7.71 C2.51 6.93, 3.03 6.19, 3.61 5.51 C4.18 4.82, 4.82 4.18, 5.51 3.61 C6.19 3.03, 6.93 2.51, 7.71 2.06 C8.48 1.62, 9.3 1.23, 10.14 0.93 C10.98 0.62, 11.86 0.39, 12.74 0.23 C13.61 0.08, 14.52 0, 15.41 0 C16.3 0, 17.21 0.08, 18.09 0.23 C18.97 0.39, 19.84 0.62, 20.68 0.93 C21.52 1.23, 22.34 1.62, 23.12 2.06 C23.89 2.51, 24.63 3.03, 25.32 3.61 C26 4.18, 26.64 4.82, 27.22 5.51 C27.79 6.19, 28.31 6.93, 28.76 7.71 C29.2 8.48, 29.59 9.3, 29.89 10.14 C30.2 10.98, 30.43 11.86, 30.59 12.74 C30.74 13.61, 30.78 14.97, 30.82 15.41 C30.86 15.86, 30.86 14.97, 30.82 15.41" stroke="#e03131" stroke-width="2" fill="none"></path></g><g stroke-linecap="round" transform="translate(28.01989898155989 73.15841695605093) rotate(0 13.209646253296995 25.31848865215277)"><path d="M0 0 L26.42 0 L26.42 50.64 L0 50.64" stroke="none" stroke-width="0" fill="#fff5f5"></path><path d="M0 0 C5.68 0, 11.36 0, 26.42 0 M0 0 C7.44 0, 14.87 0, 26.42 0 M26.42 0 C26.42 15.01, 26.42 30.02, 26.42 50.64 M26.42 0 C26.42 18.55, 26.42 37.09, 26.42 50.64 M26.42 50.64 C16.02 50.64, 5.62 50.64, 0 50.64 M26.42 50.64 C17.53 50.64, 8.64 50.64, 0 50.64 M0 50.64 C0 36.23, 0 21.82, 0 0 M0 50.64 C0 31.25, 0 11.86, 0 0" stroke="#e03131" stroke-width="2" fill="none"></path></g><g stroke-linecap="round" transform="translate(66.49299369428809 86.45979686388466) rotate(0 12.659244326076418 18.667798698236098)"><path d="M0 0 L25.32 0 L25.32 37.34 L0 37.34" stroke="none" stroke-width="0" fill="#fff5f5"></path><path d="M0 0 C9.83 0, 19.65 0, 25.32 0 M0 0 C6.27 0, 12.54 0, 25.32 0 M25.32 0 C25.32 9.81, 25.32 19.63, 25.32 37.34 M25.32 0 C25.32 8.65, 25.32 17.29, 25.32 37.34 M25.32 37.34 C19.67 37.34, 14.02 37.34, 0 37.34 M25.32 37.34 C16.79 37.34, 8.26 37.34, 0 37.34 M0 37.34 C0 23.59, 0 9.85, 0 0 M0 37.34 C0 28.29, 0 19.24, 0 0" stroke="#e03131" stroke-width="2" fill="none"></path></g><g stroke-linecap="round"><g transform="translate(23.50660317835036 132.71190548133166) rotate(0 55.59059464929203 0)"><path d="M0 0 C18.53 0, 92.65 0, 111.18 0 M0 0 C18.53 0, 92.65 0, 111.18 0" stroke="#e03131" stroke-width="2" fill="none"></path></g></g><mask></mask><g stroke-linecap="round"><g transform="translate(103.8652845525744 66.07697015496626) rotate(0 11.487674509563249 28.859212052694204)" fill-rule="evenodd"><path d="M0 0 L0 57.62 L22.68 57.72 L22.98 0 L19.27 2.66 L14.09 4.14 L9.32 4.14 L4.14 2.76 L0 0" stroke="none" stroke-width="0" fill="#fff5f5" fill-rule="evenodd"></path><path d="M0 0 C0 19.53, 0 39.06, 0 57.62 M0 0 C0 19.18, 0 38.36, 0 57.62 M0 57.62 C5.75 57.64, 11.49 57.67, 22.68 57.72 M0 57.62 C6.24 57.65, 12.47 57.67, 22.68 57.72 M22.68 57.72 C22.76 41.51, 22.85 25.3, 22.98 0 M22.68 57.72 C22.76 42.17, 22.84 26.61, 22.98 0 M22.98 0 C21.79 0.85, 20.61 1.7, 19.27 2.66 M22.98 0 C21.81 0.84, 20.64 1.68, 19.27 2.66 M19.27 2.66 C17.7 3.11, 16.13 3.56, 14.09 4.14 M19.27 2.66 C18.03 3.01, 16.79 3.37, 14.09 4.14 M14.09 4.14 C13.03 4.14, 11.97 4.14, 9.32 4.14 M14.09 4.14 C12.28 4.14, 10.46 4.14, 9.32 4.14 M9.32 4.14 C7.56 3.67, 5.8 3.2, 4.14 2.76 M9.32 4.14 C7.93 3.77, 6.55 3.4, 4.14 2.76 M4.14 2.76 C3.26 2.17, 2.37 1.58, 0 0 M4.14 2.76 C2.88 1.92, 1.62 1.08, 0 0 M0 0 C0 0, 0 0, 0 0 M0 0 C0 0, 0 0, 0 0" stroke="#e03131" stroke-width="2" fill="none"></path></g></g><mask></mask></svg>