<svg version="1.1" xmlns="http://www.w3.org/2000/svg" viewBox="0 0 162.69578196683455 162.55913730244237" width="162.69578196683455" height="162.55913730244237" class="excalidraw-svg"><!-- svg-source:excalidraw --><metadata></metadata><defs><style class="style-fonts">
      </style></defs><g stroke-linecap="round" transform="translate(10 10) rotate(0 71.34789098341727 71.27956865122118)"><path d="M0 0 C0 0, 0 0, 0 0 M0 0 C0 0, 0 0, 0 0 M0.13 12.04 C3.28 8.42, 6.43 4.8, 10.63 -0.03 M0.13 12.04 C3.77 7.86, 7.41 3.67, 10.63 -0.03 M0.27 24.08 C7.37 15.9, 14.48 7.73, 21.26 -0.07 M0.27 24.08 C7.69 15.54, 15.12 7, 21.26 -0.07 M-0.26 36.88 C9.26 25.93, 18.77 14.99, 31.89 -0.1 M-0.26 36.88 C9.57 25.57, 19.4 14.27, 31.89 -0.1 M-0.12 48.92 C11.74 35.27, 23.61 21.62, 42.52 -0.14 M-0.12 48.92 C13.03 33.79, 26.18 18.66, 42.52 -0.14 M0.01 60.96 C18.46 39.74, 36.91 18.51, 53.15 -0.17 M0.01 60.96 C14.78 43.97, 29.55 26.98, 53.15 -0.17 M0.14 73 C21.68 48.22, 43.22 23.45, 63.78 -0.21 M0.14 73 C14.28 56.74, 28.41 40.48, 63.78 -0.21 M0.28 85.04 C21.07 61.12, 41.86 37.2, 74.41 -0.24 M0.28 85.04 C24.12 57.61, 47.97 30.17, 74.41 -0.24 M-0.25 97.84 C17.94 76.92, 36.12 56, 85.04 -0.28 M-0.25 97.84 C17.77 77.11, 35.79 56.38, 85.04 -0.28 M-0.11 109.88 C19.7 87.08, 39.51 64.29, 95.67 -0.31 M-0.11 109.88 C24.89 81.11, 49.9 52.34, 95.67 -0.31 M0.02 121.92 C40.48 75.37, 80.95 28.82, 106.3 -0.34 M0.02 121.92 C27.41 90.41, 54.8 58.9, 106.3 -0.34 M0.15 133.96 C37.52 90.97, 74.89 47.98, 116.27 0.38 M0.15 133.96 C33.34 95.78, 66.53 57.6, 116.27 0.38 M2.91 142.98 C40.56 99.66, 78.22 56.35, 126.91 0.34 M2.91 142.98 C28.82 113.17, 54.73 83.37, 126.91 0.34 M13.54 142.95 C51.38 99.42, 89.21 55.89, 137.54 0.31 M13.54 142.95 C57.09 92.85, 100.63 42.76, 137.54 0.31 M24.17 142.91 C51.37 111.62, 78.57 80.33, 142.92 6.31 M24.17 142.91 C69.07 91.26, 113.97 39.61, 142.92 6.31 M34.8 142.88 C69.56 102.89, 104.32 62.91, 143.05 18.35 M34.8 142.88 C75.74 95.78, 116.68 48.69, 143.05 18.35 M45.43 142.84 C83.39 99.18, 121.35 55.51, 143.18 30.39 M45.43 142.84 C79.05 104.17, 112.67 65.49, 143.18 30.39 M56.06 142.81 C74.96 121.07, 93.85 99.33, 142.66 43.19 M56.06 142.81 C78 117.57, 99.94 92.33, 142.66 43.19 M66.69 142.77 C96.92 108, 127.15 73.23, 142.79 55.23 M66.69 142.77 C93.39 112.06, 120.09 81.34, 142.79 55.23 M77.32 142.74 C98.94 117.87, 120.55 93.01, 142.93 67.27 M77.32 142.74 C92.34 125.47, 107.35 108.19, 142.93 67.27 M87.95 142.7 C102.05 126.49, 116.15 110.27, 143.06 79.31 M87.95 142.7 C104.97 123.13, 121.99 103.55, 143.06 79.31 M98.58 142.67 C110.73 128.7, 122.87 114.73, 143.19 91.35 M98.58 142.67 C112.97 126.12, 127.36 109.56, 143.19 91.35 M109.21 142.64 C120.88 129.21, 132.55 115.79, 142.67 104.15 M109.21 142.64 C122.38 127.49, 135.54 112.34, 142.67 104.15 M119.84 142.6 C127.84 133.4, 135.83 124.21, 142.8 116.19 M119.84 142.6 C127.14 134.2, 134.44 125.8, 142.8 116.19 M130.47 142.57 C133.52 139.06, 136.57 135.55, 142.94 128.23 M130.47 142.57 C133.54 139.04, 136.61 135.51, 142.94 128.23 M141.1 142.53 C141.78 141.76, 142.45 140.98, 143.07 140.27 M141.1 142.53 C141.82 141.71, 142.53 140.88, 143.07 140.27 M0.36 142.87 C0.36 142.87, 0.36 142.87, 0.36 142.87 M0.36 142.87 C0.36 142.87, 0.36 142.87, 0.36 142.87 M12.4 142.74 C8.43 139.29, 4.47 135.84, 0.32 132.24 M12.4 142.74 C7.86 138.79, 3.33 134.85, 0.32 132.24 M24.44 142.6 C18.54 137.48, 12.65 132.36, 0.29 121.61 M24.44 142.6 C16.02 135.28, 7.6 127.97, 0.29 121.61 M36.48 142.47 C27.14 134.35, 17.8 126.23, 0.25 110.98 M36.48 142.47 C28.05 135.14, 19.62 127.81, 0.25 110.98 M48.52 142.34 C38.53 133.65, 28.54 124.97, 0.22 100.35 M48.52 142.34 C38.43 133.56, 28.33 124.79, 0.22 100.35 M61.32 142.86 C38.63 123.14, 15.95 103.42, 0.18 89.72 M61.32 142.86 C37.99 122.58, 14.66 102.3, 0.18 89.72 M73.36 142.73 C51.97 124.14, 30.59 105.55, 0.15 79.09 M73.36 142.73 C54.42 126.27, 35.49 109.81, 0.15 79.09 M85.4 142.59 C51.99 113.55, 18.59 84.51, 0.12 68.46 M85.4 142.59 C65.46 125.27, 45.53 107.94, 0.12 68.46 M97.44 142.46 C59.4 109.39, 21.36 76.33, 0.08 57.83 M97.44 142.46 C71.45 119.87, 45.46 97.27, 0.08 57.83 M109.48 142.33 C73.62 111.16, 37.77 79.99, 0.05 47.2 M109.48 142.33 C69.39 107.48, 29.3 72.63, 0.05 47.2 M122.27 142.85 C76.09 102.71, 29.91 62.56, 0.01 36.57 M122.27 142.85 C89.4 114.27, 56.52 85.69, 0.01 36.57 M134.32 142.72 C97.88 111.04, 61.44 79.36, -0.02 25.94 M134.32 142.72 C91.03 105.09, 47.75 67.47, -0.02 25.94 M142.58 139.3 C97.98 100.53, 53.38 61.76, -0.06 15.31 M142.58 139.3 C90.5 94.02, 38.41 48.75, -0.06 15.31 M143.3 129.33 C86.06 79.57, 28.81 29.8, -0.09 4.68 M143.3 129.33 C113.22 103.18, 83.15 77.04, -0.09 4.68 M143.27 118.7 C110.55 90.26, 77.83 61.81, 6.67 -0.05 M143.27 118.7 C99.29 80.47, 55.31 42.23, 6.67 -0.05 M143.23 108.07 C96.83 67.73, 50.43 27.4, 18.71 -0.18 M143.23 108.07 C105.49 75.26, 67.74 42.44, 18.71 -0.18 M143.2 97.44 C99.74 59.66, 56.28 21.88, 30.75 -0.31 M143.2 97.44 C101.46 61.15, 59.72 24.87, 30.75 -0.31 M143.17 86.81 C109.35 57.41, 75.53 28.01, 42.79 -0.45 M143.17 86.81 C118.88 65.69, 94.59 44.58, 42.79 -0.45 M143.13 76.18 C110.79 48.07, 78.46 19.96, 54.83 -0.58 M143.13 76.18 C124.55 60.03, 105.98 43.88, 54.83 -0.58 M143.1 65.55 C118.8 44.43, 94.5 23.31, 67.63 -0.06 M143.1 65.55 C125.61 50.35, 108.13 35.15, 67.63 -0.06 M143.06 54.92 C119.24 34.21, 95.42 13.51, 79.67 -0.19 M143.06 54.92 C130.22 43.75, 117.37 32.58, 79.67 -0.19 M143.03 44.29 C130.61 33.5, 118.2 22.7, 91.71 -0.32 M143.03 44.29 C130.55 33.44, 118.08 22.6, 91.71 -0.32 M142.99 33.66 C127.43 20.13, 111.88 6.61, 103.75 -0.46 M142.99 33.66 C128.21 20.81, 113.42 7.95, 103.75 -0.46 M142.96 23.03 C134.93 16.05, 126.9 9.07, 115.79 -0.59 M142.96 23.03 C137.18 18, 131.39 12.98, 115.79 -0.59 M142.92 12.4 C137.27 7.49, 131.62 2.57, 128.58 -0.07 M142.92 12.4 C139.67 9.57, 136.41 6.74, 128.58 -0.07 M142.89 1.77 C142.06 1.05, 141.23 0.33, 140.63 -0.2 M142.89 1.77 C142.34 1.29, 141.79 0.81, 140.63 -0.2" stroke="#fff5f5" stroke-width="1" fill="none"></path><path d="M0 0 C38.54 0, 77.08 0, 142.7 0 M0 0 C38.02 0, 76.04 0, 142.7 0 M142.7 0 C142.7 55.45, 142.7 110.9, 142.7 142.56 M142.7 0 C142.7 37.37, 142.7 74.73, 142.7 142.56 M142.7 142.56 C90.26 142.56, 37.82 142.56, 0 142.56 M142.7 142.56 C87.76 142.56, 32.83 142.56, 0 142.56 M0 142.56 C0 111.63, 0 80.71, 0 0 M0 142.56 C0 98.68, 0 54.8, 0 0" stroke="#e03131" stroke-width="2" fill="none"></path></g><g stroke-linecap="round"><g transform="translate(110.52426648755724 106.60265814435073) rotate(0 -27.014146628861106 -34.09488005030603)" fill-rule="evenodd"><path d="M0 0 L-54.03 0 L-54.03 -68.19 L-13.16 -68.19 L-0.03 -56.37 L0 0" stroke="none" stroke-width="0" fill="#fff5f5" fill-rule="evenodd"></path><path d="M0 0 C-17.24 0, -34.49 0, -54.03 0 M0 0 C-17.02 0, -34.03 0, -54.03 0 M-54.03 0 C-54.03 -20.66, -54.03 -41.31, -54.03 -68.19 M-54.03 0 C-54.03 -16.31, -54.03 -32.62, -54.03 -68.19 M-54.03 -68.19 C-44.96 -68.19, -35.9 -68.19, -13.16 -68.19 M-54.03 -68.19 C-38.49 -68.19, -22.96 -68.19, -13.16 -68.19 M-13.16 -68.19 C-8.7 -64.18, -4.24 -60.16, -0.03 -56.37 M-13.16 -68.19 C-9.65 -65.03, -6.13 -61.87, -0.03 -56.37 M-0.03 -56.37 C-0.02 -44.36, -0.02 -32.34, 0 0 M-0.03 -56.37 C-0.02 -39.23, -0.01 -22.09, 0 0 M0 0 C0 0, 0 0, 0 0 M0 0 C0 0, 0 0, 0 0" stroke="#e03131" stroke-width="2" fill="none"></path></g></g><mask></mask><g stroke-linecap="round"><g transform="translate(96.82425531313535 38.614119661032646) rotate(0 6.6821536623444935 6.3784194049652)"><path d="M0 0 C0 2.7, 0 5.4, 0 12.76 M0 0 C0 3.13, 0 6.27, 0 12.76 M0 12.76 C3.46 12.76, 6.92 12.76, 13.36 12.76 M0 12.76 C2.9 12.76, 5.8 12.76, 13.36 12.76" stroke="#e03131" stroke-width="2" fill="none"></path></g></g><mask></mask><g stroke-linecap="round"><g transform="translate(66.45082957520617 138.2389560814461) rotate(0 14.88297861158545 -58.31697741682468)"><path d="M0 0 C-2.02 -0.81, -8.71 -3.14, -12.15 -4.86 C-15.59 -6.58, -17.52 -7.8, -20.65 -10.33 C-23.79 -12.86, -28.04 -16.71, -30.98 -20.05 C-33.92 -23.39, -36.25 -26.32, -38.27 -30.37 C-40.3 -34.42, -42.02 -39.59, -43.13 -44.35 C-44.24 -49.1, -44.85 -54.17, -44.95 -58.92 C-45.05 -63.68, -44.45 -69.05, -43.74 -72.9 C-43.03 -76.74, -42.32 -78.57, -40.7 -82.01 C-39.08 -85.45, -37.16 -89.7, -34.02 -93.55 C-30.88 -97.4, -25.61 -102.16, -21.87 -105.09 C-18.12 -108.03, -15.09 -109.34, -11.54 -111.17 C-8 -112.99, -4.86 -115.01, -0.61 -116.03 C3.64 -117.04, 9.52 -117.34, 13.97 -117.24 C18.43 -117.14, 22.38 -116.23, 26.12 -115.42 C29.87 -114.61, 33.51 -113.5, 36.45 -112.38 C39.38 -111.27, 41.11 -110.15, 43.74 -108.74 C46.37 -107.32, 49.41 -106.21, 52.24 -103.88 C55.08 -101.55, 58.42 -97.7, 60.75 -94.77 C63.08 -91.83, 64.7 -88.89, 66.21 -86.26 C67.73 -83.63, 68.64 -82.11, 69.86 -78.97 C71.07 -75.83, 72.69 -71.68, 73.5 -67.43 C74.31 -63.18, 74.92 -58.32, 74.72 -53.46 C74.52 -48.6, 73.5 -42.52, 72.29 -38.27 C71.07 -34.02, 69.56 -31.49, 67.43 -27.94 C65.3 -24.4, 62.47 -20.35, 59.53 -17.01 C56.6 -13.67, 53.96 -10.83, 49.81 -7.9 C45.66 -4.96, 37.16 -0.81, 34.63 0.61 M0 0 C-2.02 -0.81, -8.71 -3.14, -12.15 -4.86 C-15.59 -6.58, -17.52 -7.8, -20.65 -10.33 C-23.79 -12.86, -28.04 -16.71, -30.98 -20.05 C-33.92 -23.39, -36.25 -26.32, -38.27 -30.37 C-40.3 -34.42, -42.02 -39.59, -43.13 -44.35 C-44.24 -49.1, -44.85 -54.17, -44.95 -58.92 C-45.05 -63.68, -44.45 -69.05, -43.74 -72.9 C-43.03 -76.74, -42.32 -78.57, -40.7 -82.01 C-39.08 -85.45, -37.16 -89.7, -34.02 -93.55 C-30.88 -97.4, -25.61 -102.16, -21.87 -105.09 C-18.12 -108.03, -15.09 -109.34, -11.54 -111.17 C-8 -112.99, -4.86 -115.01, -0.61 -116.03 C3.64 -117.04, 9.52 -117.34, 13.97 -117.24 C18.43 -117.14, 22.38 -116.23, 26.12 -115.42 C29.87 -114.61, 33.51 -113.5, 36.45 -112.38 C39.38 -111.27, 41.11 -110.15, 43.74 -108.74 C46.37 -107.32, 49.41 -106.21, 52.24 -103.88 C55.08 -101.55, 58.42 -97.7, 60.75 -94.77 C63.08 -91.83, 64.7 -88.89, 66.21 -86.26 C67.73 -83.63, 68.64 -82.11, 69.86 -78.97 C71.07 -75.83, 72.69 -71.68, 73.5 -67.43 C74.31 -63.18, 74.92 -58.32, 74.72 -53.46 C74.52 -48.6, 73.5 -42.52, 72.29 -38.27 C71.07 -34.02, 69.56 -31.49, 67.43 -27.94 C65.3 -24.4, 62.47 -20.35, 59.53 -17.01 C56.6 -13.67, 53.96 -10.83, 49.81 -7.9 C45.66 -4.96, 37.16 -0.81, 34.63 0.61" stroke="#e03131" stroke-width="2" fill="none"></path></g></g><mask></mask><g stroke-linecap="round"><g transform="translate(75.56285729658472 115.15515252061621) rotate(0 -0.9112027721378864 13.06057306730969)"><path d="M0 0 C0 3.31, 0 6.62, 0 9.72 M0 0 C0 3.75, 0 7.5, 0 9.72 M0 9.72 C-3.4 9.72, -6.8 9.72, -8.5 9.72 M0 9.72 C-2.16 9.72, -4.31 9.72, -8.5 9.72 M-8.5 9.72 C-2.87 15.81, 2.77 21.9, 6.68 26.12 M-8.5 9.72 C-3.18 15.46, 2.13 21.21, 6.68 26.12" stroke="#e03131" stroke-width="2" fill="none"></path></g></g><mask></mask><g stroke-linecap="round"><g transform="translate(89.8383673934122 115.45888677799556) rotate(0 0.9112027721378855 13.06057306730969)"><path d="M0 0 C0 2.81, 0 5.63, 0 9.72 M0 0 C0 3.1, 0 6.2, 0 9.72 M0 9.72 C2.47 9.72, 4.95 9.72, 8.5 9.72 M0 9.72 C2.23 9.72, 4.45 9.72, 8.5 9.72 M8.5 9.72 C3.18 15.47, -2.15 21.23, -6.68 26.12 M8.5 9.72 C3.72 14.88, -1.06 20.05, -6.68 26.12" stroke="#e03131" stroke-width="2" fill="none"></path></g></g><mask></mask><g stroke-linecap="round"><g transform="translate(63.413487001413614 55.62323807427788) rotate(0 8.504559206620266 0)"><path d="M0 0 C6.31 0, 12.62 0, 17.01 0 M0 0 C5.41 0, 10.82 0, 17.01 0" stroke="#e03131" stroke-width="2" fill="none"></path></g></g><mask></mask><g stroke-linecap="round"><g transform="translate(63.413487001413614 66.96265034976682) rotate(0 18.527789700137006 0)"><path d="M0 0 C14.41 0, 28.83 0, 37.06 0 M0 0 C9.71 0, 19.43 0, 37.06 0" stroke="#e03131" stroke-width="2" fill="none"></path></g></g><mask></mask><g stroke-linecap="round"><g transform="translate(63.413487001413614 78.30206262526352) rotate(0 5.770950890206609 0)"><path d="M0 0 C3.5 0, 6.99 0, 11.54 0 M0 0 C2.76 0, 5.52 0, 11.54 0" stroke="#e03131" stroke-width="2" fill="none"></path></g></g><mask></mask><g stroke-linecap="round"><g transform="translate(63.413487001413614 89.64147490076041) rotate(0 10.630699008275329 0)"><path d="M0 0 C5.5 0, 11 0, 21.26 0 M0 0 C4.61 0, 9.23 0, 21.26 0" stroke="#e03131" stroke-width="2" fill="none"></path></g></g><mask></mask></svg>