<svg version="1.1" xmlns="http://www.w3.org/2000/svg" viewBox="0 0 159.03423940528484 159.03423940528484" width="159.03423940528484" height="159.03423940528484" class="excalidraw-svg"><!-- svg-source:excalidraw --><metadata></metadata><defs><style class="style-fonts">
      </style></defs><g stroke-linecap="round" transform="translate(10 10) rotate(0 69.51711970264242 69.51711970264242)"><path d="M0 0 C0 0, 0 0, 0 0 M0 0 C0 0, 0 0, 0 0 M0.13 12.04 C3.03 8.71, 5.92 5.38, 10.63 -0.03 M0.13 12.04 C3.68 7.96, 7.23 3.88, 10.63 -0.03 M0.27 24.08 C8.15 15.01, 16.04 5.94, 21.26 -0.07 M0.27 24.08 C8.48 14.63, 16.7 5.18, 21.26 -0.07 M-0.26 36.88 C6.45 29.17, 13.15 21.46, 31.89 -0.1 M-0.26 36.88 C8.86 26.39, 17.98 15.9, 31.89 -0.1 M-0.12 48.92 C11.46 35.59, 23.05 22.27, 42.52 -0.14 M-0.12 48.92 C15.61 30.82, 31.35 12.71, 42.52 -0.14 M0.01 60.96 C18.83 39.3, 37.66 17.65, 53.15 -0.17 M0.01 60.96 C20.99 36.82, 41.97 12.69, 53.15 -0.17 M0.14 73 C14.02 57.03, 27.9 41.06, 63.78 -0.21 M0.14 73 C20.49 49.59, 40.84 26.18, 63.78 -0.21 M0.28 85.04 C20.98 61.22, 41.69 37.4, 74.41 -0.24 M0.28 85.04 C24.95 56.66, 49.62 28.28, 74.41 -0.24 M-0.25 97.84 C24.41 69.47, 49.07 41.1, 85.04 -0.28 M-0.25 97.84 C22.94 71.16, 46.13 44.48, 85.04 -0.28 M-0.11 109.88 C20.53 86.13, 41.18 62.38, 95.67 -0.31 M-0.11 109.88 C23.15 83.11, 46.42 56.35, 95.67 -0.31 M0.02 121.92 C34.49 82.26, 68.97 42.6, 106.3 -0.34 M0.02 121.92 C25.32 92.81, 50.62 63.71, 106.3 -0.34 M0.15 133.96 C30.4 99.16, 60.65 64.37, 116.27 0.38 M0.15 133.96 C41.37 86.54, 82.59 39.12, 116.27 0.38 M6.19 139.21 C45.92 93.5, 85.66 47.79, 126.91 0.34 M6.19 139.21 C32.17 109.32, 58.16 79.43, 126.91 0.34 M16.82 139.17 C62.36 86.78, 107.9 34.4, 137.54 0.31 M16.82 139.17 C63.08 85.95, 109.35 32.73, 137.54 0.31 M26.79 139.89 C57.59 104.47, 88.38 69.05, 138.98 10.84 M26.79 139.89 C69.97 90.22, 113.15 40.55, 138.98 10.84 M37.42 139.86 C77.55 93.7, 117.68 47.53, 139.11 22.88 M37.42 139.86 C70.61 101.69, 103.79 63.51, 139.11 22.88 M48.05 139.82 C75.13 108.68, 102.2 77.54, 139.25 34.92 M48.05 139.82 C76.57 107.02, 105.09 74.21, 139.25 34.92 M58.68 139.79 C75.38 120.58, 92.08 101.37, 139.38 46.96 M58.68 139.79 C80.24 114.99, 101.79 90.2, 139.38 46.96 M69.31 139.76 C90.07 115.87, 110.83 91.99, 138.86 59.76 M69.31 139.76 C93.58 111.84, 117.85 83.92, 138.86 59.76 M79.94 139.72 C102.04 114.3, 124.14 88.88, 138.99 71.8 M79.94 139.72 C101.97 114.39, 123.99 89.05, 138.99 71.8 M90.57 139.69 C107.43 120.29, 124.29 100.9, 139.12 83.84 M90.57 139.69 C101.65 126.95, 112.72 114.22, 139.12 83.84 M101.2 139.65 C113.47 125.55, 125.73 111.44, 139.26 95.88 M101.2 139.65 C112.45 126.71, 123.7 113.77, 139.26 95.88 M111.83 139.62 C119.46 130.85, 127.08 122.08, 139.39 107.92 M111.83 139.62 C119.24 131.09, 126.65 122.57, 139.39 107.92 M122.47 139.58 C128.07 133.13, 133.68 126.68, 138.87 120.71 M122.47 139.58 C128.55 132.58, 134.64 125.58, 138.87 120.71 M133.1 139.55 C134.78 137.61, 136.47 135.67, 139 132.76 M133.1 139.55 C135.31 137, 137.52 134.46, 139 132.76 M-0.16 138.89 C-0.16 138.89, -0.16 138.89, -0.16 138.89 M-0.16 138.89 C-0.16 138.89, -0.16 138.89, -0.16 138.89 M11.88 138.76 C7.79 135.2, 3.7 131.65, -0.2 128.26 M11.88 138.76 C9.06 136.31, 6.24 133.86, -0.2 128.26 M24.67 139.28 C17.44 132.99, 10.21 126.71, -0.23 117.63 M24.67 139.28 C16.03 131.77, 7.39 124.26, -0.23 117.63 M36.72 139.15 C23.16 127.36, 9.6 115.58, -0.27 107 M36.72 139.15 C25 128.97, 13.29 118.79, -0.27 107 M48.76 139.02 C32.58 124.96, 16.41 110.89, -0.3 96.37 M48.76 139.02 C32.01 124.46, 15.26 109.9, -0.3 96.37 M60.8 138.88 C44.59 124.8, 28.39 110.71, -0.33 85.74 M60.8 138.88 C43.61 123.94, 26.42 109, -0.33 85.74 M72.84 138.75 C53.65 122.07, 34.45 105.38, -0.37 75.11 M72.84 138.75 C52.58 121.14, 32.33 103.54, -0.37 75.11 M85.63 139.27 C60.41 117.35, 35.19 95.43, 0.35 65.14 M85.63 139.27 C54.29 112.03, 22.96 84.79, 0.35 65.14 M97.67 139.14 C67.77 113.15, 37.87 87.15, 0.32 54.51 M97.67 139.14 C67.41 112.83, 37.14 86.52, 0.32 54.51 M109.72 139.01 C78.45 111.83, 47.19 84.65, 0.28 43.88 M109.72 139.01 C87.74 119.9, 65.76 100.8, 0.28 43.88 M121.76 138.87 C79.27 101.94, 36.78 65, 0.25 33.25 M121.76 138.87 C86.96 108.63, 52.16 78.38, 0.25 33.25 M133.8 138.74 C103.36 112.28, 72.93 85.83, 0.21 22.62 M133.8 138.74 C81.6 93.37, 29.41 48, 0.21 22.62 M139.8 133.36 C92.27 92.04, 44.74 50.72, 0.18 11.99 M139.8 133.36 C93.75 93.33, 47.71 53.31, 0.18 11.99 M139.77 122.73 C100.59 88.67, 61.41 54.61, 0.14 1.36 M139.77 122.73 C93.54 82.55, 47.32 42.37, 0.14 1.36 M139.73 112.1 C101.58 78.93, 63.42 45.77, 10.68 -0.09 M139.73 112.1 C107.18 83.8, 74.62 55.5, 10.68 -0.09 M139.7 101.47 C96.64 64.04, 53.58 26.61, 22.72 -0.22 M139.7 101.47 C116.29 81.12, 92.88 60.77, 22.72 -0.22 M139.66 90.84 C108.49 63.74, 77.31 36.64, 34.76 -0.35 M139.66 90.84 C103.03 58.99, 66.4 27.15, 34.76 -0.35 M139.63 80.21 C104.64 49.8, 69.66 19.39, 47.55 0.17 M139.63 80.21 C106.43 51.35, 73.23 22.49, 47.55 0.17 M139.59 69.58 C116.19 49.23, 92.78 28.89, 59.59 0.04 M139.59 69.58 C123.55 55.64, 107.52 41.69, 59.59 0.04 M139.56 58.95 C114.32 37.01, 89.09 15.07, 71.63 -0.1 M139.56 58.95 C115.15 37.73, 90.74 16.51, 71.63 -0.1 M139.52 48.32 C123.05 34, 106.58 19.68, 83.68 -0.23 M139.52 48.32 C124.43 35.2, 109.33 22.07, 83.68 -0.23 M139.49 37.69 C123.57 23.85, 107.64 10, 95.72 -0.36 M139.49 37.69 C125.13 25.21, 110.78 12.73, 95.72 -0.36 M139.46 27.06 C127.6 16.75, 115.75 6.45, 108.51 0.16 M139.46 27.06 C129.95 18.79, 120.44 10.53, 108.51 0.16 M139.42 16.43 C132.94 10.8, 126.47 5.17, 120.55 0.03 M139.42 16.43 C132.21 10.16, 125 3.89, 120.55 0.03 M139.39 5.8 C137.34 4.02, 135.29 2.24, 132.59 -0.11 M139.39 5.8 C137.05 3.77, 134.71 1.73, 132.59 -0.11" stroke="#fff5f5" stroke-width="1" fill="none"></path><path d="M0 0 C46.45 0, 92.91 0, 139.03 0 M0 0 C52.82 0, 105.65 0, 139.03 0 M139.03 0 C139.03 43.45, 139.03 86.9, 139.03 139.03 M139.03 0 C139.03 44.63, 139.03 89.26, 139.03 139.03 M139.03 139.03 C101.93 139.03, 64.82 139.03, 0 139.03 M139.03 139.03 C88.4 139.03, 37.77 139.03, 0 139.03 M0 139.03 C0 103.52, 0 68, 0 0 M0 139.03 C0 86.04, 0 33.04, 0 0" stroke="#e03131" stroke-width="2" fill="none"></path></g><g stroke-linecap="round"><g transform="translate(65.38904522531462 133.92740747164063) rotate(0 14.440613707550874 -52.722546756775216)" fill-rule="evenodd"><path d="M0 0 C3.87 0.09, 19.42 2.37, 23.21 0.56 C26.99 -1.25, 20.5 -7.76, 22.7 -10.86 C24.89 -13.95, 32.28 -18.08, 36.39 -18.01 C40.5 -17.94, 42.91 -8.75, 47.37 -10.42 C51.82 -12.1, 62.27 -23.95, 63.12 -28.08 C63.97 -32.22, 53.74 -32.13, 52.47 -35.25 C51.2 -38.36, 52.83 -44.84, 55.49 -46.76 C58.15 -48.67, 66.27 -43.29, 68.43 -46.71 C70.59 -50.14, 70.52 -63.89, 68.46 -67.32 C66.4 -70.75, 59.02 -65.94, 56.09 -67.3 C53.17 -68.65, 50.4 -72.35, 50.92 -75.46 C51.43 -78.58, 60.39 -82.05, 59.16 -86 C57.93 -89.95, 47.61 -98.45, 43.55 -99.17 C39.49 -99.89, 37.92 -91.11, 34.82 -90.31 C31.72 -89.5, 26.49 -91.78, 24.96 -94.33 C23.43 -96.88, 29.06 -103.66, 25.65 -105.6 C22.25 -107.55, 8.11 -107.73, 4.53 -106 C0.95 -104.27, 5.65 -97.76, 4.16 -95.24 C2.66 -92.73, -1.28 -90.13, -4.45 -90.89 C-7.63 -91.65, -10.48 -100.81, -14.88 -99.81 C-19.29 -98.82, -29.69 -88.55, -30.88 -84.93 C-32.07 -81.3, -22.63 -80.83, -22.01 -78.06 C-21.39 -75.3, -24.38 -70.05, -27.16 -68.33 C-29.93 -66.61, -36.59 -71.19, -38.66 -67.71 C-40.73 -64.24, -41.22 -50.81, -39.58 -47.47 C-37.93 -44.14, -31.28 -49.58, -28.8 -47.68 C-26.31 -45.79, -23.66 -39.01, -24.68 -36.11 C-25.7 -33.21, -35.55 -34.3, -34.91 -30.29 C-34.28 -26.28, -25 -14.08, -20.88 -12.03 C-16.75 -9.98, -13.7 -17.97, -10.18 -17.99 C-6.66 -18.02, -1.44 -15.18, 0.26 -12.18 C1.96 -9.18, 0.04 -2.03, 0 0" stroke="none" stroke-width="0" fill="#fff5f5" fill-rule="evenodd"></path><path d="M0 0 C3.87 0.09, 19.42 2.37, 23.21 0.56 C26.99 -1.25, 20.5 -7.76, 22.7 -10.86 C24.89 -13.95, 32.28 -18.08, 36.39 -18.01 C40.5 -17.94, 42.91 -8.75, 47.37 -10.42 C51.82 -12.1, 62.27 -23.95, 63.12 -28.08 C63.97 -32.22, 53.74 -32.13, 52.47 -35.25 C51.2 -38.36, 52.83 -44.84, 55.49 -46.76 C58.15 -48.67, 66.27 -43.29, 68.43 -46.71 C70.59 -50.14, 70.52 -63.89, 68.46 -67.32 C66.4 -70.75, 59.02 -65.94, 56.09 -67.3 C53.17 -68.65, 50.4 -72.35, 50.92 -75.46 C51.43 -78.58, 60.39 -82.05, 59.16 -86 C57.93 -89.95, 47.61 -98.45, 43.55 -99.17 C39.49 -99.89, 37.92 -91.11, 34.82 -90.31 C31.72 -89.5, 26.49 -91.78, 24.96 -94.33 C23.43 -96.88, 29.06 -103.66, 25.65 -105.6 C22.25 -107.55, 8.11 -107.73, 4.53 -106 C0.95 -104.27, 5.65 -97.76, 4.16 -95.24 C2.66 -92.73, -1.28 -90.13, -4.45 -90.89 C-7.63 -91.65, -10.48 -100.81, -14.88 -99.81 C-19.29 -98.82, -29.69 -88.55, -30.88 -84.93 C-32.07 -81.3, -22.63 -80.83, -22.01 -78.06 C-21.39 -75.3, -24.38 -70.05, -27.16 -68.33 C-29.93 -66.61, -36.59 -71.19, -38.66 -67.71 C-40.73 -64.24, -41.22 -50.81, -39.58 -47.47 C-37.93 -44.14, -31.28 -49.58, -28.8 -47.68 C-26.31 -45.79, -23.66 -39.01, -24.68 -36.11 C-25.7 -33.21, -35.55 -34.3, -34.91 -30.29 C-34.28 -26.28, -25 -14.08, -20.88 -12.03 C-16.75 -9.98, -13.7 -17.97, -10.18 -17.99 C-6.66 -18.02, -1.44 -15.18, 0.26 -12.18 C1.96 -9.18, 0.04 -2.03, 0 0 M0 0 C3.87 0.09, 19.42 2.37, 23.21 0.56 C26.99 -1.25, 20.5 -7.76, 22.7 -10.86 C24.89 -13.95, 32.28 -18.08, 36.39 -18.01 C40.5 -17.94, 42.91 -8.75, 47.37 -10.42 C51.82 -12.1, 62.27 -23.95, 63.12 -28.08 C63.97 -32.22, 53.74 -32.13, 52.47 -35.25 C51.2 -38.36, 52.83 -44.84, 55.49 -46.76 C58.15 -48.67, 66.27 -43.29, 68.43 -46.71 C70.59 -50.14, 70.52 -63.89, 68.46 -67.32 C66.4 -70.75, 59.02 -65.94, 56.09 -67.3 C53.17 -68.65, 50.4 -72.35, 50.92 -75.46 C51.43 -78.58, 60.39 -82.05, 59.16 -86 C57.93 -89.95, 47.61 -98.45, 43.55 -99.17 C39.49 -99.89, 37.92 -91.11, 34.82 -90.31 C31.72 -89.5, 26.49 -91.78, 24.96 -94.33 C23.43 -96.88, 29.06 -103.66, 25.65 -105.6 C22.25 -107.55, 8.11 -107.73, 4.53 -106 C0.95 -104.27, 5.65 -97.76, 4.16 -95.24 C2.66 -92.73, -1.28 -90.13, -4.45 -90.89 C-7.63 -91.65, -10.48 -100.81, -14.88 -99.81 C-19.29 -98.82, -29.69 -88.55, -30.88 -84.93 C-32.07 -81.3, -22.63 -80.83, -22.01 -78.06 C-21.39 -75.3, -24.38 -70.05, -27.16 -68.33 C-29.93 -66.61, -36.59 -71.19, -38.66 -67.71 C-40.73 -64.24, -41.22 -50.81, -39.58 -47.47 C-37.93 -44.14, -31.28 -49.58, -28.8 -47.68 C-26.31 -45.79, -23.66 -39.01, -24.68 -36.11 C-25.7 -33.21, -35.55 -34.3, -34.91 -30.29 C-34.28 -26.28, -25 -14.08, -20.88 -12.03 C-16.75 -9.98, -13.7 -17.97, -10.18 -17.99 C-6.66 -18.02, -1.44 -15.18, 0.26 -12.18 C1.96 -9.18, 0.04 -2.03, 0 0" stroke="#e03131" stroke-width="2" fill="none"></path></g></g><mask></mask><g stroke-linecap="round"><g transform="translate(55.47353148532568 70.61711926662235) rotate(0 25.41672564283084 -6.9748223857070855)"><path d="M0 0 C1.34 -2.01, 4.1 -9.1, 8.04 -12.06 C11.98 -15.01, 18.4 -17.65, 23.64 -17.73 C28.88 -17.81, 34.95 -16.12, 39.48 -12.53 C44.02 -8.95, 48.94 1.06, 50.83 3.78 M0 0 C1.34 -2.01, 4.1 -9.1, 8.04 -12.06 C11.98 -15.01, 18.4 -17.65, 23.64 -17.73 C28.88 -17.81, 34.95 -16.12, 39.48 -12.53 C44.02 -8.95, 48.94 1.06, 50.83 3.78" stroke="#e03131" stroke-width="2" fill="none"></path></g><g transform="translate(55.47353148532568 70.61711926662235) rotate(0 25.41672564283084 -6.9748223857070855)"><path d="M43.11 -2.47 C44.76 -1.14, 46.4 0.19, 50.83 3.78 M43.11 -2.47 C45.46 -0.57, 47.81 1.33, 50.83 3.78" stroke="#e03131" stroke-width="2" fill="none"></path></g><g transform="translate(55.47353148532568 70.61711926662235) rotate(0 25.41672564283084 -6.9748223857070855)"><path d="M48.94 -5.97 C49.34 -3.89, 49.75 -1.81, 50.83 3.78 M48.94 -5.97 C49.52 -3.01, 50.09 -0.04, 50.83 3.78" stroke="#e03131" stroke-width="2" fill="none"></path></g></g><mask></mask><g stroke-linecap="round"><g transform="translate(104.77015749955916 91.30383888866265) rotate(0 -25.416725642831388 6.974822385707228)"><path d="M0 0 C-1.34 2.01, -4.1 9.1, -8.04 12.06 C-11.98 15.01, -18.4 17.65, -23.64 17.73 C-28.88 17.81, -34.95 16.12, -39.48 12.53 C-44.02 8.95, -48.94 -1.06, -50.83 -3.78 M0 0 C-1.34 2.01, -4.1 9.1, -8.04 12.06 C-11.98 15.01, -18.4 17.65, -23.64 17.73 C-28.88 17.81, -34.95 16.12, -39.48 12.53 C-44.02 8.95, -48.94 -1.06, -50.83 -3.78" stroke="#e03131" stroke-width="2" fill="none"></path></g><g transform="translate(104.77015749955916 91.30383888866265) rotate(0 -25.416725642831388 6.974822385707228)"><path d="M-43.11 2.47 C-45.84 0.26, -48.57 -1.95, -50.83 -3.78 M-43.11 2.47 C-45.05 0.91, -46.98 -0.66, -50.83 -3.78" stroke="#e03131" stroke-width="2" fill="none"></path></g><g transform="translate(104.77015749955916 91.30383888866265) rotate(0 -25.416725642831388 6.974822385707228)"><path d="M-48.94 5.97 C-49.61 2.52, -50.28 -0.92, -50.83 -3.78 M-48.94 5.97 C-49.41 3.53, -49.89 1.08, -50.83 -3.78" stroke="#e03131" stroke-width="2" fill="none"></path></g></g><mask></mask></svg>