<svg version="1.1" xmlns="http://www.w3.org/2000/svg" viewBox="0 0 159.03423940528484 159.03423940528484" width="159.03423940528484" height="159.03423940528484" class="excalidraw-svg"><!-- svg-source:excalidraw --><metadata></metadata><defs><style class="style-fonts">
      </style></defs><g stroke-linecap="round" transform="translate(10 10) rotate(0 69.51711970264242 69.51711970264242)"><path d="M0 0 C0 0, 0 0, 0 0 M0 0 C0 0, 0 0, 0 0 M0.13 12.04 C3.12 8.6, 6.12 5.16, 10.63 -0.03 M0.13 12.04 C3.38 8.31, 6.62 4.58, 10.63 -0.03 M0.27 24.08 C6.24 17.21, 12.21 10.35, 21.26 -0.07 M0.27 24.08 C8.48 14.64, 16.69 5.19, 21.26 -0.07 M-0.26 36.88 C8.48 26.83, 17.21 16.78, 31.89 -0.1 M-0.26 36.88 C8.74 26.53, 17.74 16.18, 31.89 -0.1 M-0.12 48.92 C11.95 35.03, 24.02 21.15, 42.52 -0.14 M-0.12 48.92 C11.48 35.57, 23.09 22.22, 42.52 -0.14 M0.01 60.96 C20.4 37.51, 40.79 14.05, 53.15 -0.17 M0.01 60.96 C17.03 41.38, 34.06 21.79, 53.15 -0.17 M0.14 73 C22.36 47.44, 44.58 21.89, 63.78 -0.21 M0.14 73 C16.1 54.64, 32.05 36.29, 63.78 -0.21 M0.28 85.04 C25.97 55.48, 51.66 25.93, 74.41 -0.24 M0.28 85.04 C28.62 52.43, 56.97 19.83, 74.41 -0.24 M-0.25 97.84 C18.18 76.64, 36.6 55.44, 85.04 -0.28 M-0.25 97.84 C29.24 63.91, 58.73 29.99, 85.04 -0.28 M-0.11 109.88 C33.57 71.13, 67.25 32.38, 95.67 -0.31 M-0.11 109.88 C28.8 76.61, 57.72 43.35, 95.67 -0.31 M0.02 121.92 C40.71 75.1, 81.41 28.29, 106.3 -0.34 M0.02 121.92 C38.34 77.84, 76.66 33.76, 106.3 -0.34 M0.15 133.96 C29.86 99.78, 59.57 65.61, 116.27 0.38 M0.15 133.96 C46.53 80.6, 92.92 27.25, 116.27 0.38 M6.19 139.21 C44.14 95.55, 82.09 51.89, 126.91 0.34 M6.19 139.21 C40.32 99.95, 74.44 60.69, 126.91 0.34 M16.82 139.17 C62.88 86.18, 108.95 33.19, 137.54 0.31 M16.82 139.17 C50.6 100.32, 84.38 61.46, 137.54 0.31 M26.79 139.89 C53.81 108.81, 80.83 77.73, 138.98 10.84 M26.79 139.89 C58.68 103.21, 90.57 66.52, 138.98 10.84 M37.42 139.86 C69.67 102.77, 101.91 65.68, 139.11 22.88 M37.42 139.86 C61.04 112.69, 84.66 85.52, 139.11 22.88 M48.05 139.82 C80.72 102.25, 113.38 64.68, 139.25 34.92 M48.05 139.82 C77.38 106.09, 106.71 72.35, 139.25 34.92 M58.68 139.79 C84.19 110.45, 109.69 81.12, 139.38 46.96 M58.68 139.79 C77.27 118.41, 95.86 97.02, 139.38 46.96 M69.31 139.76 C85.17 121.52, 101.02 103.28, 138.86 59.76 M69.31 139.76 C92.65 112.91, 115.98 86.07, 138.86 59.76 M79.94 139.72 C97.53 119.49, 115.12 99.26, 138.99 71.8 M79.94 139.72 C99.55 117.17, 119.15 94.62, 138.99 71.8 M90.57 139.69 C108.9 118.61, 127.22 97.53, 139.12 83.84 M90.57 139.69 C102.77 125.66, 114.96 111.63, 139.12 83.84 M101.2 139.65 C110.62 128.82, 120.04 117.98, 139.26 95.88 M101.2 139.65 C111.85 127.41, 122.49 115.17, 139.26 95.88 M111.83 139.62 C120.08 130.13, 128.33 120.64, 139.39 107.92 M111.83 139.62 C122.25 127.63, 132.67 115.65, 139.39 107.92 M122.47 139.58 C126 135.51, 129.54 131.44, 138.87 120.71 M122.47 139.58 C127.38 133.92, 132.3 128.27, 138.87 120.71 M133.1 139.55 C134.58 137.83, 136.07 136.12, 139 132.76 M133.1 139.55 C134.34 138.12, 135.58 136.69, 139 132.76 M-0.16 138.89 C-0.16 138.89, -0.16 138.89, -0.16 138.89 M-0.16 138.89 C-0.16 138.89, -0.16 138.89, -0.16 138.89 M11.88 138.76 C8.74 136.03, 5.59 133.3, -0.2 128.26 M11.88 138.76 C9.16 136.39, 6.43 134.03, -0.2 128.26 M24.67 139.28 C16.25 131.96, 7.82 124.63, -0.23 117.63 M24.67 139.28 C17.53 133.07, 10.38 126.85, -0.23 117.63 M36.72 139.15 C25.15 129.09, 13.58 119.04, -0.27 107 M36.72 139.15 C26.1 129.92, 15.49 120.7, -0.27 107 M48.76 139.02 C32.95 125.28, 17.15 111.54, -0.3 96.37 M48.76 139.02 C32.61 124.98, 16.46 110.94, -0.3 96.37 M60.8 138.88 C38.46 119.46, 16.12 100.04, -0.33 85.74 M60.8 138.88 C46.03 126.05, 31.27 113.21, -0.33 85.74 M72.84 138.75 C44.78 114.36, 16.72 89.97, -0.37 75.11 M72.84 138.75 C43.95 113.64, 15.06 88.53, -0.37 75.11 M85.63 139.27 C56.72 114.14, 27.8 89, 0.35 65.14 M85.63 139.27 C58.3 115.51, 30.96 91.74, 0.35 65.14 M97.67 139.14 C68.43 113.72, 39.18 88.29, 0.32 54.51 M97.67 139.14 C65.37 111.06, 33.06 82.98, 0.32 54.51 M109.72 139.01 C74.67 108.54, 39.63 78.08, 0.28 43.88 M109.72 139.01 C72.53 106.68, 35.34 74.35, 0.28 43.88 M121.76 138.87 C83.11 105.28, 44.47 71.69, 0.25 33.25 M121.76 138.87 C88.49 109.95, 55.22 81.03, 0.25 33.25 M133.8 138.74 C85.55 96.8, 37.31 54.87, 0.21 22.62 M133.8 138.74 C93.79 103.96, 53.78 69.19, 0.21 22.62 M139.8 133.36 C91.48 91.36, 43.16 49.35, 0.18 11.99 M139.8 133.36 C106.59 104.49, 73.37 75.61, 0.18 11.99 M139.77 122.73 C100.73 88.79, 61.68 54.85, 0.14 1.36 M139.77 122.73 C86.14 76.12, 32.52 29.5, 0.14 1.36 M139.73 112.1 C93.24 71.69, 46.76 31.28, 10.68 -0.09 M139.73 112.1 C97.69 75.55, 55.64 39, 10.68 -0.09 M139.7 101.47 C109.39 75.12, 79.08 48.77, 22.72 -0.22 M139.7 101.47 C97.3 64.61, 54.9 27.76, 22.72 -0.22 M139.66 90.84 C118.5 72.45, 97.35 54.05, 34.76 -0.35 M139.66 90.84 C105.72 61.33, 71.77 31.82, 34.76 -0.35 M139.63 80.21 C116.73 60.3, 93.83 40.4, 47.55 0.17 M139.63 80.21 C103.91 49.16, 68.2 18.12, 47.55 0.17 M139.59 69.58 C109.4 43.33, 79.21 17.09, 59.59 0.04 M139.59 69.58 C115.45 48.6, 91.32 27.61, 59.59 0.04 M139.56 58.95 C114.9 37.51, 90.24 16.08, 71.63 -0.1 M139.56 58.95 C112.52 35.45, 85.48 11.94, 71.63 -0.1 M139.52 48.32 C125.01 35.7, 110.5 23.09, 83.68 -0.23 M139.52 48.32 C127.51 37.88, 115.5 27.44, 83.68 -0.23 M139.49 37.69 C127.12 26.94, 114.76 16.19, 95.72 -0.36 M139.49 37.69 C125.7 25.7, 111.91 13.72, 95.72 -0.36 M139.46 27.06 C130.57 19.33, 121.68 11.61, 108.51 0.16 M139.46 27.06 C130.09 18.91, 120.72 10.77, 108.51 0.16 M139.42 16.43 C134.65 12.28, 129.87 8.13, 120.55 0.03 M139.42 16.43 C134.8 12.41, 130.17 8.39, 120.55 0.03 M139.39 5.8 C136.92 3.65, 134.45 1.51, 132.59 -0.11 M139.39 5.8 C137.43 4.09, 135.47 2.39, 132.59 -0.11" stroke="#fff5f5" stroke-width="1" fill="none"></path><path d="M0 0 C33.75 0, 67.51 0, 139.03 0 M0 0 C43.13 0, 86.25 0, 139.03 0 M139.03 0 C139.03 43.54, 139.03 87.07, 139.03 139.03 M139.03 0 C139.03 54.49, 139.03 108.97, 139.03 139.03 M139.03 139.03 C85.7 139.03, 32.36 139.03, 0 139.03 M139.03 139.03 C87.85 139.03, 36.67 139.03, 0 139.03 M0 139.03 C0 88.48, 0 37.92, 0 0 M0 139.03 C0 91.66, 0 44.28, 0 0" stroke="#e03131" stroke-width="2" fill="none"></path></g><g stroke-linecap="round" transform="translate(21.012909550336758 21.950447609322396) rotate(0 57.63506952730533 58.96510959332003)"><path d="M0 0 L115.27 0 L115.27 117.93 L0 117.93" stroke="none" stroke-width="0" fill="#fff5f5"></path><path d="M0 0 C32.02 0, 64.04 0, 115.27 0 M0 0 C27.84 0, 55.68 0, 115.27 0 M115.27 0 C115.27 31.81, 115.27 63.61, 115.27 117.93 M115.27 0 C115.27 29.36, 115.27 58.72, 115.27 117.93 M115.27 117.93 C70.5 117.93, 25.72 117.93, 0 117.93 M115.27 117.93 C70.19 117.93, 25.11 117.93, 0 117.93 M0 117.93 C0 89.51, 0 61.09, 0 0 M0 117.93 C0 81.43, 0 44.92, 0 0" stroke="#e03131" stroke-width="2" fill="none"></path></g><g stroke-linecap="round"><g transform="translate(21.899602927680576 45.00447542024415) rotate(0 57.19172283863373 -0.443346688671582)"><path d="M0 0 C25.41 -0.2, 50.82 -0.39, 114.38 -0.89 M0 0 C32.08 -0.25, 64.16 -0.5, 114.38 -0.89" stroke="#e03131" stroke-width="2" fill="none"></path></g></g><mask></mask><g stroke-linecap="round"><g transform="translate(35.20000358782693 33.03411482611216) rotate(0 3.1034268207010562 0)"><path d="M0 0 C1.53 0, 3.06 0, 6.21 0 M0 0 C2.35 0, 4.7 0, 6.21 0" stroke="#e03131" stroke-width="2" fill="none"></path></g></g><mask></mask><g stroke-linecap="round"><g transform="translate(52.49052444601932 33.03411482611216) rotate(0 2.660080132029476 0)"><path d="M0 0 C1.61 0, 3.22 0, 5.32 0 M0 0 C2.09 0, 4.19 0, 5.32 0" stroke="#e03131" stroke-width="2" fill="none"></path></g></g><mask></mask><g stroke-linecap="round"><g transform="translate(59.140724776092725 58.30487608039118) rotate(0 14.630440726162126 0)"><path d="M0 0 C6.41 0, 12.83 0, 29.26 0 M0 0 C11.44 0, 22.87 0, 29.26 0" stroke="#e03131" stroke-width="2" fill="none"></path></g></g><mask></mask><g stroke-linecap="round"><g transform="translate(122.55027518406507 126.11167941289011) rotate(0 -34.148668955648944 -25.688867908695492)" fill-rule="evenodd"><path d="M0 0 L-68.73 0.47 L-68.73 -50.96 L0.43 -51.85 L0 0" stroke="none" stroke-width="0" fill="#fff5f5" fill-rule="evenodd"></path><path d="M0 0 C-25.81 0.18, -51.61 0.35, -68.73 0.47 M0 0 C-18.58 0.13, -37.16 0.25, -68.73 0.47 M-68.73 0.47 C-68.73 -16.67, -68.73 -33.81, -68.73 -50.96 M-68.73 0.47 C-68.73 -14.54, -68.73 -29.54, -68.73 -50.96 M-68.73 -50.96 C-47.53 -51.23, -26.33 -51.5, 0.43 -51.85 M-68.73 -50.96 C-51.38 -51.18, -34.03 -51.4, 0.43 -51.85 M0.43 -51.85 C0.29 -34.74, 0.15 -17.63, 0 0 M0.43 -51.85 C0.27 -32.95, 0.12 -14.05, 0 0 M0 0 C0 0, 0 0, 0 0 M0 0 C0 0, 0 0, 0 0" stroke="#e03131" stroke-width="2" fill="none"></path></g></g><mask></mask><g stroke-linecap="round"><g transform="translate(34.31331021048493 76.03874362725662) rotate(0 0 5.7635069527305305)"><path d="M0 0 C0 4.21, 0 8.43, 0 11.53 M0 0 C0 2.31, 0 4.62, 0 11.53" stroke="#e03131" stroke-width="2" fill="none"></path></g></g><mask></mask><g stroke-linecap="round"><g transform="translate(34.31331021048493 66.2851164764819) rotate(0 0 -3.9901201980442096)"><path d="M0 0 C0 -2.15, 0 -4.3, 0 -7.98 M0 0 C0 -1.99, 0 -3.97, 0 -7.98" stroke="#e03131" stroke-width="2" fill="none"></path></g></g><mask></mask><g stroke-linecap="round"><g transform="translate(35.20000358782602 58.30487608039118) rotate(0 5.320160264058952 0)"><path d="M0 0 C3.42 0, 6.85 0, 10.64 0 M0 0 C2.27 0, 4.54 0, 10.64 0" stroke="#e03131" stroke-width="2" fill="none"></path></g></g><mask></mask><g stroke-linecap="round"><g transform="translate(113.22902079402604 65.84176978780886) rotate(0 0 -3.1034268207010527)"><path d="M0 0 C0 -2.35, 0 -4.7, 0 -6.21 M0 0 C0 -1.57, 0 -3.13, 0 -6.21" stroke="#e03131" stroke-width="2" fill="none"></path></g></g><mask></mask><g stroke-linecap="round"><g transform="translate(102.5887002659075 58.30487608039118) rotate(0 5.320160264058952 0)"><path d="M0 0 C4.13 0, 8.27 0, 10.64 0 M0 0 C3.39 0, 6.78 0, 10.64 0" stroke="#e03131" stroke-width="2" fill="none"></path></g></g><mask></mask><g stroke-linecap="round"><g transform="translate(34.31331021048493 106.62966514559218) rotate(0 0 -3.990120198044213)"><path d="M0 0 C0 -2.08, 0 -4.16, 0 -7.98 M0 0 C0 -3.1, 0 -6.19, 0 -7.98" stroke="#e03131" stroke-width="2" fill="none"></path></g></g><mask></mask><g stroke-linecap="round"><g transform="translate(34.31331021048584 107.95970521160723) rotate(0 4.433466886715795 0)"><path d="M0 0 C2.96 0, 5.91 0, 8.87 0 M0 0 C2.59 0, 5.17 0, 8.87 0" stroke="#e03131" stroke-width="2" fill="none"></path></g></g><mask></mask></svg>