<svg version="1.1" xmlns="http://www.w3.org/2000/svg" viewBox="0 0 162.07921967381913 161.9431654259511" width="162.07921967381913" height="161.9431654259511" class="excalidraw-svg"><!-- svg-source:excalidraw --><metadata></metadata><defs><style class="style-fonts">
      </style></defs><g stroke-linecap="round" transform="translate(10 10) rotate(0 71.03960983690956 70.97158271297555)"><path d="M0 0 C0 0, 0 0, 0 0 M0 0 C0 0, 0 0, 0 0 M0.13 12.04 C3.52 8.14, 6.91 4.24, 10.63 -0.03 M0.13 12.04 C2.26 9.59, 4.39 7.14, 10.63 -0.03 M0.27 24.08 C8.26 14.89, 16.25 5.69, 21.26 -0.07 M0.27 24.08 C6.1 17.37, 11.93 10.66, 21.26 -0.07 M-0.26 36.88 C9.88 25.22, 20.01 13.56, 31.89 -0.1 M-0.26 36.88 C6.99 28.55, 14.23 20.22, 31.89 -0.1 M-0.12 48.92 C16.01 30.36, 32.14 11.81, 42.52 -0.14 M-0.12 48.92 C11.67 35.35, 23.47 21.78, 42.52 -0.14 M0.01 60.96 C18.64 39.53, 37.26 18.11, 53.15 -0.17 M0.01 60.96 C11.63 47.6, 23.24 34.23, 53.15 -0.17 M0.14 73 C14.35 56.66, 28.56 40.31, 63.78 -0.21 M0.14 73 C13.62 57.5, 27.09 42, 63.78 -0.21 M0.28 85.04 C20.98 61.23, 41.68 37.41, 74.41 -0.24 M0.28 85.04 C15.81 67.17, 31.34 49.3, 74.41 -0.24 M-0.25 97.84 C31.67 61.12, 63.58 24.41, 85.04 -0.28 M-0.25 97.84 C31.9 60.85, 64.05 23.87, 85.04 -0.28 M-0.11 109.88 C20.75 85.88, 41.61 61.88, 95.67 -0.31 M-0.11 109.88 C29.5 75.81, 59.12 41.73, 95.67 -0.31 M0.02 121.92 C27.14 90.72, 54.25 59.53, 106.3 -0.34 M0.02 121.92 C26.65 91.28, 53.28 60.64, 106.3 -0.34 M0.15 133.96 C40.56 87.48, 80.96 40.99, 116.27 0.38 M0.15 133.96 C36.51 92.14, 72.86 50.31, 116.27 0.38 M3.57 142.23 C35.12 105.93, 66.67 69.64, 126.91 0.34 M3.57 142.23 C39.98 100.33, 76.4 58.44, 126.91 0.34 M14.2 142.19 C53.33 97.17, 92.47 52.15, 137.54 0.31 M14.2 142.19 C51.32 99.49, 88.44 56.79, 137.54 0.31 M24.83 142.16 C63.97 97.13, 103.12 52.09, 142.92 6.31 M24.83 142.16 C67.11 93.52, 109.38 44.88, 142.92 6.31 M34.8 142.88 C60.51 113.3, 86.22 83.73, 142.39 19.11 M34.8 142.88 C60.31 113.53, 85.81 84.19, 142.39 19.11 M45.43 142.84 C65.16 120.15, 84.88 97.46, 142.53 31.15 M45.43 142.84 C71.67 112.66, 97.91 82.47, 142.53 31.15 M56.06 142.81 C81.32 113.75, 106.57 84.7, 142.66 43.19 M56.06 142.81 C88.1 105.95, 120.14 69.09, 142.66 43.19 M66.69 142.77 C93.89 111.49, 121.08 80.2, 142.79 55.23 M66.69 142.77 C85.54 121.09, 104.4 99.4, 142.79 55.23 M77.32 142.74 C98.3 118.6, 119.28 94.47, 142.93 67.27 M77.32 142.74 C92.59 125.18, 107.85 107.62, 142.93 67.27 M87.95 142.7 C101.36 127.28, 114.78 111.85, 142.4 80.06 M87.95 142.7 C103.77 124.5, 119.6 106.3, 142.4 80.06 M98.58 142.67 C108.84 130.87, 119.1 119.07, 142.54 92.1 M98.58 142.67 C109.24 130.41, 119.9 118.15, 142.54 92.1 M109.21 142.64 C118.84 131.56, 128.47 120.48, 142.67 104.15 M109.21 142.64 C122.04 127.88, 134.86 113.13, 142.67 104.15 M119.84 142.6 C124.62 137.11, 129.4 131.61, 142.8 116.19 M119.84 142.6 C126.75 134.65, 133.67 126.7, 142.8 116.19 M130.47 142.57 C133.78 138.76, 137.09 134.96, 142.94 128.23 M130.47 142.57 C134.15 138.34, 137.82 134.11, 142.94 128.23 M141.1 142.53 C141.48 142.1, 141.85 141.67, 142.41 141.02 M141.1 142.53 C141.62 141.94, 142.14 141.34, 142.41 141.02 M-0.09 141.86 C-0.09 141.86, -0.09 141.86, -0.09 141.86 M-0.09 141.86 C-0.09 141.86, -0.09 141.86, -0.09 141.86 M11.95 141.73 C7.46 137.83, 2.98 133.93, -0.13 131.23 M11.95 141.73 C7.2 137.6, 2.45 133.47, -0.13 131.23 M24.74 142.25 C15.02 133.8, 5.3 125.35, -0.16 120.6 M24.74 142.25 C15.48 134.2, 6.22 126.15, -0.16 120.6 M36.78 142.12 C27.93 134.42, 19.08 126.73, -0.2 109.97 M36.78 142.12 C27.45 134, 18.11 125.89, -0.2 109.97 M48.83 141.99 C32.49 127.79, 16.16 113.59, -0.23 99.34 M48.83 141.99 C29.35 125.05, 9.87 108.12, -0.23 99.34 M60.87 141.85 C40.86 124.46, 20.85 107.07, -0.27 88.71 M60.87 141.85 C47.97 130.65, 35.08 119.44, -0.27 88.71 M72.91 141.72 C58.16 128.9, 43.41 116.08, -0.3 78.08 M72.91 141.72 C46.53 118.79, 20.14 95.85, -0.3 78.08 M85.7 142.24 C56.55 116.9, 27.41 91.57, -0.33 67.45 M85.7 142.24 C51.95 112.9, 18.2 83.56, -0.33 67.45 M97.74 142.11 C77.37 124.4, 56.99 106.68, -0.37 56.82 M97.74 142.11 C63.15 112.04, 28.56 81.97, -0.37 56.82 M109.78 141.98 C83.16 118.83, 56.53 95.68, 0.35 46.85 M109.78 141.98 C87.39 122.51, 64.99 103.03, 0.35 46.85 M121.83 141.84 C81.89 107.12, 41.95 72.41, 0.32 36.22 M121.83 141.84 C91.59 115.56, 61.36 89.28, 0.32 36.22 M133.87 141.71 C97.01 109.67, 60.16 77.63, 0.28 25.59 M133.87 141.71 C88.41 102.19, 42.94 62.67, 0.28 25.59 M142.89 138.95 C99.05 100.84, 55.2 62.73, 0.25 14.96 M142.89 138.95 C98.86 100.68, 54.84 62.41, 0.25 14.96 M142.85 128.32 C94.76 86.52, 46.68 44.72, 0.21 4.33 M142.85 128.32 C89.23 81.71, 35.61 35.09, 0.21 4.33 M142.82 117.69 C108.57 87.92, 74.32 58.15, 6.97 -0.4 M142.82 117.69 C91.75 73.3, 40.68 28.9, 6.97 -0.4 M142.78 107.06 C94.1 64.75, 45.42 22.43, 19.01 -0.53 M142.78 107.06 C96.66 66.97, 50.54 26.88, 19.01 -0.53 M142.75 96.43 C116.27 73.42, 89.8 50.4, 31.05 -0.66 M142.75 96.43 C111.59 69.34, 80.42 42.25, 31.05 -0.66 M142.72 85.8 C115.19 61.88, 87.67 37.95, 43.09 -0.8 M142.72 85.8 C115.24 61.91, 87.76 38.03, 43.09 -0.8 M142.68 75.17 C116.26 52.2, 89.83 29.23, 55.13 -0.93 M142.68 75.17 C122.51 57.63, 102.33 40.1, 55.13 -0.93 M142.65 64.54 C121.46 46.12, 100.27 27.71, 67.93 -0.41 M142.65 64.54 C119.08 44.06, 95.51 23.57, 67.93 -0.41 M142.61 53.91 C126.84 40.2, 111.07 26.49, 79.97 -0.54 M142.61 53.91 C128.37 41.53, 114.13 29.15, 79.97 -0.54 M142.58 43.28 C123.45 26.65, 104.32 10.02, 92.01 -0.67 M142.58 43.28 C132.18 34.25, 121.79 25.21, 92.01 -0.67 M142.54 32.65 C132.62 24.02, 122.69 15.39, 104.05 -0.81 M142.54 32.65 C132.88 24.25, 123.22 15.85, 104.05 -0.81 M142.51 22.02 C132.23 13.08, 121.94 4.14, 116.09 -0.94 M142.51 22.02 C133.4 14.1, 124.29 6.18, 116.09 -0.94 M142.47 11.39 C138.99 8.36, 135.5 5.33, 128.89 -0.42 M142.47 11.39 C138.84 8.23, 135.21 5.08, 128.89 -0.42 M142.44 0.76 C142.12 0.48, 141.8 0.21, 140.93 -0.55 M142.44 0.76 C142.11 0.48, 141.79 0.19, 140.93 -0.55" stroke="#fff5f5" stroke-width="1" fill="none"></path><path d="M0 0 C53 0, 105.99 0, 142.08 0 M0 0 C46.23 0, 92.45 0, 142.08 0 M142.08 0 C142.08 55.69, 142.08 111.38, 142.08 141.94 M142.08 0 C142.08 54.78, 142.08 109.56, 142.08 141.94 M142.08 141.94 C96.26 141.94, 50.44 141.94, 0 141.94 M142.08 141.94 C108.67 141.94, 75.27 141.94, 0 141.94 M0 141.94 C0 86.82, 0 31.69, 0 0 M0 141.94 C0 112.26, 0 82.58, 0 0" stroke="#e03131" stroke-width="2" fill="none"></path></g><g stroke-linecap="round"><g transform="translate(26.429363813885175 26.3613366899433) rotate(0 14.350137641086546 14.350137641086548)"><path d="M0 0 C4.78 4.78, 23.92 23.92, 28.7 28.7 M0 0 C4.78 4.78, 23.92 23.92, 28.7 28.7" stroke="#e03131" stroke-width="2" fill="none"></path></g></g><mask></mask><g stroke-linecap="round"><g transform="translate(109.34127018460777 108.47601319171395) rotate(0 13.154292837662666 13.154292837662666)"><path d="M0 0 C4.38 4.38, 21.92 21.92, 26.31 26.31 M0 0 C4.38 4.38, 21.92 21.92, 26.31 26.31" stroke="#e03131" stroke-width="2" fill="none"></path></g></g><mask></mask><g stroke-linecap="round"><g transform="translate(33.60443263442812 126.81230017754774) rotate(0 6.377838951594022 -6.377838951594015)"><path d="M0 0 C2.13 -2.13, 10.63 -10.63, 12.76 -12.76 M0 0 C2.13 -2.13, 10.63 -10.63, 12.76 -12.76" stroke="#e03131" stroke-width="2" fill="none"></path></g></g><mask></mask><g stroke-linecap="round"><g transform="translate(113.32741952935476 47.88654315157396) rotate(0 6.377838951594022 -6.377838951594015)"><path d="M0 0 C2.13 -2.13, 10.63 -10.63, 12.76 -12.76 M0 0 C2.13 -2.13, 10.63 -10.63, 12.76 -12.76" stroke="#e03131" stroke-width="2" fill="none"></path></g></g><mask></mask><g stroke-linecap="round"><g transform="translate(80.64099490243552 24.766876952040775) rotate(0 0 6.377838951594015)"><path d="M0 0 C0 2.13, 0 10.63, 0 12.76 M0 0 C0 2.13, 0 10.63, 0 12.76" stroke="#e03131" stroke-width="2" fill="none"></path></g></g><mask></mask><g stroke-linecap="round"><g transform="translate(80.64099490243552 124.420610570706) rotate(0 0 6.377838951594022)"><path d="M0 0 C0 2.13, 0 10.63, 0 12.76 M0 0 C0 2.13, 0 10.63, 0 12.76" stroke="#e03131" stroke-width="2" fill="none"></path></g></g><mask></mask><g stroke-linecap="round"><g transform="translate(24.834904075986742 80.57296777849774) rotate(0 6.377838951594022 0)"><path d="M0 0 C2.13 0, 10.63 0, 12.76 0 M0 0 C2.13 0, 10.63 0, 12.76 0" stroke="#e03131" stroke-width="2" fill="none"></path></g></g><mask></mask><g stroke-linecap="round"><g transform="translate(124.48863769464378 80.57296777849774) rotate(0 6.377838951594022 0)"><path d="M0 0 C2.13 0, 10.63 0, 12.76 0 M0 0 C2.13 0, 10.63 0, 12.76 0" stroke="#e03131" stroke-width="2" fill="none"></path></g></g><mask></mask><g stroke-linecap="round"><g transform="translate(37.59058197917511 106.8815534538196) rotate(0 -3.188919475797009 -27.90304541322385)"><path d="M0 0 C-0.93 -1.86, -4.25 -7.31, -5.58 -11.16 C-6.91 -15.01, -7.71 -19, -7.97 -23.12 C-8.24 -27.24, -7.97 -31.89, -7.18 -35.88 C-6.38 -39.86, -4.65 -43.71, -3.19 -47.04 C-1.73 -50.36, 0.8 -54.34, 1.59 -55.81 M0 0 C-0.93 -1.86, -4.25 -7.31, -5.58 -11.16 C-6.91 -15.01, -7.71 -19, -7.97 -23.12 C-8.24 -27.24, -7.97 -31.89, -7.18 -35.88 C-6.38 -39.86, -4.65 -43.71, -3.19 -47.04 C-1.73 -50.36, 0.8 -54.34, 1.59 -55.81" stroke="#e03131" stroke-width="2" fill="none"></path></g></g><mask></mask><g stroke-linecap="round"><g transform="translate(123.64711727742042 106.08432358486425) rotate(0 3.188919475797011 -27.90304541322385)"><path d="M0 0 C0.93 -1.86, 4.25 -7.31, 5.58 -11.16 C6.91 -15.01, 7.71 -19, 7.97 -23.12 C8.24 -27.24, 7.97 -31.89, 7.18 -35.88 C6.38 -39.86, 4.65 -43.71, 3.19 -47.04 C1.73 -50.36, -0.8 -54.34, -1.59 -55.81 M0 0 C0.93 -1.86, 4.25 -7.31, 5.58 -11.16 C6.91 -15.01, 7.71 -19, 7.97 -23.12 C8.24 -27.24, 7.97 -31.89, 7.18 -35.88 C6.38 -39.86, 4.65 -43.71, 3.19 -47.04 C1.73 -50.36, -0.8 -54.34, -1.59 -55.81" stroke="#e03131" stroke-width="2" fill="none"></path></g></g><mask></mask><g stroke-linecap="round"><g transform="translate(85.46866466440497 153.1208858528778) rotate(267.39716430668165 -3.18891947579701 -27.90304541322385)"><path d="M0 0 C-0.93 -1.86, -4.25 -7.31, -5.58 -11.16 C-6.91 -15.01, -7.71 -19, -7.97 -23.12 C-8.24 -27.24, -7.97 -31.89, -7.18 -35.88 C-6.38 -39.86, -4.65 -43.71, -3.19 -47.04 C-1.73 -50.36, 0.8 -54.34, 1.59 -55.81 M0 0 C-0.93 -1.86, -4.25 -7.31, -5.58 -11.16 C-6.91 -15.01, -7.71 -19, -7.97 -23.12 C-8.24 -27.24, -7.97 -31.89, -7.18 -35.88 C-6.38 -39.86, -4.65 -43.71, -3.19 -47.04 C-1.73 -50.36, 0.8 -54.34, 1.59 -55.81" stroke="#e03131" stroke-width="2" fill="none"></path></g></g><mask></mask><g stroke-linecap="round"><g transform="translate(76.60359068611979 62.0439886915417) rotate(270.61610591037237 3.188919475797011 -27.90304541322385)"><path d="M0 0 C0.93 -1.86, 4.25 -7.31, 5.58 -11.16 C6.91 -15.01, 7.71 -19, 7.97 -23.12 C8.24 -27.24, 7.97 -31.89, 7.18 -35.88 C6.38 -39.86, 4.65 -43.71, 3.19 -47.04 C1.73 -50.36, -0.8 -54.34, -1.59 -55.81 M0 0 C0.93 -1.86, 4.25 -7.31, 5.58 -11.16 C6.91 -15.01, 7.71 -19, 7.97 -23.12 C8.24 -27.24, 7.97 -31.89, 7.18 -35.88 C6.38 -39.86, 4.65 -43.71, 3.19 -47.04 C1.73 -50.36, -0.8 -54.34, -1.59 -55.81" stroke="#e03131" stroke-width="2" fill="none"></path></g></g><mask></mask><g stroke-linecap="round"><g transform="translate(103.26548727031786 88.88710300179059) rotate(0 -21.777037724580943 -10.805400397692452)" fill-rule="evenodd"><path d="M0 0 C-0.39 1.16, -0.94 4.71, -2.33 6.98 C-3.71 9.25, -6.04 11.86, -8.31 13.63 C-10.58 15.4, -13.13 16.68, -15.96 17.62 C-18.78 18.56, -22.55 19.45, -25.27 19.28 C-27.98 19.12, -29.76 18.18, -32.25 16.62 C-34.74 15.07, -38.35 12.3, -40.23 9.97 C-42.11 7.65, -43.17 5.49, -43.55 2.66 C-43.94 -0.17, -43.39 -4.38, -42.56 -6.98 C-41.73 -9.59, -39.18 -10.69, -38.57 -12.97 C-37.96 -15.24, -38.51 -17.84, -38.9 -20.61 C-39.29 -23.38, -41.56 -28.54, -40.89 -29.59 C-40.23 -30.64, -36.63 -28.04, -34.91 -26.93 C-33.19 -25.82, -31.81 -24.6, -30.59 -22.94 C-29.37 -21.28, -28.15 -16.4, -27.6 -16.96 C-27.04 -17.51, -26.99 -23.38, -27.26 -26.27 C-27.54 -29.15, -28.04 -31.81, -29.26 -34.24 C-30.48 -36.68, -35.13 -40.01, -34.58 -40.89 C-34.02 -41.78, -28.76 -40.84, -25.93 -39.56 C-23.11 -38.29, -19.84 -35.3, -17.62 -33.25 C-15.4 -31.2, -13.96 -29.7, -12.63 -27.26 C-11.3 -24.82, -9.97 -22.05, -9.64 -18.62 C-9.31 -15.18, -11.14 -7.65, -10.64 -6.65 C-10.14 -5.65, -7.54 -10.2, -6.65 -12.63 C-5.76 -15.07, -6.21 -20.78, -5.32 -21.28 C-4.43 -21.78, -2.22 -17.84, -1.33 -15.63 C-0.44 -13.41, -0.22 -10.58, 0 -7.98 C0.22 -5.37, 0 -1.33, 0 0" stroke="none" stroke-width="0" fill="#fff5f5" fill-rule="evenodd"></path><path d="M0 0 C-0.39 1.16, -0.94 4.71, -2.33 6.98 C-3.71 9.25, -6.04 11.86, -8.31 13.63 C-10.58 15.4, -13.13 16.68, -15.96 17.62 C-18.78 18.56, -22.55 19.45, -25.27 19.28 C-27.98 19.12, -29.76 18.18, -32.25 16.62 C-34.74 15.07, -38.35 12.3, -40.23 9.97 C-42.11 7.65, -43.17 5.49, -43.55 2.66 C-43.94 -0.17, -43.39 -4.38, -42.56 -6.98 C-41.73 -9.59, -39.18 -10.69, -38.57 -12.97 C-37.96 -15.24, -38.51 -17.84, -38.9 -20.61 C-39.29 -23.38, -41.56 -28.54, -40.89 -29.59 C-40.23 -30.64, -36.63 -28.04, -34.91 -26.93 C-33.19 -25.82, -31.81 -24.6, -30.59 -22.94 C-29.37 -21.28, -28.15 -16.4, -27.6 -16.96 C-27.04 -17.51, -26.99 -23.38, -27.26 -26.27 C-27.54 -29.15, -28.04 -31.81, -29.26 -34.24 C-30.48 -36.68, -35.13 -40.01, -34.58 -40.89 C-34.02 -41.78, -28.76 -40.84, -25.93 -39.56 C-23.11 -38.29, -19.84 -35.3, -17.62 -33.25 C-15.4 -31.2, -13.96 -29.7, -12.63 -27.26 C-11.3 -24.82, -9.97 -22.05, -9.64 -18.62 C-9.31 -15.18, -11.14 -7.65, -10.64 -6.65 C-10.14 -5.65, -7.54 -10.2, -6.65 -12.63 C-5.76 -15.07, -6.21 -20.78, -5.32 -21.28 C-4.43 -21.78, -2.22 -17.84, -1.33 -15.63 C-0.44 -13.41, -0.22 -10.58, 0 -7.98 C0.22 -5.37, 0 -1.33, 0 0 M0 0 C-0.39 1.16, -0.94 4.71, -2.33 6.98 C-3.71 9.25, -6.04 11.86, -8.31 13.63 C-10.58 15.4, -13.13 16.68, -15.96 17.62 C-18.78 18.56, -22.55 19.45, -25.27 19.28 C-27.98 19.12, -29.76 18.18, -32.25 16.62 C-34.74 15.07, -38.35 12.3, -40.23 9.97 C-42.11 7.65, -43.17 5.49, -43.55 2.66 C-43.94 -0.17, -43.39 -4.38, -42.56 -6.98 C-41.73 -9.59, -39.18 -10.69, -38.57 -12.97 C-37.96 -15.24, -38.51 -17.84, -38.9 -20.61 C-39.29 -23.38, -41.56 -28.54, -40.89 -29.59 C-40.23 -30.64, -36.63 -28.04, -34.91 -26.93 C-33.19 -25.82, -31.81 -24.6, -30.59 -22.94 C-29.37 -21.28, -28.15 -16.4, -27.6 -16.96 C-27.04 -17.51, -26.99 -23.38, -27.26 -26.27 C-27.54 -29.15, -28.04 -31.81, -29.26 -34.24 C-30.48 -36.68, -35.13 -40.01, -34.58 -40.89 C-34.02 -41.78, -28.76 -40.84, -25.93 -39.56 C-23.11 -38.29, -19.84 -35.3, -17.62 -33.25 C-15.4 -31.2, -13.96 -29.7, -12.63 -27.26 C-11.3 -24.82, -9.97 -22.05, -9.64 -18.62 C-9.31 -15.18, -11.14 -7.65, -10.64 -6.65 C-10.14 -5.65, -7.54 -10.2, -6.65 -12.63 C-5.76 -15.07, -6.21 -20.78, -5.32 -21.28 C-4.43 -21.78, -2.22 -17.84, -1.33 -15.63 C-0.44 -13.41, -0.22 -10.58, 0 -7.98 C0.22 -5.37, 0 -1.33, 0 0" stroke="#e03131" stroke-width="2" fill="none"></path></g></g><mask></mask><g stroke-linecap="round"><g transform="translate(80.65726489975987 50.98508314525884) rotate(0 0.33247385839055177 28.42651489239229)"><path d="M0 0 C0.72 1.66, 3.55 7.04, 4.32 9.97 C5.1 12.91, 4.93 15.4, 4.65 17.62 C4.38 19.84, 3.77 20.95, 2.66 23.27 C1.55 25.6, -0.94 28.98, -1.99 31.59 C-3.05 34.19, -3.32 36.13, -3.66 38.9 C-3.99 41.67, -4.21 45.22, -3.99 48.21 C-3.77 51.2, -2.6 55.41, -2.33 56.85 M0 0 C0.72 1.66, 3.55 7.04, 4.32 9.97 C5.1 12.91, 4.93 15.4, 4.65 17.62 C4.38 19.84, 3.77 20.95, 2.66 23.27 C1.55 25.6, -0.94 28.98, -1.99 31.59 C-3.05 34.19, -3.32 36.13, -3.66 38.9 C-3.99 41.67, -4.21 45.22, -3.99 48.21 C-3.77 51.2, -2.6 55.41, -2.33 56.85" stroke="#e03131" stroke-width="2" fill="none"></path></g></g><mask></mask></svg>