<?xml version="1.0" encoding="UTF-8" standalone="no"?>
<svg
   width="550mm"
   height="400mm"
   viewBox="0 0 550 400"
   version="1.1"
   id="svg1"
   sodipodi:docname="Genestack Logo Color.svg"
   inkscape:version="1.4.3 (0d15f75, 2025-12-25)"
   xmlns:inkscape="http://www.inkscape.org/namespaces/inkscape"
   xmlns:sodipodi="http://sodipodi.sourceforge.net/DTD/sodipodi-0.dtd"
   xmlns="http://www.w3.org/2000/svg"
   xmlns:svg="http://www.w3.org/2000/svg">
  <sodipodi:namedview
     id="namedview1"
     pagecolor="#ffffff"
     bordercolor="#999999"
     borderopacity="1"
     inkscape:showpageshadow="2"
     inkscape:pageopacity="0"
     inkscape:pagecheckerboard="0"
     inkscape:deskcolor="#d1d1d1"
     inkscape:document-units="mm"
     inkscape:zoom="0.33891973"
     inkscape:cx="1386.7591"
     inkscape:cy="727.31087"
     inkscape:current-layer="g1" />
  <defs
     id="defs1" />
  <g
     id="layer1">
    <g
       inkscape:groupmode="layer"
       id="layer2"
       inkscape:label="clrs">
      <g
         id="g1">
        <path
           fill="#3f4f6f"
           opacity="1"
           stroke="none"
           d="m 120.2698,173.22691 c -0.0878,-0.41687 10.14927,-6.96417 10.06144,-7.38098 7.30811,-5.86065 13.99607,-8.62319 23.2669,-5.60514 1.56043,0.65652 10.41079,4.62703 11.5232,4.74346 19.17518,8.94136 21.12434,4.40972 30.95641,15.78455 -3.693,5.65401 -20.78363,20.82895 -24.78561,26.5131 -14.84411,-9.15562 -26.82839,-24.51132 -51.02234,-34.05499 z"
           id="path158"
           style="stroke-width:1.0791"
           sodipodi:nodetypes="ccccccc" />
        <path
           fill="#32415c"
           opacity="1"
           stroke="none"
           d="m 366.47372,173.88661 c 5.12254,-2.87981 7.06004,-3.83183 12.51698,-5.55016 15.59187,-4.90966 30.78567,-3.27899 46.14134,6.01924 -15.95227,4.9633 -29.1284,13.59622 -42.21141,23.09593 -6.77429,-7.0273 -10.1586,-16.74812 -16.44691,-23.56501 z"
           id="path62"
           style="stroke-width:1.08011"
           sodipodi:nodetypes="csccc" />
        <path
           fill="#162437"
           opacity="1"
           stroke="none"
           d="m 366.61425,171.91463 22.1544,25.85563 c -4.13633,4.57932 -10.05083,8.72993 -14.37379,12.90156 -5.90399,-7.47782 -11.55341,-14.14223 -16.69193,-21.28348 -4.84627,-6.73506 -0.56087,-13.1069 8.91132,-17.47371 z"
           id="path69"
           style="stroke-width:1.28819"
           sodipodi:nodetypes="cccsc" />
        <path
           fill="#162437"
           opacity="1"
           stroke="none"
           d="m 393.06935,212.15712 c 10.03223,7.70505 19.46145,15.55257 29.39151,23.80763 -3.83589,7.40375 -8.17235,14.39981 -13.13746,22.40959 -6.33205,-6.21455 -12.36652,-12.09236 -18.32715,-18.02948 -1.0409,-1.03687 -1.57392,-2.50198 -2.67387,-3.46702 -13.34656,-11.71009 -11.74367,-10.26251 4.74697,-24.72072 z"
           id="path72"
           style="stroke-width:1.8032" />
        <path
           fill="#32415c"
           opacity="1"
           stroke="none"
           d="m 432.5981,231.84948 -9.80286,7.67269 -32.61368,-29.65224 -1.84469,-12.57797 z"
           id="path71"
           style="stroke-width:1.49894"
           sodipodi:nodetypes="ccccc" />
        <path
           fill="#74829c"
           opacity="1"
           stroke="none"
           d="m 483.39798,256.80331 c 0.54063,-4.37631 -3.84317,-8.42871 -3.34303,-12.54734 7.80073,-11.85569 12.62874,-24.8433 7.95544,-38.22946 15.2371,13.62616 24.73294,21.3575 27.29035,33.02323 4.80226,21.90567 -7.42635,36.67996 -27.33229,56.08747 -1.74695,1.70321 -1.74609,7.12925 -4.33906,4.97923 l -30.05615,-24.92168 c 16.06576,-8.27288 19.06081,3.58763 29.82474,-18.39145 z"
           id="path55"
           style="stroke-width:1.20696"
           sodipodi:nodetypes="cccssscc" />
        <path
           fill="#ed2031"
           opacity="1"
           stroke="none"
           d="M 463.26958,263.20868 433.7747,238.20286 c 3.79484,-5.85024 20.59578,-6.0771 26.12957,-0.74146 3.53762,3.41096 6.60647,7.16869 7.0089,12.61082 0.32002,4.32798 -0.0153,10.19057 -3.64359,13.13646 z"
           id="path254"
           style="stroke-width:0.953637"
           sodipodi:nodetypes="ccssc" />
        <path
           fill="#c7091d"
           opacity="1"
           stroke="none"
           d="m 465.67695,265.38069 c -5.20792,5.24661 -13.13883,1.66803 -20.19735,0.57875 -8.57726,-1.32353 -13.85836,-6.4465 -15.29288,-13.69557 -0.95012,-4.80134 -4.97782,-11.65099 0.80682,-14.71322 10.5185,4.40241 26.12701,20.34786 34.68341,27.83004 z"
           id="path253"
           style="stroke-width:0.996851"
           sodipodi:nodetypes="ccscc" />
        <path
           fill="#37455f"
           opacity="1"
           stroke="none"
           d="m 502.05458,312.90667 c -9.17285,13.33044 -26.92548,13.57067 -29.3843,24.61859 -1.14398,5.14012 -27.42165,1.14457 -15.56939,-2.01548 2.16609,-7.09649 4.08762,-14.46996 6.09181,-21.74992 11.37226,0.15261 22.75558,-1.7009 34.42132,-10.16156 1.6423,3.40951 3.04144,6.35893 4.44056,9.30838 z"
           id="path66"
           style="stroke-width:1.24225"
           sodipodi:nodetypes="sscccss" />
        <path
           fill="#202c3e"
           opacity="1"
           stroke="none"
           d="m 500.6377,318.84763 c -2.82977,-2.04007 -5.27522,-4.14224 -7.75122,-6.77756 6.7216,-5.97727 13.47374,-11.42138 21.60326,-17.97602 -3.05789,11.32952 -6.58141,19.4547 -13.85204,24.75358 z"
           id="path81"
           style="stroke-width:1.32405" />
        <path
           fill="#506080"
           opacity="1"
           stroke="none"
           d="m 432.55503,337.53124 c 0.61542,-7.96474 1.75125,-15.83125 2.86728,-24.34343 8.78077,-0.14234 17.58122,0.36099 26.8872,0.91607 -0.90549,6.70508 -2.19536,13.42283 -3.84341,19.94961 -0.2831,1.12007 -2.07096,1.92867 -3.19906,2.02744 -7.39182,0.64712 -14.79322,1.05958 -22.71201,1.45031 z"
           id="path70"
           style="stroke-width:1.32388" />
        <path
           fill="#667594"
           opacity="1"
           stroke="none"
           d="m 430.42638,341.45165 c -5.67288,-2.24586 -18.32155,-2.05107 -23.71166,-5.157 6.19997,-7.051 8.00594,-17.37383 13.67271,-25.23411 1.30424,-0.16008 2.10983,0.19255 2.91535,0.54508 4.40791,3.55953 9.7838,2.27914 14.35068,6.62097 -2.48164,7.79532 -4.30587,16.40556 -7.22708,23.22506 z"
           id="path68"
           style="stroke-width:1.12682"
           sodipodi:nodetypes="cccccc" />
        <path
           fill="#6f7e9c"
           opacity="1"
           stroke="none"
           d="m 369.66164,322.50707 c 5.67911,-6.21904 18.26181,-17.30153 24.01789,-22.89547 l 26.16304,12.76713 -13.17829,26.1725 c -14.57816,-5.59732 -36.58245,-12.61939 -37.00264,-16.04416 z"
           id="path63"
           style="stroke-width:1.11505"
           sodipodi:nodetypes="ccccc" />
        <path
           fill="#c90a1e"
           opacity="1"
           stroke="none"
           d="m 287.17736,147.556 c 4.64085,5.4575 2.42691,13.7569 7.45525,18.61261 11.95061,11.54021 24.36666,22.81334 37.00961,33.92017 8.63402,7.58498 59.64582,84.00925 48.95661,74.28856 l -11.62815,8.52889 -97.29871,-114.168 c -3.19578,-0.19652 -2.73465,-20.20479 -3.63614,-22.60434 3.47348,0 15.78864,1.29065 19.14153,1.42211 z"
           id="path231"
           style="stroke-width:0.801854"
           sodipodi:nodetypes="ccsscccc" />
        <path
           fill="#f61933"
           opacity="1"
           stroke="none"
           d="m 400.9154,290.26607 -17.07366,-10.42318 c -2.80541,-1.71266 -17.58964,-19.55941 -38.06981,-46.2446 -20.48016,-26.68519 -60.24951,-76.87329 -60.87808,-83.042 -1.25714,-12.33742 8.84675,-3.94005 8.84675,-3.94005 14.01422,2.54282 19.88163,7.67964 28.92595,17.20504 10.026,10.55938 18.40543,22.41106 28.57336,32.73206 l 72.71568,73.81033 z"
           id="path230"
           style="stroke-width:0.750988"
           sodipodi:nodetypes="cssscsscc" />
        <path
           fill="#162437"
           opacity="1"
           stroke="none"
           d="m 283.31874,367.85232 -51.8664,2.47409 24.33871,-29.20934 z"
           id="path61"
           style="stroke-width:0.96979"
           sodipodi:nodetypes="cccc"
           inkscape:transform-center-x="0.64532567"
           inkscape:transform-center-y="-0.9679878"
           sodipodi:insensitive="true" />
        <path
           fill="#3d4966"
           opacity="1"
           stroke="none"
           d="m 247.34399,337.58252 7.52781,8.54652 -25.60379,29.75455 -14.54251,-8.61606 z"
           id="path64"
           style="stroke-width:1.17354"
           sodipodi:nodetypes="ccccc" />
        <path
           fill="#cd0d20"
           opacity="1"
           stroke="none"
           d="M 95.549814,365.63909 81.109089,359.91191 C 67.473304,354.50397 57.517575,344.15279 49.36204,333.17472 c -1.44969,-1.95156 -2.559361,-4.08522 -3.337446,-6.64017 17.466004,10.31522 15.751345,15.76304 42.277521,15.75182 z"
           id="path216"
           style="stroke-width:1.05603"
           sodipodi:nodetypes="cssccc" />
        <path
           fill="#ef1a2e"
           opacity="1"
           stroke="none"
           d="m 197.19968,296.04488 c 1.27623,-0.83625 13.19721,10.72781 14.59207,11.84298 l -65.79846,52.80466 -17.5683,-19.5829 z"
           id="path215"
           style="stroke-width:0.264583"
           sodipodi:nodetypes="scccs" />
        <path
           fill="#df0b20"
           opacity="1"
           stroke="none"
           d="m 98.890104,364.59711 c -6.942125,-0.9014 -10.574631,-19.7146 -10.574631,-19.7146 13.146747,2.8757 30.364677,-3.71735 43.409627,-6.9262 3.41011,12.74164 11.13582,17.37755 18.72402,22.86544 l -22.10496,8.66659 c 0,0 -19.58443,-3.60971 -29.454056,-4.89123 z"
           id="path217"
           style="stroke-width:0.635665"
           sodipodi:nodetypes="sccccs" />
        <path
           fill="#192538"
           opacity="1"
           stroke="none"
           d="m 82.951798,276.52823 c 0.381339,-12.99564 6.689926,-16.30915 14.863718,-17.94381 7.699844,-1.53986 17.137654,4.89721 19.116284,14.16398 1.26975,5.94658 -2.68173,13.59925 -8.90369,16.57974 -13.073903,6.36412 -20.150859,-2.87145 -25.076312,-12.79991 z"
           id="path283"
           style="stroke-width:1.2554"
           sodipodi:nodetypes="csssc" />
        <path
           fill="#8b97ac"
           opacity="1"
           stroke="none"
           d="m 161.43884,255.78988 -24.98731,17.10358 -18.31687,-12.77012 22.00506,-27.17567 z"
           id="path218"
           style="stroke-width:1.87677"
           sodipodi:nodetypes="ccccc" />
        <path
           fill="#162437"
           opacity="1"
           stroke="none"
           d="m 175.3849,296.103 -20.92521,-23.05965 9.7656,-8.32122 20.60372,21.72372 z"
           id="path284"
           style="stroke-width:3.66611"
           sodipodi:nodetypes="ccccc" />
        <path
           fill="#37455f"
           opacity="1"
           stroke="none"
           d="m 114.01563,303.47607 45.61031,-28.45205 14.94011,17.73767 -36.76185,34.20259 z"
           id="path227"
           style="stroke-width:1.18242"
           sodipodi:nodetypes="ccccc" />
        <path
           fill="#202c3e"
           opacity="1"
           stroke="none"
           d="m 50.25196,230.98223 -10.602113,-6.26214 33.244579,-32.84932 23.994796,20.1779 z"
           id="path65"
           style="stroke-width:0.964247"
           sodipodi:nodetypes="ccccc" />
        <path
           fill="#f61933"
           opacity="1"
           stroke="none"
           d="m 314.79037,267.31777 -26.89266,-29.34902 c -2.22055,-2.42337 -46.57823,-44.351 -67.0584,-71.03619 -20.48016,-26.68519 -69.69819,-27.00522 -70.32676,-33.17393 -1.25714,-12.33742 47.69134,-30.1864 47.69134,-30.1864 14.01422,2.54282 35.62944,10.8292 44.67376,20.3546 10.026,10.55938 20.50514,48.13248 30.67307,58.45348 l 61.88585,66.50649 z"
           id="path12"
           style="stroke-width:0.750988"
           sodipodi:nodetypes="cssscsscc" />
        <path
           fill="#c90a1e"
           opacity="1"
           stroke="none"
           d="m 136.31537,157.28889 11.12974,-20.23199 27.95632,-0.19999 c 15.06794,-0.10779 45.77583,22.79254 52.0973,28.34596 4.31701,3.79249 78.69769,89.94485 81.92589,92.6005 l 6.77729,6.97359 -5.29495,5.44012 -53.42875,-43.19384 -63.70339,-58.52574 c -3.19578,-0.19652 -27.93114,-9.18132 -28.83263,-11.58087 3.47348,0 -31.97971,0.2408 -28.62682,0.37226 z"
           id="path231-3"
           style="stroke-width:0.801854"
           sodipodi:nodetypes="ccssscccccc" />
        <path
           fill="#d80517"
           opacity="1"
           stroke="none"
           d="m 174.60261,111.94959 c -2.58786,8.04145 -8.8247,18.76788 -11.09351,25.52623 -13.04789,2.0557 -11.79261,9.00486 -19.62915,16.53534 l -7.56852,0.9672 c -2.2463,-6.51929 10.26376,-15.66248 19.80071,-30.14496 2.18977,-1.11957 9.72806,-10.22613 18.49047,-12.88381 z"
           id="path304"
           style="stroke-width:2.33847"
           sodipodi:nodetypes="cccccc" />
        <path
           fill="#c20a1c"
           opacity="1"
           stroke="none"
           d="m 182.99339,65.079355 c 8.35107,12.995441 26.33596,24.398397 36.43447,25.521613 9.08326,1.010294 -66.51182,17.660192 -72.01689,18.598472 z"
           id="path144"
           style="stroke-width:0.663148"
           sodipodi:nodetypes="cscc" />
        <path
           fill="#f54855"
           opacity="1"
           stroke="none"
           d="m 287.23559,45.141487 -8.87164,-13.768704 34.92492,3.874325 47.33048,19.953087 44.20027,46.071105 12.86739,58.89315 -19.73934,-3.81301 L 380.13143,109.23386 358.81397,82.89022 324.8921,58.18048 Z"
           id="path142"
           style="stroke-width:0.460528"
           sodipodi:nodetypes="ccccccccccc" />
        <path
           fill="#fe1834"
           opacity="1"
           stroke="none"
           d="m 288.81184,42.18807 c 0,0 9.05807,0.961834 13.48025,2.001087 6.51094,1.530129 13.07777,3.256344 19.08222,6.202555 6.75536,3.31466 14.49298,8.209464 20.52359,12.709872 8.85291,6.606585 16.33772,12.812521 23.81358,20.944712 10.28417,11.187051 19.24121,23.888394 25.74501,37.622114 4.73657,10.00196 8.30603,30.31244 7.68273,33.03351 -0.88721,3.87316 -55.90384,13.13213 -55.90384,13.13213 l -96.00404,-63.9901 -41.10014,-55.648327 37.63316,-13.882157 39.76798,-1.761215"
           id="path141"
           style="stroke-width:0.599114"
           sodipodi:nodetypes="cssssssccccc" />
        <path
           fill="#d0091e"
           opacity="1"
           stroke="none"
           d="m 213.03881,51.093192 c 0.96289,4.333058 2.20967,4.443309 4.77557,9.800679 2.3243,4.852961 24.48774,26.222538 46.55704,39.506509 25.17025,15.1505 33.68407,39.38423 30.35349,37.22915 -3.96806,-2.56757 -29.6602,-2.08763 -29.6447,-2.09073 -7.96339,-8.83032 -9.73101,-26.08218 -23.24522,-31.26456 -7.26501,-2.78596 -17.55591,-9.426596 -25.71901,-11.701347 l -10.46466,-1.015315 c -7.39622,-0.717605 -19.30313,-19.97301 -24.43487,-25.207521 4.47383,-2.562326 29.94723,-23.694998 30.87094,-19.538295 z"
           id="path143"
           style="stroke-width:0.586782"
           sodipodi:nodetypes="sssscscscss" />
        <path
           fill="#ed2031"
           opacity="1"
           stroke="none"
           d="m 442.466,351.31389 9.86257,-0.90228 c 7.3644,6.20088 7.34948,5.39752 13.83529,11.09501 l -18.85623,5.90831 -26.91574,3.54592 c 11.45177,-6.46419 19.80308,-10.45831 22.07411,-19.64696 z"
           id="path195"
           style="stroke-width:1.41068"
           sodipodi:nodetypes="cccccc" />
        <path
           fill="#c90a1e"
           opacity="1"
           stroke="none"
           d="m 464.60196,359.82203 -8.97524,-6.32454 16.75838,-5.29578 16.37601,-2.03079 c -8.22813,4.28088 -16.39484,8.58736 -24.15915,13.651 z"
           id="path256"
           style="stroke-width:0.566035"
           sodipodi:nodetypes="cccccc" />
      </g>
    </g>
    <g
       id="g20"
       sodipodi:insensitive="true">
      <path
         style="fill:none;fill-opacity:1;stroke:#000000;stroke-width:20;stroke-linecap:round;stroke-linejoin:round;stroke-miterlimit:0;stroke-dasharray:none;stroke-dashoffset:21;stroke-opacity:1;paint-order:stroke fill markers"
         d="m 25,270 v 9.99999 a 95.000002,95.000002 45 0 0 95,95 H 430.00001 A 94.999988,94.999988 135 0 0 525,280 V 269.99999 A 94.999988,94.999988 45 0 0 430.00001,175 h -4.99999 v -4.99999 A 145.00001,145.00001 45 0 0 280.00001,25 h -5 A 150.00001,150.00001 135 0 0 125,175 h -5 a 95.000002,95.000002 135 0 0 -95,95 z"
         id="path1"
         inkscape:label="path1" />
      <path
         style="fill:none;fill-opacity:1;stroke:#000000;stroke-width:20;stroke-linecap:round;stroke-linejoin:round;stroke-miterlimit:0;stroke-dasharray:none;stroke-dashoffset:21;stroke-opacity:1;paint-order:stroke fill markers"
         d="m 75.000003,275 v 0 A 24.999998,24.999998 45 0 0 100,300 v 0 a 24.999998,24.999998 135 0 0 25,-25 v 0 a 24.999998,24.999998 45 0 0 -25,-25 v 0 a 24.999998,24.999998 135 0 0 -24.999997,25 z"
         id="path2" />
      <path
         style="fill:none;fill-opacity:1;stroke:#000000;stroke-width:20;stroke-linecap:round;stroke-linejoin:round;stroke-miterlimit:0;stroke-dasharray:none;stroke-dashoffset:21;stroke-opacity:1;paint-order:stroke fill markers"
         d="m 424,250 c 0,-14 11,-25 26,-25 15,0 25,11 25,25 0,14 -10,25 -25,25 -15,0 -26,-11 -26,-25 z"
         id="path3"
         sodipodi:nodetypes="sssss" />
      <path
         style="fill:none;fill-opacity:1;stroke:#000000;stroke-width:20;stroke-linecap:round;stroke-linejoin:round;stroke-miterlimit:0;stroke-dasharray:none;stroke-dashoffset:21;stroke-opacity:1;paint-order:stroke fill markers"
         d="m 458.22665,179.03201 -11.24642,-0.97383 -12.53707,1.60747 c -27.29399,3.49955 -27.83319,11.32724 -43.85515,22.77149 L 382,209"
         id="path4"
         sodipodi:nodetypes="ccscc" />
      <path
         style="fill:none;fill-opacity:1;stroke:#000000;stroke-width:20;stroke-linecap:round;stroke-linejoin:round;stroke-miterlimit:0;stroke-dasharray:none;stroke-dashoffset:21;stroke-opacity:1;paint-order:stroke fill markers"
         d="m 425.00002,170 -16.59538,-6.22326 a 57.32151,57.32151 176.99549 0 0 -45.76188,2.40188 L 349,173"
         id="path5" />
      <path
         style="fill:none;fill-opacity:1;stroke:#000000;stroke-width:20;stroke-linecap:round;stroke-linejoin:round;stroke-miterlimit:0;stroke-dasharray:none;stroke-dashoffset:21;stroke-opacity:1;paint-order:stroke fill markers"
         d="M 269.60927,141.75276 C 337.68532,145.25009 340.025,177.42783 360,203 c 21,25 42.06402,49.38999 78.06404,69.38999"
         id="path6"
         sodipodi:nodetypes="ccc" />
      <path
         style="fill:none;fill-opacity:1;stroke:#000000;stroke-width:20;stroke-linecap:round;stroke-linejoin:round;stroke-miterlimit:0;stroke-dasharray:none;stroke-dashoffset:21;stroke-opacity:1;paint-order:stroke fill markers"
         d="m 121.75055,172.57174 c 9.98842,-61.55969 103.82937,-114.30678 138.1457,-30.64017 18.248,58.66359 42.82813,68.6862 108.42826,135.6777 39.60486,28.14128 55.24945,38.35541 105.06843,33.92715 33.74834,-13.74835 48.92715,-41.78145 45.35761,-76.67108"
         id="path7"
         sodipodi:nodetypes="ccccc" />
      <path
         style="fill:none;fill-opacity:1;stroke:#000000;stroke-width:20;stroke-linecap:round;stroke-linejoin:round;stroke-miterlimit:0;stroke-dasharray:none;stroke-dashoffset:21;stroke-opacity:1;paint-order:stroke fill markers"
         d="m 127.07285,171.25165 c 22.08022,-19.12182 45.65422,-16.76162 74.34235,6.91776 2.60371,2.14912 5.24954,4.47385 7.94021,6.97407 78.53849,71.83757 79.51626,73.83825 167.10596,147.9978 C 415.0112,352.58248 504.14712,353.25094 522.07064,298"
         id="path8"
         sodipodi:nodetypes="csccc" />
      <path
         style="fill:none;fill-opacity:1;stroke:#000000;stroke-width:20;stroke-linecap:round;stroke-linejoin:round;stroke-miterlimit:0;stroke-dasharray:none;stroke-dashoffset:21;stroke-opacity:1;paint-order:stroke fill markers"
         d="m 92.964684,178.57175 c 21.999996,1 26.609276,-0.71303 72.498896,25.78587 63.77177,45.84469 112.9922,111.74181 180,153 15,9 35.64238,17.03532 53.64239,17.03532"
         id="path9"
         sodipodi:nodetypes="cccc" />
      <path
         style="fill:none;fill-opacity:1;stroke:#000000;stroke-width:20;stroke-linecap:round;stroke-linejoin:round;stroke-miterlimit:0;stroke-dasharray:none;stroke-dashoffset:21;stroke-opacity:1;paint-order:stroke fill markers"
         d="m 46.745116,274.91549 0.336587,5.17924 a 61.659013,61.659013 50.158969 0 0 46.574719,55.81938 85.117549,85.117549 165.63071 0 0 71.949068,-18.43228 l 39.39452,-30.44657 -39.38902,-42.44299 c -16.90598,-18.21676 -51.23047,-34.56956 -75.192652,-28.35899 -1.170285,0.30332 -2.329149,0.61605 -3.478679,0.93668 -23.930699,6.67485 -41.806273,32.94503 -40.194543,57.74553 z"
         id="path10"
         transform="translate(-9.9999985)" />
      <path
         style="fill:none;fill-opacity:1;stroke:#000000;stroke-width:20;stroke-linecap:round;stroke-linejoin:round;stroke-miterlimit:0;stroke-dasharray:none;stroke-dashoffset:21;stroke-opacity:1;paint-order:stroke fill markers"
         d="m 115,295 50,-35"
         id="path16" />
      <path
         style="fill:none;fill-opacity:1;stroke:#000000;stroke-width:20;stroke-linecap:round;stroke-linejoin:round;stroke-miterlimit:0;stroke-dasharray:none;stroke-dashoffset:21;stroke-opacity:1;paint-order:stroke fill markers"
         d="m 120,260 15,20"
         id="path17" />
      <path
         style="fill:none;fill-opacity:1;stroke:#000000;stroke-width:20;stroke-linecap:round;stroke-linejoin:round;stroke-miterlimit:0;stroke-dasharray:none;stroke-dashoffset:21;stroke-opacity:1;paint-order:stroke fill markers"
         d="m 150.00001,240 140,130"
         id="path18" />
      <path
         style="fill:none;fill-opacity:1;stroke:#000000;stroke-width:20;stroke-linecap:round;stroke-linejoin:round;stroke-miterlimit:0;stroke-dasharray:none;stroke-dashoffset:21;stroke-opacity:1;paint-order:stroke fill markers"
         d="m 220.00001,310 -52.46697,43.72247 a 84.487485,84.487485 146.81469 0 1 -16.30361,10.66282 102.88682,102.88682 161.74335 0 1 -25.93814,8.55645 l -0.67591,0.13518 a 49.029018,49.029018 2.8647883e-6 0 1 -19.23076,0 L 90.000003,370"
         id="path19" />
      <path
         style="fill:none;fill-opacity:1;stroke:#000000;stroke-width:20;stroke-linecap:round;stroke-linejoin:round;stroke-miterlimit:0;stroke-dasharray:none;stroke-dashoffset:21;stroke-opacity:1;paint-order:stroke fill markers"
         d="M 245.00001,330 195,374.99999"
         id="path20" />
    </g>
  </g>
</svg>
