<svg version="1.1" xmlns="http://www.w3.org/2000/svg" viewBox="0 0 168.38124609555115 168.23915706323805" width="168.38124609555115" height="168.23915706323805" class="excalidraw-svg"><!-- svg-source:excalidraw --><metadata></metadata><defs><style class="style-fonts">
      </style></defs><g stroke-linecap="round" transform="translate(10 10) rotate(0 74.19062304777557 74.11957853161903)"><path d="M0 0 C0 0, 0 0, 0 0 M0 0 C0 0, 0 0, 0 0 M0.13 12.04 C4.09 7.49, 8.04 2.94, 10.63 -0.03 M0.13 12.04 C3.57 8.08, 7.01 4.13, 10.63 -0.03 M0.27 24.08 C4.58 19.12, 8.89 14.16, 21.26 -0.07 M0.27 24.08 C7.93 15.26, 15.6 6.45, 21.26 -0.07 M-0.26 36.88 C11.08 23.84, 22.41 10.8, 31.89 -0.1 M-0.26 36.88 C12.49 22.22, 25.23 7.55, 31.89 -0.1 M-0.12 48.92 C12.33 34.59, 24.79 20.26, 42.52 -0.14 M-0.12 48.92 C16.03 30.33, 32.19 11.75, 42.52 -0.14 M0.01 60.96 C16.8 41.65, 33.58 22.34, 53.15 -0.17 M0.01 60.96 C11.55 47.68, 23.09 34.41, 53.15 -0.17 M0.14 73 C22.55 47.22, 44.96 21.45, 63.78 -0.21 M0.14 73 C15.75 55.04, 31.36 37.09, 63.78 -0.21 M0.28 85.04 C28.76 52.27, 57.24 19.51, 74.41 -0.24 M0.28 85.04 C23.08 58.81, 45.88 32.58, 74.41 -0.24 M-0.25 97.84 C22.76 71.37, 45.77 44.9, 85.04 -0.28 M-0.25 97.84 C20.22 74.29, 40.68 50.75, 85.04 -0.28 M-0.11 109.88 C34.29 70.3, 68.69 30.73, 95.67 -0.31 M-0.11 109.88 C33.53 71.18, 67.17 32.48, 95.67 -0.31 M0.02 121.92 C33.4 83.51, 66.79 45.11, 106.3 -0.34 M0.02 121.92 C32.35 84.73, 64.68 47.54, 106.3 -0.34 M0.15 133.96 C38.1 90.3, 76.05 46.65, 116.27 0.38 M0.15 133.96 C46.26 80.91, 92.38 27.87, 116.27 0.38 M0.29 146 C43.12 96.72, 85.96 47.44, 126.91 0.34 M0.29 146 C31.28 110.34, 62.28 74.68, 126.91 0.34 M8.29 148.98 C41.59 110.68, 74.88 72.38, 137.54 0.31 M8.29 148.98 C41.89 110.33, 75.49 71.68, 137.54 0.31 M18.92 148.95 C68.04 92.44, 117.16 35.93, 148.17 0.27 M18.92 148.95 C62.14 99.24, 105.35 49.52, 148.17 0.27 M29.55 148.92 C54.06 120.72, 78.57 92.52, 148.3 12.31 M29.55 148.92 C67.57 105.18, 105.58 61.45, 148.3 12.31 M40.18 148.88 C68.48 116.33, 96.77 83.78, 148.43 24.35 M40.18 148.88 C73.85 110.15, 107.51 71.42, 148.43 24.35 M50.81 148.85 C81.35 113.71, 111.9 78.58, 148.56 36.39 M50.81 148.85 C82.44 112.46, 114.07 76.08, 148.56 36.39 M61.44 148.81 C95.35 109.8, 129.26 70.79, 148.7 48.44 M61.44 148.81 C94.46 110.82, 127.49 72.84, 148.7 48.44 M72.07 148.78 C102.46 113.82, 132.84 78.87, 148.17 61.23 M72.07 148.78 C101.13 115.35, 130.18 81.93, 148.17 61.23 M82.7 148.74 C105.84 122.13, 128.97 95.52, 148.31 73.27 M82.7 148.74 C96.22 133.19, 109.75 117.63, 148.31 73.27 M93.33 148.71 C113.99 124.95, 134.64 101.18, 148.44 85.31 M93.33 148.71 C113.83 125.13, 134.33 101.54, 148.44 85.31 M103.96 148.67 C118.62 131.82, 133.27 114.96, 148.57 97.35 M103.96 148.67 C118.64 131.79, 133.32 114.91, 148.57 97.35 M114.59 148.64 C122.49 139.55, 130.39 130.47, 148.71 109.39 M114.59 148.64 C126.09 135.41, 137.59 122.18, 148.71 109.39 M125.22 148.6 C131.55 141.32, 137.89 134.04, 148.18 122.19 M125.22 148.6 C133.21 139.42, 141.19 130.23, 148.18 122.19 M135.85 148.57 C138.92 145.04, 141.98 141.52, 148.32 134.23 M135.85 148.57 C139.41 144.48, 142.97 140.39, 148.32 134.23 M146.48 148.54 C147.15 147.77, 147.81 147, 148.45 146.27 M146.48 148.54 C147.13 147.79, 147.78 147.05, 148.45 146.27 M-0.19 148.07 C-0.19 148.07, -0.19 148.07, -0.19 148.07 M-0.19 148.07 C-0.19 148.07, -0.19 148.07, -0.19 148.07 M11.85 147.94 C8.9 145.37, 5.95 142.81, -0.23 137.44 M11.85 147.94 C9.39 145.8, 6.94 143.67, -0.23 137.44 M24.65 148.46 C17.75 142.47, 10.85 136.47, -0.26 126.81 M24.65 148.46 C14.84 139.94, 5.03 131.41, -0.26 126.81 M36.69 148.33 C25.34 138.47, 14 128.61, -0.29 116.18 M36.69 148.33 C23.01 136.44, 9.34 124.56, -0.29 116.18 M48.73 148.2 C35.54 136.73, 22.35 125.27, -0.33 105.55 M48.73 148.2 C29.16 131.18, 9.58 114.17, -0.33 105.55 M60.77 148.06 C47.18 136.25, 33.59 124.44, -0.36 94.92 M60.77 148.06 C42.99 132.61, 25.22 117.16, -0.36 94.92 M72.81 147.93 C46.07 124.69, 19.33 101.45, 0.36 84.95 M72.81 147.93 C52.71 130.46, 32.61 112.99, 0.36 84.95 M85.6 148.45 C62.37 128.25, 39.13 108.06, 0.32 74.32 M85.6 148.45 C60.43 126.57, 35.26 104.69, 0.32 74.32 M97.64 148.32 C70.75 124.94, 43.86 101.57, 0.29 63.69 M97.64 148.32 C71.77 125.83, 45.9 103.34, 0.29 63.69 M109.69 148.19 C74.34 117.46, 38.99 86.73, 0.25 53.06 M109.69 148.19 C68.39 112.29, 27.1 76.39, 0.25 53.06 M121.73 148.05 C76.36 108.62, 31 69.18, 0.22 42.43 M121.73 148.05 C77.24 109.38, 32.75 70.7, 0.22 42.43 M133.77 147.92 C103.82 121.89, 73.88 95.86, 0.18 31.8 M133.77 147.92 C80.69 101.78, 27.61 55.64, 0.18 31.8 M146.56 148.44 C98.58 106.73, 50.6 65.02, 0.15 21.17 M146.56 148.44 C95.83 104.35, 45.11 60.25, 0.15 21.17 M148.79 139.78 C117.52 112.6, 86.24 85.41, 0.11 10.54 M148.79 139.78 C107.05 103.5, 65.31 67.21, 0.11 10.54 M148.76 129.15 C105.48 91.53, 62.2 53.91, 0.08 -0.09 M148.76 129.15 C98.18 85.19, 47.61 41.22, 0.08 -0.09 M148.72 118.52 C107.67 82.84, 66.63 47.15, 12.12 -0.23 M148.72 118.52 C118.83 92.53, 88.93 66.55, 12.12 -0.23 M148.69 107.89 C111.4 75.47, 74.1 43.05, 24.16 -0.36 M148.69 107.89 C118.02 81.23, 87.35 54.57, 24.16 -0.36 M148.65 97.26 C115.38 68.34, 82.11 39.41, 36.96 0.16 M148.65 97.26 C118.66 71.19, 88.67 45.11, 36.96 0.16 M148.62 86.63 C121.38 62.96, 94.15 39.28, 49 0.03 M148.62 86.63 C115.79 58.09, 82.96 29.56, 49 0.03 M148.59 76 C114.43 46.31, 80.27 16.62, 61.04 -0.1 M148.59 76 C117.74 49.19, 86.9 22.38, 61.04 -0.1 M148.55 65.37 C132.12 51.09, 115.7 36.81, 73.08 -0.24 M148.55 65.37 C131.93 50.92, 115.31 36.47, 73.08 -0.24 M148.52 54.74 C126.37 35.49, 104.22 16.24, 85.12 -0.37 M148.52 54.74 C132.14 40.51, 115.77 26.27, 85.12 -0.37 M148.48 44.11 C137.28 34.38, 126.09 24.64, 97.92 0.15 M148.48 44.11 C132.59 30.29, 116.7 16.48, 97.92 0.15 M148.45 33.48 C135.68 22.38, 122.9 11.28, 109.96 0.02 M148.45 33.48 C139.2 25.44, 129.95 17.4, 109.96 0.02 M149.17 23.51 C142.15 17.4, 135.13 11.3, 122 -0.11 M149.17 23.51 C139.02 14.69, 128.88 5.87, 122 -0.11 M149.13 12.88 C144.93 9.22, 140.73 5.57, 134.04 -0.24 M149.13 12.88 C145.85 10.02, 142.56 7.17, 134.04 -0.24 M149.1 2.25 C147.93 1.23, 146.77 0.22, 146.08 -0.38 M149.1 2.25 C148.12 1.39, 147.14 0.54, 146.08 -0.38" stroke="#fff5f5" stroke-width="1" fill="none"></path><path d="M0 0 C45.21 0, 90.41 0, 148.38 0 M0 0 C39.72 0, 79.44 0, 148.38 0 M148.38 0 C148.38 50.45, 148.38 100.91, 148.38 148.24 M148.38 0 C148.38 30.08, 148.38 60.16, 148.38 148.24 M148.38 148.24 C98.64 148.24, 48.91 148.24, 0 148.24 M148.38 148.24 C100.74 148.24, 53.09 148.24, 0 148.24 M0 148.24 C0 95.54, 0 42.84, 0 0 M0 148.24 C0 109.88, 0 71.53, 0 0" stroke="#e03131" stroke-width="2" fill="none"></path></g><g stroke-linecap="round" transform="translate(93.17503163566244 96.42004150094567) rotate(0 19.144598919045592 19.144598919045578)"><path d="M38.29 19.14 C38.29 20.25, 38.19 21.38, 38 22.47 C37.81 23.56, 37.51 24.65, 37.13 25.69 C36.76 26.73, 36.28 27.76, 35.72 28.72 C35.17 29.68, 34.52 30.6, 33.81 31.45 C33.1 32.3, 32.3 33.1, 31.45 33.81 C30.6 34.52, 29.68 35.17, 28.72 35.72 C27.76 36.28, 26.73 36.76, 25.69 37.13 C24.65 37.51, 23.56 37.81, 22.47 38 C21.38 38.19, 20.25 38.29, 19.14 38.29 C18.04 38.29, 16.91 38.19, 15.82 38 C14.73 37.81, 13.64 37.51, 12.6 37.13 C11.56 36.76, 10.53 36.28, 9.57 35.72 C8.61 35.17, 7.69 34.52, 6.84 33.81 C5.99 33.1, 5.19 32.3, 4.48 31.45 C3.77 30.6, 3.12 29.68, 2.56 28.72 C2.01 27.76, 1.53 26.73, 1.15 25.69 C0.78 24.65, 0.48 23.56, 0.29 22.47 C0.1 21.38, 0 20.25, 0 19.14 C0 18.04, 0.1 16.91, 0.29 15.82 C0.48 14.73, 0.78 13.64, 1.15 12.6 C1.53 11.56, 2.01 10.53, 2.56 9.57 C3.12 8.61, 3.77 7.69, 4.48 6.84 C5.19 5.99, 5.99 5.19, 6.84 4.48 C7.69 3.77, 8.61 3.12, 9.57 2.56 C10.53 2.01, 11.56 1.53, 12.6 1.15 C13.64 0.78, 14.73 0.48, 15.82 0.29 C16.91 0.1, 18.04 0, 19.14 0 C20.25 0, 21.38 0.1, 22.47 0.29 C23.56 0.48, 24.65 0.78, 25.69 1.15 C26.73 1.53, 27.76 2.01, 28.72 2.56 C29.68 3.12, 30.6 3.77, 31.45 4.48 C32.3 5.19, 33.1 5.99, 33.81 6.84 C34.52 7.69, 35.17 8.61, 35.72 9.57 C36.28 10.53, 36.76 11.56, 37.13 12.6 C37.51 13.64, 37.81 14.73, 38 15.82 C38.19 16.91, 38.24 18.59, 38.29 19.14 C38.34 19.7, 38.34 18.59, 38.29 19.14" stroke="none" stroke-width="0" fill="#fff5f5"></path><path d="M38.29 19.14 C38.29 20.25, 38.19 21.38, 38 22.47 C37.81 23.56, 37.51 24.65, 37.13 25.69 C36.76 26.73, 36.28 27.76, 35.72 28.72 C35.17 29.68, 34.52 30.6, 33.81 31.45 C33.1 32.3, 32.3 33.1, 31.45 33.81 C30.6 34.52, 29.68 35.17, 28.72 35.72 C27.76 36.28, 26.73 36.76, 25.69 37.13 C24.65 37.51, 23.56 37.81, 22.47 38 C21.38 38.19, 20.25 38.29, 19.14 38.29 C18.04 38.29, 16.91 38.19, 15.82 38 C14.73 37.81, 13.64 37.51, 12.6 37.13 C11.56 36.76, 10.53 36.28, 9.57 35.72 C8.61 35.17, 7.69 34.52, 6.84 33.81 C5.99 33.1, 5.19 32.3, 4.48 31.45 C3.77 30.6, 3.12 29.68, 2.56 28.72 C2.01 27.76, 1.53 26.73, 1.15 25.69 C0.78 24.65, 0.48 23.56, 0.29 22.47 C0.1 21.38, 0 20.25, 0 19.14 C0 18.04, 0.1 16.91, 0.29 15.82 C0.48 14.73, 0.78 13.64, 1.15 12.6 C1.53 11.56, 2.01 10.53, 2.56 9.57 C3.12 8.61, 3.77 7.69, 4.48 6.84 C5.19 5.99, 5.99 5.19, 6.84 4.48 C7.69 3.77, 8.61 3.12, 9.57 2.56 C10.53 2.01, 11.56 1.53, 12.6 1.15 C13.64 0.78, 14.73 0.48, 15.82 0.29 C16.91 0.1, 18.04 0, 19.14 0 C20.25 0, 21.38 0.1, 22.47 0.29 C23.56 0.48, 24.65 0.78, 25.69 1.15 C26.73 1.53, 27.76 2.01, 28.72 2.56 C29.68 3.12, 30.6 3.77, 31.45 4.48 C32.3 5.19, 33.1 5.99, 33.81 6.84 C34.52 7.69, 35.17 8.61, 35.72 9.57 C36.28 10.53, 36.76 11.56, 37.13 12.6 C37.51 13.64, 37.81 14.73, 38 15.82 C38.19 16.91, 38.24 18.59, 38.29 19.14 C38.34 19.7, 38.34 18.59, 38.29 19.14" stroke="#e03131" stroke-width="2" fill="none"></path></g><g stroke-linecap="round"><g transform="translate(111.59262046917593 107.08285608876395) rotate(0 0 8.724121026400518)"><path d="M0 0 C0 4.08, 0 8.16, 0 17.45 M0 0 C0 5.68, 0 11.36, 0 17.45" stroke="#e03131" stroke-width="2" fill="none"></path></g></g><mask></mask><g stroke-linecap="round"><g transform="translate(103.35317283313043 115.80697711516382) rotate(0 7.754774245689362 0)"><path d="M0 0 C3.75 0, 7.5 0, 15.51 0 M0 0 C3.84 0, 7.69 0, 15.51 0" stroke="#e03131" stroke-width="2" fill="none"></path></g></g><mask></mask><g stroke-linecap="round"><g transform="translate(50.52377328437251 56.19215010142443) rotate(0 27.626383250268276 11.632161368534021)"><path d="M0 0 C8.81 -3.79, 17.62 -7.58, 28.18 -12.12 M0 0 C10.29 -4.42, 20.58 -8.85, 28.18 -12.12 M28.18 -12.12 C38.99 -7.67, 49.8 -3.22, 55.25 -0.97 M28.18 -12.12 C33.86 -9.78, 39.54 -7.44, 55.25 -0.97 M55.25 -0.97 C55.25 7.74, 55.25 16.44, 55.25 35.38 M55.25 -0.97 C55.25 10.73, 55.25 22.44, 55.25 35.38" stroke="#e03131" stroke-width="2" fill="none"></path></g></g><mask></mask><g stroke-linecap="round"><g transform="translate(78.63482992499439 124.04642475120477) rotate(0 0 -39.985554704335705)"><path d="M0 0 C0 -21.56, 0 -43.12, 0 -79.97 M0 0 C0 -18.96, 0 -37.92, 0 -79.97" stroke="#e03131" stroke-width="2" fill="none"></path></g></g><mask></mask><g stroke-linecap="round"><g transform="translate(36.95291835441594 46.10213133857178) rotate(0 41.68191157058024 14.209742580879627)"><path d="M0 0 C11.69 -4.95, 23.38 -9.91, 40.23 -17.05 M0 0 C9.39 -3.98, 18.78 -7.96, 40.23 -17.05 M40.23 -17.05 C50.69 -12.8, 61.15 -8.55, 83.36 0.47 M40.23 -17.05 C52.64 -12.01, 65.06 -6.96, 83.36 0.47 M83.36 0.47 C83.36 17.72, 83.36 34.97, 83.36 45.47 M83.36 0.47 C83.36 9.84, 83.36 19.2, 83.36 45.47" stroke="#e03131" stroke-width="2" fill="none"></path></g></g><mask></mask><g stroke-linecap="round"><g transform="translate(95.5983985874418 136.64793290044986) rotate(0 -29.322740116512847 -44.34761521753597)"><path d="M0 0 C-1.78 0.4, -6.79 2.1, -10.66 2.42 C-14.54 2.75, -19.39 2.34, -23.26 1.94 C-27.14 1.53, -30.05 1.62, -33.93 0 C-37.8 -1.62, -43.06 -4.2, -46.53 -7.75 C-50 -11.31, -52.83 -17.13, -54.77 -21.33 C-56.71 -25.53, -57.51 -27.71, -58.16 -32.96 C-58.81 -38.21, -58.56 -46.69, -58.65 -52.83 C-58.73 -58.97, -58.65 -64.54, -58.65 -69.79 C-58.65 -75.04, -58.73 -80.78, -58.65 -84.33 C-58.56 -87.89, -58.24 -89.99, -58.16 -91.12 M0 0 C-1.78 0.4, -6.79 2.1, -10.66 2.42 C-14.54 2.75, -19.39 2.34, -23.26 1.94 C-27.14 1.53, -30.05 1.62, -33.93 0 C-37.8 -1.62, -43.06 -4.2, -46.53 -7.75 C-50 -11.31, -52.83 -17.13, -54.77 -21.33 C-56.71 -25.53, -57.51 -27.71, -58.16 -32.96 C-58.81 -38.21, -58.56 -46.69, -58.65 -52.83 C-58.73 -58.97, -58.65 -64.54, -58.65 -69.79 C-58.65 -75.04, -58.73 -80.78, -58.65 -84.33 C-58.56 -87.89, -58.24 -89.99, -58.16 -91.12" stroke="#e03131" stroke-width="2" fill="none"></path></g></g><mask></mask><g stroke-linecap="round"><g transform="translate(87.13278596049577 124.42190593414512) rotate(0 -18.179255252907524 -33.71467572550894)"><path d="M0 0 C-1.77 0.02, -7.56 0.35, -10.62 0.13 C-13.68 -0.08, -15.56 -0.1, -18.38 -1.28 C-21.2 -2.45, -25.02 -4.33, -27.54 -6.92 C-30.07 -9.5, -32.13 -13.74, -33.54 -16.79 C-34.95 -19.85, -35.54 -21.43, -36.01 -25.25 C-36.48 -29.07, -36.3 -35.24, -36.36 -39.71 C-36.42 -44.17, -36.36 -48.23, -36.36 -52.05 C-36.36 -55.87, -36.42 -60.04, -36.36 -62.63 C-36.3 -65.21, -36.06 -66.74, -36.01 -67.56 M0 0 C-1.77 0.02, -7.56 0.35, -10.62 0.13 C-13.68 -0.08, -15.56 -0.1, -18.38 -1.28 C-21.2 -2.45, -25.02 -4.33, -27.54 -6.92 C-30.07 -9.5, -32.13 -13.74, -33.54 -16.79 C-34.95 -19.85, -35.54 -21.43, -36.01 -25.25 C-36.48 -29.07, -36.3 -35.24, -36.36 -39.71 C-36.42 -44.17, -36.36 -48.23, -36.36 -52.05 C-36.36 -55.87, -36.42 -60.04, -36.36 -62.63 C-36.3 -65.21, -36.06 -66.74, -36.01 -67.56" stroke="#e03131" stroke-width="2" fill="none"></path></g></g><mask></mask></svg>